<?xml version="1.0" encoding="utf-8" standalone="no"?>
<!DOCTYPE svg PUBLIC "-//W3C//DTD SVG 1.1//EN"
  "http://www.w3.org/Graphics/SVG/1.1/DTD/svg11.dtd">
<svg xmlns:xlink="http://www.w3.org/1999/xlink" width="348.008902pt" height="194.645477pt" viewBox="0 0 348.008902 194.645477" xmlns="http://www.w3.org/2000/svg" version="1.1">
 <metadata>
  <rdf:RDF xmlns:dc="http://purl.org/dc/elements/1.1/" xmlns:cc="http://creativecommons.org/ns#" xmlns:rdf="http://www.w3.org/1999/02/22-rdf-syntax-ns#">
   <cc:Work>
    <dc:type rdf:resource="http://purl.org/dc/dcmitype/StillImage"/>
    <dc:date>2022-08-22T07:55:13.194248</dc:date>
    <dc:format>image/svg+xml</dc:format>
    <dc:creator>
     <cc:Agent>
      <dc:title>Matplotlib v3.5.2, https://matplotlib.org/</dc:title>
     </cc:Agent>
    </dc:creator>
   </cc:Work>
  </rdf:RDF>
 </metadata>
 <defs>
  <style type="text/css">*{stroke-linejoin: round; stroke-linecap: butt}</style>
 </defs>
 <g id="figure_1">
  <g id="patch_1">
   <path d="M 0 194.645477 
L 348.008902 194.645477 
L 348.008902 0 
L 0 0 
L 0 194.645477 
z
" style="fill: none"/>
  </g>
  <g id="axes_1">
   <g id="patch_2">
    <path d="M 74.432812 170.767352 
L 340.808902 170.767352 
L 340.808902 7.2 
L 74.432812 7.2 
L 74.432812 170.767352 
z
" style="fill: none"/>
   </g>
   <g id="matplotlib.axis_1">
    <g id="xtick_1">
     <g id="line2d_1">
      <defs>
       <path id="md231e26661" d="M 0 0 
L 0 3.5 
" style="stroke: #666666; stroke-opacity: 0.015686; stroke-width: 0.8"/>
      </defs>
      <g>
       <use xlink:href="#md231e26661" x="86.540817" y="170.767352" style="fill: #666666; fill-opacity: 0.015686; stroke: #666666; stroke-opacity: 0.015686; stroke-width: 0.8"/>
      </g>
     </g>
     <g id="text_1">
      <!-- 0 -->
      <g style="fill: #666666" transform="translate(83.359567 185.365789)scale(0.1 -0.1)">
       <defs>
        <path id="DejaVuSans-30" d="M 2034 4250 
Q 1547 4250 1301 3770 
Q 1056 3291 1056 2328 
Q 1056 1369 1301 889 
Q 1547 409 2034 409 
Q 2525 409 2770 889 
Q 3016 1369 3016 2328 
Q 3016 3291 2770 3770 
Q 2525 4250 2034 4250 
z
M 2034 4750 
Q 2819 4750 3233 4129 
Q 3647 3509 3647 2328 
Q 3647 1150 3233 529 
Q 2819 -91 2034 -91 
Q 1250 -91 836 529 
Q 422 1150 422 2328 
Q 422 3509 836 4129 
Q 1250 4750 2034 4750 
z
" transform="scale(0.015625)"/>
       </defs>
       <use xlink:href="#DejaVuSans-30"/>
      </g>
     </g>
    </g>
    <g id="xtick_2">
     <g id="line2d_2">
      <g>
       <use xlink:href="#md231e26661" x="140.958812" y="170.767352" style="fill: #666666; fill-opacity: 0.015686; stroke: #666666; stroke-opacity: 0.015686; stroke-width: 0.8"/>
      </g>
     </g>
     <g id="text_2">
      <!-- 20 -->
      <g style="fill: #666666" transform="translate(134.596312 185.365789)scale(0.1 -0.1)">
       <defs>
        <path id="DejaVuSans-32" d="M 1228 531 
L 3431 531 
L 3431 0 
L 469 0 
L 469 531 
Q 828 903 1448 1529 
Q 2069 2156 2228 2338 
Q 2531 2678 2651 2914 
Q 2772 3150 2772 3378 
Q 2772 3750 2511 3984 
Q 2250 4219 1831 4219 
Q 1534 4219 1204 4116 
Q 875 4013 500 3803 
L 500 4441 
Q 881 4594 1212 4672 
Q 1544 4750 1819 4750 
Q 2544 4750 2975 4387 
Q 3406 4025 3406 3419 
Q 3406 3131 3298 2873 
Q 3191 2616 2906 2266 
Q 2828 2175 2409 1742 
Q 1991 1309 1228 531 
z
" transform="scale(0.015625)"/>
       </defs>
       <use xlink:href="#DejaVuSans-32"/>
       <use xlink:href="#DejaVuSans-30" x="63.623047"/>
      </g>
     </g>
    </g>
    <g id="xtick_3">
     <g id="line2d_3">
      <g>
       <use xlink:href="#md231e26661" x="195.376808" y="170.767352" style="fill: #666666; fill-opacity: 0.015686; stroke: #666666; stroke-opacity: 0.015686; stroke-width: 0.8"/>
      </g>
     </g>
     <g id="text_3">
      <!-- 40 -->
      <g style="fill: #666666" transform="translate(189.014308 185.365789)scale(0.1 -0.1)">
       <defs>
        <path id="DejaVuSans-34" d="M 2419 4116 
L 825 1625 
L 2419 1625 
L 2419 4116 
z
M 2253 4666 
L 3047 4666 
L 3047 1625 
L 3713 1625 
L 3713 1100 
L 3047 1100 
L 3047 0 
L 2419 0 
L 2419 1100 
L 313 1100 
L 313 1709 
L 2253 4666 
z
" transform="scale(0.015625)"/>
       </defs>
       <use xlink:href="#DejaVuSans-34"/>
       <use xlink:href="#DejaVuSans-30" x="63.623047"/>
      </g>
     </g>
    </g>
    <g id="xtick_4">
     <g id="line2d_4">
      <g>
       <use xlink:href="#md231e26661" x="249.794804" y="170.767352" style="fill: #666666; fill-opacity: 0.015686; stroke: #666666; stroke-opacity: 0.015686; stroke-width: 0.8"/>
      </g>
     </g>
     <g id="text_4">
      <!-- 60 -->
      <g style="fill: #666666" transform="translate(243.432304 185.365789)scale(0.1 -0.1)">
       <defs>
        <path id="DejaVuSans-36" d="M 2113 2584 
Q 1688 2584 1439 2293 
Q 1191 2003 1191 1497 
Q 1191 994 1439 701 
Q 1688 409 2113 409 
Q 2538 409 2786 701 
Q 3034 994 3034 1497 
Q 3034 2003 2786 2293 
Q 2538 2584 2113 2584 
z
M 3366 4563 
L 3366 3988 
Q 3128 4100 2886 4159 
Q 2644 4219 2406 4219 
Q 1781 4219 1451 3797 
Q 1122 3375 1075 2522 
Q 1259 2794 1537 2939 
Q 1816 3084 2150 3084 
Q 2853 3084 3261 2657 
Q 3669 2231 3669 1497 
Q 3669 778 3244 343 
Q 2819 -91 2113 -91 
Q 1303 -91 875 529 
Q 447 1150 447 2328 
Q 447 3434 972 4092 
Q 1497 4750 2381 4750 
Q 2619 4750 2861 4703 
Q 3103 4656 3366 4563 
z
" transform="scale(0.015625)"/>
       </defs>
       <use xlink:href="#DejaVuSans-36"/>
       <use xlink:href="#DejaVuSans-30" x="63.623047"/>
      </g>
     </g>
    </g>
    <g id="xtick_5">
     <g id="line2d_5">
      <g>
       <use xlink:href="#md231e26661" x="304.2128" y="170.767352" style="fill: #666666; fill-opacity: 0.015686; stroke: #666666; stroke-opacity: 0.015686; stroke-width: 0.8"/>
      </g>
     </g>
     <g id="text_5">
      <!-- 80 -->
      <g style="fill: #666666" transform="translate(297.8503 185.365789)scale(0.1 -0.1)">
       <defs>
        <path id="DejaVuSans-38" d="M 2034 2216 
Q 1584 2216 1326 1975 
Q 1069 1734 1069 1313 
Q 1069 891 1326 650 
Q 1584 409 2034 409 
Q 2484 409 2743 651 
Q 3003 894 3003 1313 
Q 3003 1734 2745 1975 
Q 2488 2216 2034 2216 
z
M 1403 2484 
Q 997 2584 770 2862 
Q 544 3141 544 3541 
Q 544 4100 942 4425 
Q 1341 4750 2034 4750 
Q 2731 4750 3128 4425 
Q 3525 4100 3525 3541 
Q 3525 3141 3298 2862 
Q 3072 2584 2669 2484 
Q 3125 2378 3379 2068 
Q 3634 1759 3634 1313 
Q 3634 634 3220 271 
Q 2806 -91 2034 -91 
Q 1263 -91 848 271 
Q 434 634 434 1313 
Q 434 1759 690 2068 
Q 947 2378 1403 2484 
z
M 1172 3481 
Q 1172 3119 1398 2916 
Q 1625 2713 2034 2713 
Q 2441 2713 2670 2916 
Q 2900 3119 2900 3481 
Q 2900 3844 2670 4047 
Q 2441 4250 2034 4250 
Q 1625 4250 1398 4047 
Q 1172 3844 1172 3481 
z
" transform="scale(0.015625)"/>
       </defs>
       <use xlink:href="#DejaVuSans-38"/>
       <use xlink:href="#DejaVuSans-30" x="63.623047"/>
      </g>
     </g>
    </g>
   </g>
   <g id="matplotlib.axis_2">
    <g id="ytick_1">
     <g id="line2d_6">
      <defs>
       <path id="me168994a69" d="M 0 0 
L -3.5 0 
" style="stroke: #666666; stroke-opacity: 0.015686; stroke-width: 0.8"/>
      </defs>
      <g>
       <use xlink:href="#me168994a69" x="74.432812" y="160.870913" style="fill: #666666; fill-opacity: 0.015686; stroke: #666666; stroke-opacity: 0.015686; stroke-width: 0.8"/>
      </g>
     </g>
     <g id="text_6">
      <!-- −175000 -->
      <g style="fill: #666666" transform="translate(20.878125 164.670132)scale(0.1 -0.1)">
       <defs>
        <path id="DejaVuSans-2212" d="M 678 2272 
L 4684 2272 
L 4684 1741 
L 678 1741 
L 678 2272 
z
" transform="scale(0.015625)"/>
        <path id="DejaVuSans-31" d="M 794 531 
L 1825 531 
L 1825 4091 
L 703 3866 
L 703 4441 
L 1819 4666 
L 2450 4666 
L 2450 531 
L 3481 531 
L 3481 0 
L 794 0 
L 794 531 
z
" transform="scale(0.015625)"/>
        <path id="DejaVuSans-37" d="M 525 4666 
L 3525 4666 
L 3525 4397 
L 1831 0 
L 1172 0 
L 2766 4134 
L 525 4134 
L 525 4666 
z
" transform="scale(0.015625)"/>
        <path id="DejaVuSans-35" d="M 691 4666 
L 3169 4666 
L 3169 4134 
L 1269 4134 
L 1269 2991 
Q 1406 3038 1543 3061 
Q 1681 3084 1819 3084 
Q 2600 3084 3056 2656 
Q 3513 2228 3513 1497 
Q 3513 744 3044 326 
Q 2575 -91 1722 -91 
Q 1428 -91 1123 -41 
Q 819 9 494 109 
L 494 744 
Q 775 591 1075 516 
Q 1375 441 1709 441 
Q 2250 441 2565 725 
Q 2881 1009 2881 1497 
Q 2881 1984 2565 2268 
Q 2250 2553 1709 2553 
Q 1456 2553 1204 2497 
Q 953 2441 691 2322 
L 691 4666 
z
" transform="scale(0.015625)"/>
       </defs>
       <use xlink:href="#DejaVuSans-2212"/>
       <use xlink:href="#DejaVuSans-31" x="83.789062"/>
       <use xlink:href="#DejaVuSans-37" x="147.412109"/>
       <use xlink:href="#DejaVuSans-35" x="211.035156"/>
       <use xlink:href="#DejaVuSans-30" x="274.658203"/>
       <use xlink:href="#DejaVuSans-30" x="338.28125"/>
       <use xlink:href="#DejaVuSans-30" x="401.904297"/>
      </g>
     </g>
    </g>
    <g id="ytick_2">
     <g id="line2d_7">
      <g>
       <use xlink:href="#me168994a69" x="74.432812" y="138.01928" style="fill: #666666; fill-opacity: 0.015686; stroke: #666666; stroke-opacity: 0.015686; stroke-width: 0.8"/>
      </g>
     </g>
     <g id="text_7">
      <!-- −172500 -->
      <g style="fill: #666666" transform="translate(20.878125 141.818498)scale(0.1 -0.1)">
       <use xlink:href="#DejaVuSans-2212"/>
       <use xlink:href="#DejaVuSans-31" x="83.789062"/>
       <use xlink:href="#DejaVuSans-37" x="147.412109"/>
       <use xlink:href="#DejaVuSans-32" x="211.035156"/>
       <use xlink:href="#DejaVuSans-35" x="274.658203"/>
       <use xlink:href="#DejaVuSans-30" x="338.28125"/>
       <use xlink:href="#DejaVuSans-30" x="401.904297"/>
      </g>
     </g>
    </g>
    <g id="ytick_3">
     <g id="line2d_8">
      <g>
       <use xlink:href="#me168994a69" x="74.432812" y="115.167646" style="fill: #666666; fill-opacity: 0.015686; stroke: #666666; stroke-opacity: 0.015686; stroke-width: 0.8"/>
      </g>
     </g>
     <g id="text_8">
      <!-- −170000 -->
      <g style="fill: #666666" transform="translate(20.878125 118.966865)scale(0.1 -0.1)">
       <use xlink:href="#DejaVuSans-2212"/>
       <use xlink:href="#DejaVuSans-31" x="83.789062"/>
       <use xlink:href="#DejaVuSans-37" x="147.412109"/>
       <use xlink:href="#DejaVuSans-30" x="211.035156"/>
       <use xlink:href="#DejaVuSans-30" x="274.658203"/>
       <use xlink:href="#DejaVuSans-30" x="338.28125"/>
       <use xlink:href="#DejaVuSans-30" x="401.904297"/>
      </g>
     </g>
    </g>
    <g id="ytick_4">
     <g id="line2d_9">
      <g>
       <use xlink:href="#me168994a69" x="74.432812" y="92.316013" style="fill: #666666; fill-opacity: 0.015686; stroke: #666666; stroke-opacity: 0.015686; stroke-width: 0.8"/>
      </g>
     </g>
     <g id="text_9">
      <!-- −167500 -->
      <g style="fill: #666666" transform="translate(20.878125 96.115232)scale(0.1 -0.1)">
       <use xlink:href="#DejaVuSans-2212"/>
       <use xlink:href="#DejaVuSans-31" x="83.789062"/>
       <use xlink:href="#DejaVuSans-36" x="147.412109"/>
       <use xlink:href="#DejaVuSans-37" x="211.035156"/>
       <use xlink:href="#DejaVuSans-35" x="274.658203"/>
       <use xlink:href="#DejaVuSans-30" x="338.28125"/>
       <use xlink:href="#DejaVuSans-30" x="401.904297"/>
      </g>
     </g>
    </g>
    <g id="ytick_5">
     <g id="line2d_10">
      <g>
       <use xlink:href="#me168994a69" x="74.432812" y="69.464379" style="fill: #666666; fill-opacity: 0.015686; stroke: #666666; stroke-opacity: 0.015686; stroke-width: 0.8"/>
      </g>
     </g>
     <g id="text_10">
      <!-- −165000 -->
      <g style="fill: #666666" transform="translate(20.878125 73.263598)scale(0.1 -0.1)">
       <use xlink:href="#DejaVuSans-2212"/>
       <use xlink:href="#DejaVuSans-31" x="83.789062"/>
       <use xlink:href="#DejaVuSans-36" x="147.412109"/>
       <use xlink:href="#DejaVuSans-35" x="211.035156"/>
       <use xlink:href="#DejaVuSans-30" x="274.658203"/>
       <use xlink:href="#DejaVuSans-30" x="338.28125"/>
       <use xlink:href="#DejaVuSans-30" x="401.904297"/>
      </g>
     </g>
    </g>
    <g id="ytick_6">
     <g id="line2d_11">
      <g>
       <use xlink:href="#me168994a69" x="74.432812" y="46.612746" style="fill: #666666; fill-opacity: 0.015686; stroke: #666666; stroke-opacity: 0.015686; stroke-width: 0.8"/>
      </g>
     </g>
     <g id="text_11">
      <!-- −162500 -->
      <g style="fill: #666666" transform="translate(20.878125 50.411965)scale(0.1 -0.1)">
       <use xlink:href="#DejaVuSans-2212"/>
       <use xlink:href="#DejaVuSans-31" x="83.789062"/>
       <use xlink:href="#DejaVuSans-36" x="147.412109"/>
       <use xlink:href="#DejaVuSans-32" x="211.035156"/>
       <use xlink:href="#DejaVuSans-35" x="274.658203"/>
       <use xlink:href="#DejaVuSans-30" x="338.28125"/>
       <use xlink:href="#DejaVuSans-30" x="401.904297"/>
      </g>
     </g>
    </g>
    <g id="ytick_7">
     <g id="line2d_12">
      <g>
       <use xlink:href="#me168994a69" x="74.432812" y="23.761113" style="fill: #666666; fill-opacity: 0.015686; stroke: #666666; stroke-opacity: 0.015686; stroke-width: 0.8"/>
      </g>
     </g>
     <g id="text_12">
      <!-- −160000 -->
      <g style="fill: #666666" transform="translate(20.878125 27.560331)scale(0.1 -0.1)">
       <use xlink:href="#DejaVuSans-2212"/>
       <use xlink:href="#DejaVuSans-31" x="83.789062"/>
       <use xlink:href="#DejaVuSans-36" x="147.412109"/>
       <use xlink:href="#DejaVuSans-30" x="211.035156"/>
       <use xlink:href="#DejaVuSans-30" x="274.658203"/>
       <use xlink:href="#DejaVuSans-30" x="338.28125"/>
       <use xlink:href="#DejaVuSans-30" x="401.904297"/>
      </g>
     </g>
    </g>
    <g id="text_13">
     <!-- energy -->
     <g style="fill: #bdbdbd" transform="translate(14.798437 106.407113)rotate(-90)scale(0.1 -0.1)">
      <defs>
       <path id="DejaVuSans-65" d="M 3597 1894 
L 3597 1613 
L 953 1613 
Q 991 1019 1311 708 
Q 1631 397 2203 397 
Q 2534 397 2845 478 
Q 3156 559 3463 722 
L 3463 178 
Q 3153 47 2828 -22 
Q 2503 -91 2169 -91 
Q 1331 -91 842 396 
Q 353 884 353 1716 
Q 353 2575 817 3079 
Q 1281 3584 2069 3584 
Q 2775 3584 3186 3129 
Q 3597 2675 3597 1894 
z
M 3022 2063 
Q 3016 2534 2758 2815 
Q 2500 3097 2075 3097 
Q 1594 3097 1305 2825 
Q 1016 2553 972 2059 
L 3022 2063 
z
" transform="scale(0.015625)"/>
       <path id="DejaVuSans-6e" d="M 3513 2113 
L 3513 0 
L 2938 0 
L 2938 2094 
Q 2938 2591 2744 2837 
Q 2550 3084 2163 3084 
Q 1697 3084 1428 2787 
Q 1159 2491 1159 1978 
L 1159 0 
L 581 0 
L 581 3500 
L 1159 3500 
L 1159 2956 
Q 1366 3272 1645 3428 
Q 1925 3584 2291 3584 
Q 2894 3584 3203 3211 
Q 3513 2838 3513 2113 
z
" transform="scale(0.015625)"/>
       <path id="DejaVuSans-72" d="M 2631 2963 
Q 2534 3019 2420 3045 
Q 2306 3072 2169 3072 
Q 1681 3072 1420 2755 
Q 1159 2438 1159 1844 
L 1159 0 
L 581 0 
L 581 3500 
L 1159 3500 
L 1159 2956 
Q 1341 3275 1631 3429 
Q 1922 3584 2338 3584 
Q 2397 3584 2469 3576 
Q 2541 3569 2628 3553 
L 2631 2963 
z
" transform="scale(0.015625)"/>
       <path id="DejaVuSans-67" d="M 2906 1791 
Q 2906 2416 2648 2759 
Q 2391 3103 1925 3103 
Q 1463 3103 1205 2759 
Q 947 2416 947 1791 
Q 947 1169 1205 825 
Q 1463 481 1925 481 
Q 2391 481 2648 825 
Q 2906 1169 2906 1791 
z
M 3481 434 
Q 3481 -459 3084 -895 
Q 2688 -1331 1869 -1331 
Q 1566 -1331 1297 -1286 
Q 1028 -1241 775 -1147 
L 775 -588 
Q 1028 -725 1275 -790 
Q 1522 -856 1778 -856 
Q 2344 -856 2625 -561 
Q 2906 -266 2906 331 
L 2906 616 
Q 2728 306 2450 153 
Q 2172 0 1784 0 
Q 1141 0 747 490 
Q 353 981 353 1791 
Q 353 2603 747 3093 
Q 1141 3584 1784 3584 
Q 2172 3584 2450 3431 
Q 2728 3278 2906 2969 
L 2906 3500 
L 3481 3500 
L 3481 434 
z
" transform="scale(0.015625)"/>
       <path id="DejaVuSans-79" d="M 2059 -325 
Q 1816 -950 1584 -1140 
Q 1353 -1331 966 -1331 
L 506 -1331 
L 506 -850 
L 844 -850 
Q 1081 -850 1212 -737 
Q 1344 -625 1503 -206 
L 1606 56 
L 191 3500 
L 800 3500 
L 1894 763 
L 2988 3500 
L 3597 3500 
L 2059 -325 
z
" transform="scale(0.015625)"/>
      </defs>
      <use xlink:href="#DejaVuSans-65"/>
      <use xlink:href="#DejaVuSans-6e" x="61.523438"/>
      <use xlink:href="#DejaVuSans-65" x="124.902344"/>
      <use xlink:href="#DejaVuSans-72" x="186.425781"/>
      <use xlink:href="#DejaVuSans-67" x="225.789062"/>
      <use xlink:href="#DejaVuSans-79" x="289.265625"/>
     </g>
    </g>
   </g>
   <g id="line2d_13">
    <path d="M 86.540817 14.63488 
L 89.261716 35.394286 
L 91.982616 53.940854 
L 94.703516 69.218698 
L 97.424416 78.490077 
L 100.145316 89.671331 
L 102.866215 99.678439 
L 105.587115 103.140449 
L 108.308015 113.632706 
L 111.028915 116.899943 
L 113.749814 122.579387 
L 116.470714 127.975447 
L 119.191614 130.502085 
L 121.912514 128.538484 
L 124.633414 132.511105 
L 127.354313 133.313608 
L 130.075213 135.697143 
L 132.796113 139.145351 
L 135.517013 141.604346 
L 138.237913 142.840753 
L 140.958812 141.512606 
L 143.679712 143.254906 
L 146.400612 142.926898 
L 149.121512 143.432751 
L 151.842412 147.347286 
L 154.563311 149.99156 
L 157.284211 148.701272 
L 160.005111 146.817341 
L 162.726011 148.872905 
L 165.446911 148.387993 
L 168.16781 150.703727 
L 170.88871 151.166186 
L 173.60961 150.775724 
L 176.33051 151.568257 
L 179.05141 152.608532 
L 181.772309 153.526937 
L 184.493209 156.830338 
L 187.214109 157.043382 
L 189.935009 158.197662 
L 192.655908 153.918139 
L 195.376808 157.671032 
L 198.097708 156.527165 
L 200.818608 155.949197 
L 203.539508 150.410345 
L 206.260407 153.741754 
L 208.981307 155.89449 
L 211.702207 155.06075 
L 214.423107 155.418719 
L 217.144007 156.542713 
L 219.864906 154.880789 
L 222.585806 155.93346 
L 225.306706 157.932437 
L 228.027606 157.804094 
L 230.748506 153.917315 
L 233.469405 155.603833 
L 236.190305 157.488797 
L 238.911205 156.94959 
L 241.632105 158.936763 
L 244.353005 157.735903 
L 247.073904 161.160047 
L 249.794804 158.312244 
L 252.515704 159.421382 
L 255.236604 157.002848 
L 257.957503 156.321682 
L 260.678403 159.20758 
L 263.399303 156.000925 
L 266.120203 156.011956 
L 268.841103 155.229206 
L 271.562002 158.247304 
L 274.282902 158.657203 
L 277.003802 160.471609 
L 279.724702 158.693226 
L 282.445602 159.854257 
L 285.166501 161.1696 
L 287.887401 157.03867 
L 290.608301 157.787073 
L 293.329201 161.76554 
L 296.050101 162.242275 
L 298.771 161.21612 
L 301.4919 158.995884 
L 304.2128 159.783972 
L 306.9337 161.286292 
L 309.6546 160.692074 
L 312.375499 160.929683 
L 315.096399 161.495094 
L 317.817299 163.012065 
L 320.538199 163.332214 
L 323.259099 161.995586 
L 325.979998 160.471514 
L 328.700898 162.382846 
" clip-path="url(#p91db9df6e0)" style="fill: none; stroke: #440154; stroke-width: 1.5; stroke-linecap: square"/>
   </g>
   <g id="line2d_14">
    <path d="M 86.540817 14.635965 
L 89.261716 35.395457 
L 91.982616 53.942092 
L 94.703516 69.217539 
L 97.424416 78.490023 
L 100.145316 89.671612 
L 102.866215 99.679707 
L 105.587115 103.141542 
L 108.308015 113.632213 
L 111.028915 116.900767 
L 113.749814 122.578758 
L 116.470714 127.975081 
L 119.191614 130.50151 
L 121.912514 128.537915 
L 124.633414 132.509816 
L 127.354313 133.313702 
L 130.075213 135.697146 
L 132.796113 139.14486 
L 135.517013 141.604847 
L 138.237913 142.84263 
L 140.958812 141.512497 
L 143.679712 143.25467 
L 146.400612 142.926865 
L 149.121512 143.433207 
L 151.842412 147.346553 
L 154.563311 149.992386 
L 157.284211 148.700619 
L 160.005111 146.817443 
L 162.726011 148.873381 
L 165.446911 148.388031 
L 168.16781 150.703955 
L 170.88871 151.166171 
L 173.60961 150.774194 
L 176.33051 151.568142 
L 179.05141 152.608701 
L 181.772309 153.526806 
L 184.493209 156.830389 
L 187.214109 157.043625 
L 189.935009 158.197786 
L 192.655908 153.917979 
L 195.376808 157.671073 
L 198.097708 156.525664 
L 200.818608 155.95135 
L 203.539508 150.409042 
L 206.260407 153.740193 
L 208.981307 155.894644 
L 211.702207 155.059857 
L 214.423107 155.419471 
L 217.144007 156.542305 
L 219.864906 154.880686 
L 222.585806 155.933474 
L 225.306706 157.932053 
L 228.027606 157.803856 
L 230.748506 153.917103 
L 233.469405 155.603944 
L 236.190305 157.488928 
L 238.911205 156.950679 
L 241.632105 158.935061 
L 244.353005 157.73386 
L 247.073904 161.160518 
L 249.794804 158.310793 
L 252.515704 159.420277 
L 255.236604 157.002967 
L 257.957503 156.321388 
L 260.678403 159.206904 
L 263.399303 156.000103 
L 266.120203 156.011149 
L 268.841103 155.229373 
L 271.562002 158.246856 
L 274.282902 158.657234 
L 277.003802 160.470893 
L 279.724702 158.693663 
L 282.445602 159.855571 
L 285.166501 161.169983 
L 287.887401 157.038486 
L 290.608301 157.78676 
L 293.329201 161.76496 
L 296.050101 162.242423 
L 298.771 161.215875 
L 301.4919 158.995838 
L 304.2128 159.784248 
L 306.9337 161.286043 
L 309.6546 160.69263 
L 312.375499 160.929303 
L 315.096399 161.495184 
L 317.817299 163.011235 
L 320.538199 163.332472 
L 323.259099 161.996212 
L 325.979998 160.471103 
L 328.700898 162.383542 
" clip-path="url(#p91db9df6e0)" style="fill: none; stroke: #460b5e; stroke-width: 1.5; stroke-linecap: square"/>
   </g>
   <g id="line2d_15">
    <path d="M 86.540817 14.638223 
L 89.261716 35.397461 
L 91.982616 53.944047 
L 94.703516 69.216984 
L 97.424416 78.490751 
L 100.145316 89.672213 
L 102.866215 99.681535 
L 105.587115 103.142745 
L 108.308015 113.632305 
L 111.028915 116.901737 
L 113.749814 122.578214 
L 116.470714 127.974668 
L 119.191614 130.500745 
L 121.912514 128.537059 
L 124.633414 132.508537 
L 127.354313 133.313746 
L 130.075213 135.697185 
L 132.796113 139.144241 
L 135.517013 141.605123 
L 138.237913 142.84442 
L 140.958812 141.512059 
L 143.679712 143.254303 
L 146.400612 142.926839 
L 149.121512 143.433409 
L 151.842412 147.346262 
L 154.563311 149.993202 
L 157.284211 148.699856 
L 160.005111 146.817132 
L 162.726011 148.873808 
L 165.446911 148.387942 
L 168.16781 150.704123 
L 170.88871 151.166306 
L 173.60961 150.77283 
L 176.33051 151.567673 
L 179.05141 152.608753 
L 181.772309 153.526227 
L 184.493209 156.830336 
L 187.214109 157.043692 
L 189.935009 158.197945 
L 192.655908 153.917235 
L 195.376808 157.671012 
L 198.097708 156.523834 
L 200.818608 155.952836 
L 203.539508 150.407302 
L 206.260407 153.738219 
L 208.981307 155.894759 
L 211.702207 155.058729 
L 214.423107 155.420056 
L 217.144007 156.541454 
L 219.864906 154.880293 
L 222.585806 155.933173 
L 225.306706 157.931422 
L 228.027606 157.803353 
L 230.748506 153.916513 
L 233.469405 155.603563 
L 236.190305 157.488666 
L 238.911205 156.951485 
L 241.632105 158.933288 
L 244.353005 157.731876 
L 247.073904 161.160688 
L 249.794804 158.309146 
L 252.515704 159.419187 
L 255.236604 157.002622 
L 257.957503 156.320548 
L 260.678403 159.206095 
L 263.399303 155.999159 
L 266.120203 156.010128 
L 268.841103 155.229247 
L 271.562002 158.246497 
L 274.282902 158.657327 
L 277.003802 160.47015 
L 279.724702 158.693618 
L 282.445602 159.856447 
L 285.166501 161.170145 
L 287.887401 157.038116 
L 290.608301 157.785918 
L 293.329201 161.764162 
L 296.050101 162.242427 
L 298.771 161.215261 
L 301.4919 158.99534 
L 304.2128 159.784277 
L 306.9337 161.285327 
L 309.6546 160.69314 
L 312.375499 160.928812 
L 315.096399 161.494846 
L 317.817299 163.010537 
L 320.538199 163.332261 
L 323.259099 161.996506 
L 325.979998 160.470007 
L 328.700898 162.383789 
" clip-path="url(#p91db9df6e0)" style="fill: none; stroke: #481769; stroke-width: 1.5; stroke-linecap: square"/>
   </g>
   <g id="line2d_16">
    <path d="M 86.540817 14.64151 
L 89.261716 35.4002 
L 91.982616 53.94659 
L 94.703516 69.217109 
L 97.424416 78.492255 
L 100.145316 89.673143 
L 102.866215 99.683774 
L 105.587115 103.143999 
L 108.308015 113.632983 
L 111.028915 116.902806 
L 113.749814 122.577869 
L 116.470714 127.974282 
L 119.191614 130.499914 
L 121.912514 128.536054 
L 124.633414 132.507443 
L 127.354313 133.313687 
L 130.075213 135.697213 
L 132.796113 139.143498 
L 135.517013 141.605236 
L 138.237913 142.845986 
L 140.958812 141.511308 
L 143.679712 143.253833 
L 146.400612 142.926844 
L 149.121512 143.433351 
L 151.842412 147.346471 
L 154.563311 149.993913 
L 157.284211 148.69903 
L 160.005111 146.816435 
L 162.726011 148.87425 
L 165.446911 148.387777 
L 168.16781 150.704213 
L 170.88871 151.166623 
L 173.60961 150.771796 
L 176.33051 151.566914 
L 179.05141 152.608698 
L 181.772309 153.52524 
L 184.493209 156.830259 
L 187.214109 157.043612 
L 189.935009 158.197996 
L 192.655908 153.915973 
L 195.376808 157.670834 
L 198.097708 156.521848 
L 200.818608 155.953579 
L 203.539508 150.405263 
L 206.260407 153.735983 
L 208.981307 155.894787 
L 211.702207 155.057478 
L 214.423107 155.420389 
L 217.144007 156.54025 
L 219.864906 154.879669 
L 222.585806 155.932499 
L 225.306706 157.930552 
L 228.027606 157.802613 
L 230.748506 153.915688 
L 233.469405 155.602704 
L 236.190305 157.488104 
L 238.911205 156.951928 
L 241.632105 158.931576 
L 244.353005 157.730149 
L 247.073904 161.160586 
L 249.794804 158.307437 
L 252.515704 159.418191 
L 255.236604 157.001858 
L 257.957503 156.319211 
L 260.678403 159.205278 
L 263.399303 155.998214 
L 266.120203 156.008998 
L 268.841103 155.22884 
L 271.562002 158.24622 
L 274.282902 158.657507 
L 277.003802 160.469391 
L 279.724702 158.693077 
L 282.445602 159.856858 
L 285.166501 161.170116 
L 287.887401 157.037633 
L 290.608301 157.784688 
L 293.329201 161.76327 
L 296.050101 162.242351 
L 298.771 161.214334 
L 301.4919 158.994402 
L 304.2128 159.784051 
L 306.9337 161.284203 
L 309.6546 160.693605 
L 312.375499 160.928301 
L 315.096399 161.494106 
L 317.817299 163.010075 
L 320.538199 163.3316 
L 323.259099 161.996383 
L 325.979998 160.468326 
L 328.700898 162.383556 
" clip-path="url(#p91db9df6e0)" style="fill: none; stroke: #482173; stroke-width: 1.5; stroke-linecap: square"/>
   </g>
   <g id="line2d_17">
    <path d="M 86.540817 14.645634 
L 89.261716 35.403569 
L 91.982616 53.949572 
L 94.703516 69.217986 
L 97.424416 78.494451 
L 100.145316 89.674366 
L 102.866215 99.686277 
L 105.587115 103.145252 
L 108.308015 113.634222 
L 111.028915 116.903952 
L 113.749814 122.577801 
L 116.470714 127.973996 
L 119.191614 130.499155 
L 121.912514 128.535077 
L 124.633414 132.506689 
L 127.354313 133.313477 
L 130.075213 135.697203 
L 132.796113 139.142659 
L 135.517013 141.605253 
L 138.237913 142.847219 
L 140.958812 141.510301 
L 143.679712 143.253313 
L 146.400612 142.9269 
L 149.121512 143.433088 
L 151.842412 147.34717 
L 154.563311 149.994438 
L 157.284211 148.698207 
L 160.005111 146.815428 
L 162.726011 148.874743 
L 165.446911 148.387585 
L 168.16781 150.704217 
L 170.88871 151.167132 
L 173.60961 150.771193 
L 176.33051 151.565952 
L 179.05141 152.608537 
L 181.772309 153.523956 
L 184.493209 156.830232 
L 187.214109 157.043427 
L 189.935009 158.197823 
L 192.655908 153.914313 
L 195.376808 157.670533 
L 198.097708 156.519894 
L 200.818608 155.95358 
L 203.539508 150.403091 
L 206.260407 153.733675 
L 208.981307 155.894708 
L 211.702207 155.056265 
L 214.423107 155.420398 
L 217.144007 156.538836 
L 219.864906 154.878911 
L 222.585806 155.931424 
L 225.306706 157.929481 
L 228.027606 157.801686 
L 230.748506 153.914768 
L 233.469405 155.601459 
L 236.190305 157.487363 
L 238.911205 156.95195 
L 241.632105 158.930077 
L 244.353005 157.728854 
L 247.073904 161.160242 
L 249.794804 158.305815 
L 252.515704 159.417347 
L 255.236604 157.000743 
L 257.957503 156.317467 
L 260.678403 159.204569 
L 263.399303 155.997362 
L 266.120203 156.007853 
L 268.841103 155.228193 
L 271.562002 158.246035 
L 274.282902 158.657799 
L 277.003802 160.468626 
L 279.724702 158.692105 
L 282.445602 159.856815 
L 285.166501 161.169932 
L 287.887401 157.037076 
L 290.608301 157.783247 
L 293.329201 161.762411 
L 296.050101 162.242259 
L 298.771 161.213154 
L 301.4919 158.993087 
L 304.2128 159.783581 
L 306.9337 161.282757 
L 309.6546 160.694004 
L 312.375499 160.927828 
L 315.096399 161.493029 
L 317.817299 163.00992 
L 320.538199 163.330525 
L 323.259099 161.995804 
L 325.979998 160.466211 
L 328.700898 162.382847 
" clip-path="url(#p91db9df6e0)" style="fill: none; stroke: #472c7a; stroke-width: 1.5; stroke-linecap: square"/>
   </g>
   <g id="line2d_18">
    <path d="M 86.540817 14.650374 
L 89.261716 35.407453 
L 91.982616 53.952839 
L 94.703516 69.219666 
L 97.424416 78.497187 
L 100.145316 89.675805 
L 102.866215 99.688913 
L 105.587115 103.146461 
L 108.308015 113.635964 
L 111.028915 116.905162 
L 113.749814 122.578039 
L 116.470714 127.973871 
L 119.191614 130.498602 
L 121.912514 128.534312 
L 124.633414 132.506376 
L 127.354313 133.313089 
L 130.075213 135.697154 
L 132.796113 139.141769 
L 135.517013 141.605227 
L 138.237913 142.848038 
L 140.958812 141.50913 
L 143.679712 143.252819 
L 146.400612 142.927017 
L 149.121512 143.432731 
L 151.842412 147.348284 
L 154.563311 149.994728 
L 157.284211 148.697463 
L 160.005111 146.814228 
L 162.726011 148.875288 
L 165.446911 148.387404 
L 168.16781 150.704138 
L 170.88871 151.167807 
L 173.60961 150.771053 
L 176.33051 151.564884 
L 179.05141 152.608266 
L 181.772309 153.522532 
L 184.493209 156.830298 
L 187.214109 157.043182 
L 189.935009 158.197375 
L 192.655908 153.912413 
L 195.376808 157.670119 
L 198.097708 156.518153 
L 200.818608 155.952903 
L 203.539508 150.40096 
L 206.260407 153.731507 
L 208.981307 155.894522 
L 211.702207 155.055273 
L 214.423107 155.42004 
L 217.144007 156.537387 
L 219.864906 154.878133 
L 222.585806 155.929964 
L 225.306706 157.928285 
L 228.027606 157.80064 
L 230.748506 153.913854 
L 233.469405 155.599984 
L 236.190305 157.486559 
L 238.911205 156.951533 
L 241.632105 158.928939 
L 244.353005 157.728116 
L 247.073904 161.159681 
L 249.794804 158.304423 
L 252.515704 159.416694 
L 255.236604 156.999366 
L 257.957503 156.315445 
L 260.678403 159.204051 
L 263.399303 155.996659 
L 266.120203 156.006763 
L 268.841103 155.227369 
L 271.562002 158.245967 
L 274.282902 158.658218 
L 277.003802 160.467873 
L 279.724702 158.690832 
L 282.445602 159.856359 
L 285.166501 161.169627 
L 287.887401 157.036451 
L 290.608301 157.781774 
L 293.329201 161.761701 
L 296.050101 162.242198 
L 298.771 161.211788 
L 301.4919 158.991497 
L 304.2128 159.782896 
L 306.9337 161.281098 
L 309.6546 160.694299 
L 312.375499 160.927404 
L 315.096399 161.491729 
L 317.817299 163.010089 
L 320.538199 163.329083 
L 323.259099 161.994793 
L 325.979998 160.463848 
L 328.700898 162.381716 
" clip-path="url(#p91db9df6e0)" style="fill: none; stroke: #463480; stroke-width: 1.5; stroke-linecap: square"/>
   </g>
   <g id="line2d_19">
    <path d="M 86.540817 14.655502 
L 89.261716 35.411717 
L 91.982616 53.956242 
L 94.703516 69.222167 
L 97.424416 78.500259 
L 100.145316 89.677357 
L 102.866215 99.691573 
L 105.587115 103.147583 
L 108.308015 113.638114 
L 111.028915 116.906409 
L 113.749814 122.578561 
L 116.470714 127.973951 
L 119.191614 130.498375 
L 121.912514 128.533912 
L 124.633414 132.506535 
L 127.354313 133.312539 
L 130.075213 135.697095 
L 132.796113 139.140884 
L 135.517013 141.605179 
L 138.237913 142.848397 
L 140.958812 141.507909 
L 143.679712 143.252438 
L 146.400612 142.927186 
L 149.121512 143.432409 
L 151.842412 147.349682 
L 154.563311 149.994776 
L 157.284211 148.696878 
L 160.005111 146.812974 
L 162.726011 148.875859 
L 165.446911 148.387253 
L 168.16781 150.703996 
L 170.88871 151.168578 
L 173.60961 150.771342 
L 176.33051 151.563803 
L 179.05141 152.60788 
L 181.772309 153.521151 
L 184.493209 156.830471 
L 187.214109 157.042911 
L 189.935009 158.19668 
L 192.655908 153.910455 
L 195.376808 157.669627 
L 198.097708 156.516784 
L 200.818608 155.951669 
L 203.539508 150.399038 
L 206.260407 153.729684 
L 208.981307 155.894257 
L 211.702207 155.054663 
L 214.423107 155.419322 
L 217.144007 156.536085 
L 219.864906 154.877438 
L 222.585806 155.928195 
L 225.306706 157.927079 
L 228.027606 157.799559 
L 230.748506 153.912987 
L 233.469405 155.598475 
L 236.190305 157.485786 
L 238.911205 156.95071 
L 241.632105 158.928272 
L 244.353005 157.727988 
L 247.073904 161.158914 
L 249.794804 158.303378 
L 252.515704 159.416251 
L 255.236604 156.997841 
L 257.957503 156.313303 
L 260.678403 159.203765 
L 263.399303 155.996115 
L 266.120203 156.005775 
L 268.841103 155.226457 
L 271.562002 158.246056 
L 274.282902 158.658756 
L 277.003802 160.467171 
L 279.724702 158.689426 
L 282.445602 159.855553 
L 285.166501 161.169223 
L 287.887401 157.03574 
L 290.608301 157.780424 
L 293.329201 161.761233 
L 296.050101 162.242188 
L 298.771 161.210317 
L 301.4919 158.989761 
L 304.2128 159.78204 
L 306.9337 161.279361 
L 309.6546 160.694448 
L 312.375499 160.927004 
L 315.096399 161.490356 
L 317.817299 163.010553 
L 320.538199 163.327327 
L 323.259099 161.993425 
L 325.979998 160.461433 
L 328.700898 162.380258 
" clip-path="url(#p91db9df6e0)" style="fill: none; stroke: #433e85; stroke-width: 1.5; stroke-linecap: square"/>
   </g>
   <g id="line2d_20">
    <path d="M 86.540817 14.660782 
L 89.261716 35.416197 
L 91.982616 53.959647 
L 94.703516 69.225448 
L 97.424416 78.503443 
L 100.145316 89.678914 
L 102.866215 99.694166 
L 105.587115 103.148584 
L 108.308015 113.640539 
L 111.028915 116.907643 
L 113.749814 122.579304 
L 116.470714 127.974252 
L 119.191614 130.498558 
L 121.912514 128.533972 
L 124.633414 132.507122 
L 127.354313 133.311895 
L 130.075213 135.697077 
L 132.796113 139.140055 
L 135.517013 141.605093 
L 138.237913 142.848288 
L 140.958812 141.506767 
L 143.679712 143.252247 
L 146.400612 142.927388 
L 149.121512 143.432245 
L 151.842412 147.351199 
L 154.563311 149.99461 
L 157.284211 148.696525 
L 160.005111 146.811809 
L 162.726011 148.8764 
L 165.446911 148.387134 
L 168.16781 150.703822 
L 170.88871 151.169334 
L 173.60961 150.771979 
L 176.33051 151.562796 
L 179.05141 152.607388 
L 181.772309 153.519989 
L 184.493209 156.830735 
L 187.214109 157.042636 
L 189.935009 158.19584 
L 192.655908 153.90862 
L 195.376808 157.669107 
L 198.097708 156.51591 
L 200.818608 155.950029 
L 203.539508 150.397465 
L 206.260407 153.728388 
L 208.981307 155.893957 
L 211.702207 155.054542 
L 214.423107 155.41831 
L 217.144007 156.535097 
L 219.864906 154.876902 
L 222.585806 155.926252 
L 225.306706 157.926001 
L 228.027606 157.798537 
L 230.748506 153.912155 
L 233.469405 155.597127 
L 236.190305 157.485094 
L 238.911205 156.949569 
L 241.632105 158.928118 
L 244.353005 157.728438 
L 247.073904 161.15795 
L 249.794804 158.302751 
L 252.515704 159.416021 
L 255.236604 156.996305 
L 257.957503 156.31122 
L 260.678403 159.203709 
L 263.399303 155.995699 
L 266.120203 156.004914 
L 268.841103 155.225556 
L 271.562002 158.246343 
L 274.282902 158.65938 
L 277.003802 160.466573 
L 279.724702 158.688053 
L 282.445602 159.854474 
L 285.166501 161.168737 
L 287.887401 157.034928 
L 290.608301 157.779299 
L 293.329201 161.761066 
L 296.050101 162.242214 
L 298.771 161.208838 
L 301.4919 158.988021 
L 304.2128 159.781066 
L 306.9337 161.277695 
L 309.6546 160.694413 
L 312.375499 160.926584 
L 315.096399 161.489074 
L 317.817299 163.01124 
L 320.538199 163.325323 
L 323.259099 161.991811 
L 325.979998 160.459156 
L 328.700898 162.378608 
" clip-path="url(#p91db9df6e0)" style="fill: none; stroke: #3f4788; stroke-width: 1.5; stroke-linecap: square"/>
   </g>
   <g id="line2d_21">
    <path d="M 86.540817 14.66598 
L 89.261716 35.420695 
L 91.982616 53.96294 
L 94.703516 69.229387 
L 97.424416 78.506523 
L 100.145316 89.680392 
L 102.866215 99.696607 
L 105.587115 103.149438 
L 108.308015 113.643072 
L 111.028915 116.908797 
L 113.749814 122.580173 
L 116.470714 127.974778 
L 119.191614 130.499187 
L 121.912514 128.534511 
L 124.633414 132.50802 
L 127.354313 133.311271 
L 130.075213 135.697156 
L 132.796113 139.139329 
L 135.517013 141.60493 
L 138.237913 142.847738 
L 140.958812 141.505825 
L 143.679712 143.2523 
L 146.400612 142.927595 
L 149.121512 143.432326 
L 151.842412 147.352664 
L 154.563311 149.99429 
L 157.284211 148.696458 
L 160.005111 146.810862 
L 162.726011 148.876843 
L 165.446911 148.387042 
L 168.16781 150.703663 
L 170.88871 151.169951 
L 173.60961 150.772862 
L 176.33051 151.561937 
L 179.05141 152.606818 
L 181.772309 153.519183 
L 184.493209 156.831058 
L 187.214109 157.042361 
L 189.935009 158.195001 
L 192.655908 153.907069 
L 195.376808 157.668619 
L 198.097708 156.515612 
L 200.818608 155.948155 
L 203.539508 150.396333 
L 206.260407 153.727753 
L 208.981307 155.893676 
L 211.702207 155.054945 
L 214.423107 155.417127 
L 217.144007 156.534545 
L 219.864906 154.876551 
L 222.585806 155.924316 
L 225.306706 157.92519 
L 228.027606 157.797671 
L 230.748506 153.91131 
L 233.469405 155.59611 
L 236.190305 157.484491 
L 238.911205 156.948238 
L 241.632105 158.928446 
L 244.353005 157.729352 
L 247.073904 161.15681 
L 249.794804 158.302551 
L 252.515704 159.415995 
L 255.236604 156.9949 
L 257.957503 156.309372 
L 260.678403 159.203853 
L 263.399303 155.99535 
L 266.120203 156.004187 
L 268.841103 155.224761 
L 271.562002 158.24685 
L 274.282902 158.660029 
L 277.003802 160.466144 
L 279.724702 158.686862 
L 282.445602 159.853204 
L 285.166501 161.168189 
L 287.887401 157.034011 
L 290.608301 157.778439 
L 293.329201 161.761213 
L 296.050101 162.242233 
L 298.771 161.207464 
L 301.4919 158.986414 
L 304.2128 159.780043 
L 306.9337 161.276255 
L 309.6546 160.694175 
L 312.375499 160.926098 
L 315.096399 161.488035 
L 317.817299 163.01205 
L 320.538199 163.323157 
L 323.259099 161.990077 
L 325.979998 160.457178 
L 328.700898 162.37691 
" clip-path="url(#p91db9df6e0)" style="fill: none; stroke: #3c508b; stroke-width: 1.5; stroke-linecap: square"/>
   </g>
   <g id="line2d_22">
    <path d="M 86.540817 14.670866 
L 89.261716 35.424987 
L 91.982616 53.966031 
L 94.703516 69.233774 
L 97.424416 78.509308 
L 100.145316 89.681739 
L 102.866215 99.698808 
L 105.587115 103.150135 
L 108.308015 113.645532 
L 111.028915 116.909803 
L 113.749814 122.581059 
L 116.470714 127.975519 
L 119.191614 130.500239 
L 121.912514 128.535474 
L 124.633414 132.509062 
L 127.354313 133.310804 
L 130.075213 135.697373 
L 132.796113 139.138751 
L 135.517013 141.604638 
L 138.237913 142.846818 
L 140.958812 141.505192 
L 143.679712 143.252618 
L 146.400612 142.927793 
L 149.121512 143.432686 
L 151.842412 147.353923 
L 154.563311 149.993891 
L 157.284211 148.696703 
L 160.005111 146.810225 
L 162.726011 148.877108 
L 165.446911 148.386976 
L 168.16781 150.703565 
L 170.88871 151.170312 
L 173.60961 150.773879 
L 176.33051 151.561283 
L 179.05141 152.606217 
L 181.772309 153.518811 
L 184.493209 156.831399 
L 187.214109 157.042082 
L 189.935009 158.194319 
L 192.655908 153.905925 
L 195.376808 157.668208 
L 198.097708 156.515917 
L 200.818608 155.946215 
L 203.539508 150.395676 
L 206.260407 153.727845 
L 208.981307 155.893469 
L 211.702207 155.055835 
L 214.423107 155.415926 
L 217.144007 156.534493 
L 219.864906 154.876364 
L 222.585806 155.922586 
L 225.306706 157.924751 
L 228.027606 157.797047 
L 230.748506 153.910403 
L 233.469405 155.595532 
L 236.190305 157.483951 
L 238.911205 156.946862 
L 241.632105 158.929159 
L 244.353005 157.730557 
L 247.073904 161.155535 
L 249.794804 158.302722 
L 252.515704 159.416157 
L 255.236604 156.993752 
L 257.957503 156.307917 
L 260.678403 159.20416 
L 263.399303 155.994993 
L 266.120203 156.003592 
L 268.841103 155.224158 
L 271.562002 158.247568 
L 274.282902 158.660623 
L 277.003802 160.465942 
L 279.724702 158.685956 
L 282.445602 159.851827 
L 285.166501 161.167612 
L 287.887401 157.033017 
L 290.608301 157.777824 
L 293.329201 161.761645 
L 296.050101 162.242183 
L 298.771 161.206309 
L 301.4919 158.985064 
L 304.2128 159.779045 
L 306.9337 161.27518 
L 309.6546 160.693735 
L 312.375499 160.925513 
L 315.096399 161.487349 
L 317.817299 163.012867 
L 320.538199 163.320949 
L 323.259099 161.988349 
L 325.979998 160.455625 
L 328.700898 162.375302 
" clip-path="url(#p91db9df6e0)" style="fill: none; stroke: #38588c; stroke-width: 1.5; stroke-linecap: square"/>
   </g>
   <g id="line2d_23">
    <path d="M 86.540817 14.675212 
L 89.261716 35.428846 
L 91.982616 53.968854 
L 94.703516 69.238322 
L 97.424416 78.511654 
L 100.145316 89.682943 
L 102.866215 99.700677 
L 105.587115 103.150684 
L 108.308015 113.647751 
L 111.028915 116.910611 
L 113.749814 122.581862 
L 116.470714 127.976461 
L 119.191614 130.50163 
L 121.912514 128.536738 
L 124.633414 132.510064 
L 127.354313 133.310628 
L 130.075213 135.697739 
L 132.796113 139.138366 
L 135.517013 141.604176 
L 138.237913 142.84564 
L 140.958812 141.504941 
L 143.679712 143.25319 
L 146.400612 142.927978 
L 149.121512 143.433303 
L 151.842412 147.354872 
L 154.563311 149.993496 
L 157.284211 148.697253 
L 160.005111 146.80994 
L 162.726011 148.877124 
L 165.446911 148.386944 
L 168.16781 150.703573 
L 170.88871 151.170347 
L 173.60961 150.774922 
L 176.33051 151.560876 
L 179.05141 152.605647 
L 181.772309 153.518887 
L 184.493209 156.831718 
L 187.214109 157.041791 
L 189.935009 158.193914 
L 192.655908 153.905255 
L 195.376808 157.667898 
L 198.097708 156.516781 
L 200.818608 155.944368 
L 203.539508 150.395462 
L 206.260407 153.728659 
L 208.981307 155.893379 
L 211.702207 155.057112 
L 214.423107 155.414861 
L 217.144007 156.534944 
L 219.864906 154.876282 
L 222.585806 155.921252 
L 225.306706 157.924731 
L 228.027606 157.796727 
L 230.748506 153.909412 
L 233.469405 155.595436 
L 236.190305 157.483435 
L 238.911205 156.945574 
L 241.632105 158.930136 
L 244.353005 157.731851 
L 247.073904 161.154206 
L 249.794804 158.303153 
L 252.515704 159.416488 
L 255.236604 156.992949 
L 257.957503 156.306976 
L 260.678403 159.2046 
L 263.399303 155.994551 
L 266.120203 156.003122 
L 268.841103 155.223799 
L 271.562002 158.248442 
L 274.282902 158.661078 
L 277.003802 160.466009 
L 279.724702 158.685401 
L 282.445602 159.850429 
L 285.166501 161.167054 
L 287.887401 157.031998 
L 290.608301 157.777387 
L 293.329201 161.762292 
L 296.050101 162.241997 
L 298.771 161.205469 
L 301.4919 158.984063 
L 304.2128 159.778145 
L 306.9337 161.274571 
L 309.6546 160.693119 
L 312.375499 160.924822 
L 315.096399 161.487062 
L 317.817299 163.013578 
L 320.538199 163.318842 
L 323.259099 161.98674 
L 325.979998 160.454577 
L 328.700898 162.373896 
" clip-path="url(#p91db9df6e0)" style="fill: none; stroke: #34608d; stroke-width: 1.5; stroke-linecap: square"/>
   </g>
   <g id="line2d_24">
    <path d="M 86.540817 14.678809 
L 89.261716 35.432075 
L 91.982616 53.971367 
L 94.703516 69.242702 
L 97.424416 78.513468 
L 100.145316 89.684028 
L 102.866215 99.702128 
L 105.587115 103.151107 
L 108.308015 113.649599 
L 111.028915 116.911201 
L 113.749814 122.582502 
L 116.470714 127.977586 
L 119.191614 130.503224 
L 121.912514 128.538136 
L 124.633414 132.510856 
L 127.354313 133.310837 
L 130.075213 135.698216 
L 132.796113 139.138225 
L 135.517013 141.603529 
L 138.237913 142.84434 
L 140.958812 141.505104 
L 143.679712 143.253971 
L 146.400612 142.92816 
L 149.121512 143.434112 
L 151.842412 147.355465 
L 154.563311 149.99319 
L 157.284211 148.698066 
L 160.005111 146.809995 
L 162.726011 148.876838 
L 165.446911 148.386969 
L 168.16781 150.703715 
L 170.88871 151.170053 
L 173.60961 150.775891 
L 176.33051 151.560745 
L 179.05141 152.605176 
L 181.772309 153.519368 
L 184.493209 156.831975 
L 187.214109 157.041481 
L 189.935009 158.193851 
L 192.655908 153.905064 
L 195.376808 157.667685 
L 198.097708 156.518091 
L 200.818608 155.942748 
L 203.539508 150.395602 
L 206.260407 153.730117 
L 208.981307 155.893433 
L 211.702207 155.058633 
L 214.423107 155.414046 
L 217.144007 156.535838 
L 219.864906 154.876218 
L 222.585806 155.920463 
L 225.306706 157.925108 
L 228.027606 157.79673 
L 230.748506 153.90836 
L 233.469405 155.595794 
L 236.190305 157.482912 
L 238.911205 156.944464 
L 241.632105 158.931262 
L 244.353005 157.733043 
L 247.073904 161.152935 
L 249.794804 158.303701 
L 252.515704 159.416961 
L 255.236604 156.992518 
L 257.957503 156.306618 
L 260.678403 159.205158 
L 263.399303 155.993965 
L 266.120203 156.002769 
L 268.841103 155.2237 
L 271.562002 158.249378 
L 274.282902 158.661327 
L 277.003802 160.466349 
L 279.724702 158.685225 
L 282.445602 159.849098 
L 285.166501 161.166577 
L 287.887401 157.031021 
L 290.608301 157.777047 
L 293.329201 161.763055 
L 296.050101 162.241618 
L 298.771 161.205 
L 301.4919 158.983466 
L 304.2128 159.77741 
L 306.9337 161.274475 
L 309.6546 160.692366 
L 312.375499 160.924045 
L 315.096399 161.487151 
L 317.817299 163.014094 
L 320.538199 163.316994 
L 323.259099 161.985347 
L 325.979998 160.454064 
L 328.700898 162.372769 
" clip-path="url(#p91db9df6e0)" style="fill: none; stroke: #31688e; stroke-width: 1.5; stroke-linecap: square"/>
   </g>
   <g id="line2d_25">
    <path d="M 86.540817 14.681487 
L 89.261716 35.434531 
L 91.982616 53.973556 
L 94.703516 69.246588 
L 97.424416 78.514706 
L 100.145316 89.68504 
L 102.866215 99.703087 
L 105.587115 103.151436 
L 108.308015 113.651006 
L 111.028915 116.911591 
L 113.749814 122.582938 
L 116.470714 127.978862 
L 119.191614 130.504857 
L 121.912514 128.539485 
L 124.633414 132.511319 
L 127.354313 133.311459 
L 130.075213 135.698723 
L 132.796113 139.13838 
L 135.517013 141.60272 
L 138.237913 142.843064 
L 140.958812 141.505666 
L 143.679712 143.254894 
L 146.400612 142.928351 
L 149.121512 143.435022 
L 151.842412 147.35572 
L 154.563311 149.993056 
L 157.284211 148.699067 
L 160.005111 146.810334 
L 162.726011 148.876232 
L 165.446911 148.387082 
L 168.16781 150.704002 
L 170.88871 151.169499 
L 173.60961 150.776705 
L 176.33051 151.560902 
L 179.05141 152.604863 
L 181.772309 153.520173 
L 184.493209 156.832139 
L 187.214109 157.041166 
L 189.935009 158.194123 
L 192.655908 153.905294 
L 195.376808 157.667538 
L 198.097708 156.519669 
L 200.818608 155.941459 
L 203.539508 150.395963 
L 206.260407 153.732072 
L 208.981307 155.893632 
L 211.702207 155.060238 
L 214.423107 155.413531 
L 217.144007 156.537069 
L 219.864906 154.876087 
L 222.585806 155.920309 
L 225.306706 157.925795 
L 228.027606 157.797028 
L 230.748506 153.907309 
L 233.469405 155.596523 
L 236.190305 157.482379 
L 238.911205 156.943575 
L 241.632105 158.932453 
L 244.353005 157.733983 
L 247.073904 161.151863 
L 249.794804 158.30422 
L 252.515704 159.41755 
L 255.236604 156.992425 
L 257.957503 156.306849 
L 260.678403 159.205826 
L 263.399303 155.993201 
L 266.120203 156.002525 
L 268.841103 155.223834 
L 271.562002 158.250258 
L 274.282902 158.661325 
L 277.003802 160.466929 
L 279.724702 158.685423 
L 282.445602 159.847922 
L 285.166501 161.166245 
L 287.887401 157.030158 
L 290.608301 157.776732 
L 293.329201 161.763824 
L 296.050101 162.241 
L 298.771 161.204906 
L 301.4919 158.983291 
L 304.2128 159.77689 
L 306.9337 161.274873 
L 309.6546 160.691522 
L 312.375499 160.923228 
L 315.096399 161.487537 
L 317.817299 163.014366 
L 320.538199 163.315553 
L 323.259099 161.984247 
L 325.979998 160.454069 
L 328.700898 162.371962 
" clip-path="url(#p91db9df6e0)" style="fill: none; stroke: #2d708e; stroke-width: 1.5; stroke-linecap: square"/>
   </g>
   <g id="line2d_26">
    <path d="M 86.540817 14.68314 
L 89.261716 35.43614 
L 91.982616 53.975423 
L 94.703516 69.249708 
L 97.424416 78.515378 
L 100.145316 89.686032 
L 102.866215 99.703508 
L 105.587115 103.151696 
L 108.308015 113.651962 
L 111.028915 116.911819 
L 113.749814 122.583174 
L 116.470714 127.980235 
L 119.191614 130.506363 
L 121.912514 128.540618 
L 124.633414 132.511399 
L 127.354313 133.312447 
L 130.075213 135.69914 
L 132.796113 139.138878 
L 135.517013 141.60182 
L 138.237913 142.841943 
L 140.958812 141.506567 
L 143.679712 143.255874 
L 146.400612 142.928552 
L 149.121512 143.43594 
L 151.842412 147.355701 
L 154.563311 149.993166 
L 157.284211 148.700162 
L 160.005111 146.810876 
L 162.726011 148.875338 
L 165.446911 148.387315 
L 168.16781 150.704427 
L 170.88871 151.168815 
L 173.60961 150.777305 
L 176.33051 151.56135 
L 179.05141 152.604747 
L 181.772309 153.521209 
L 184.493209 156.832184 
L 187.214109 157.040881 
L 189.935009 158.194667 
L 192.655908 153.905834 
L 195.376808 157.667405 
L 198.097708 156.521306 
L 200.818608 155.94057 
L 203.539508 150.396395 
L 206.260407 153.73432 
L 208.981307 155.893946 
L 211.702207 155.061764 
L 214.423107 155.413301 
L 217.144007 156.538493 
L 219.864906 154.875822 
L 222.585806 155.920813 
L 225.306706 157.926658 
L 228.027606 157.797547 
L 230.748506 153.906345 
L 233.469405 155.597508 
L 236.190305 157.481861 
L 238.911205 156.942901 
L 241.632105 158.933665 
L 244.353005 157.734584 
L 247.073904 161.151134 
L 249.794804 158.30459 
L 252.515704 159.418215 
L 255.236604 156.992579 
L 257.957503 156.307615 
L 260.678403 159.206601 
L 263.399303 155.992256 
L 266.120203 156.002384 
L 268.841103 155.224131 
L 271.562002 158.250961 
L 274.282902 158.661063 
L 277.003802 160.467678 
L 279.724702 158.685965 
L 282.445602 159.846979 
L 285.166501 161.166105 
L 287.887401 157.02947 
L 290.608301 157.776412 
L 293.329201 161.764488 
L 296.050101 162.24013 
L 298.771 161.205133 
L 301.4919 158.983515 
L 304.2128 159.776617 
L 306.9337 161.27569 
L 309.6546 160.690626 
L 312.375499 160.922435 
L 315.096399 161.488106 
L 317.817299 163.014394 
L 320.538199 163.314629 
L 323.259099 161.983495 
L 325.979998 160.454527 
L 328.700898 162.371485 
" clip-path="url(#p91db9df6e0)" style="fill: none; stroke: #2a768e; stroke-width: 1.5; stroke-linecap: square"/>
   </g>
   <g id="line2d_27">
    <path d="M 86.540817 14.683749 
L 89.261716 35.436899 
L 91.982616 53.976979 
L 94.703516 69.251882 
L 97.424416 78.515532 
L 100.145316 89.68704 
L 102.866215 99.703378 
L 105.587115 103.151902 
L 108.308015 113.65251 
L 111.028915 116.911928 
L 113.749814 122.583255 
L 116.470714 127.981627 
L 119.191614 130.507599 
L 121.912514 128.541399 
L 124.633414 132.511108 
L 127.354313 133.313688 
L 130.075213 135.699332 
L 132.796113 139.139747 
L 135.517013 141.600934 
L 138.237913 142.84107 
L 140.958812 141.507714 
L 143.679712 143.256818 
L 146.400612 142.928745 
L 149.121512 143.436781 
L 151.842412 147.355491 
L 154.563311 149.993567 
L 157.284211 148.70125 
L 160.005111 146.811534 
L 162.726011 148.874237 
L 165.446911 148.387689 
L 168.16781 150.704972 
L 170.88871 151.168163 
L 173.60961 150.777661 
L 176.33051 151.562081 
L 179.05141 152.604833 
L 181.772309 153.522381 
L 184.493209 156.832098 
L 187.214109 157.040683 
L 189.935009 158.195383 
L 192.655908 153.906532 
L 195.376808 157.667222 
L 198.097708 156.522804 
L 200.818608 155.940107 
L 203.539508 150.396765 
L 206.260407 153.736621 
L 208.981307 155.89432 
L 211.702207 155.063068 
L 214.423107 155.413287 
L 217.144007 156.539948 
L 219.864906 154.875401 
L 222.585806 155.921932 
L 225.306706 157.927545 
L 228.027606 157.798181 
L 230.748506 153.905548 
L 233.469405 155.598622 
L 236.190305 157.481407 
L 238.911205 156.942409 
L 241.632105 158.934873 
L 244.353005 157.734832 
L 247.073904 161.150871 
L 249.794804 158.304739 
L 252.515704 159.418905 
L 255.236604 156.992859 
L 257.957503 156.308816 
L 260.678403 159.207463 
L 263.399303 155.991156 
L 266.120203 156.002333 
L 268.841103 155.224494 
L 271.562002 158.251385 
L 274.282902 158.660554 
L 277.003802 160.468499 
L 279.724702 158.686798 
L 282.445602 159.846326 
L 285.166501 161.166173 
L 287.887401 157.029001 
L 290.608301 157.776103 
L 293.329201 161.764953 
L 296.050101 162.239026 
L 298.771 161.205587 
L 301.4919 158.984091 
L 304.2128 159.776593 
L 306.9337 161.276804 
L 309.6546 160.689711 
L 312.375499 160.921738 
L 315.096399 161.488736 
L 317.817299 163.01423 
L 320.538199 163.314287 
L 323.259099 161.983119 
L 325.979998 160.45534 
L 328.700898 162.371318 
" clip-path="url(#p91db9df6e0)" style="fill: none; stroke: #277e8e; stroke-width: 1.5; stroke-linecap: square"/>
   </g>
   <g id="line2d_28">
    <path d="M 86.540817 14.683395 
L 89.261716 35.436857 
L 91.982616 53.978225 
L 94.703516 69.253038 
L 97.424416 78.515257 
L 100.145316 89.68807 
L 102.866215 99.702725 
L 105.587115 103.152052 
L 108.308015 113.652731 
L 111.028915 116.911943 
L 113.749814 122.583255 
L 116.470714 127.982929 
L 119.191614 130.508466 
L 121.912514 128.541744 
L 124.633414 132.510508 
L 127.354313 133.31503 
L 130.075213 135.699183 
L 132.796113 139.140985 
L 135.517013 141.600189 
L 138.237913 142.840485 
L 140.958812 141.508995 
L 143.679712 143.257625 
L 146.400612 142.928891 
L 149.121512 143.437481 
L 151.842412 147.355172 
L 154.563311 149.994266 
L 157.284211 148.702246 
L 160.005111 146.812229 
L 162.726011 148.873054 
L 165.446911 148.388201 
L 168.16781 150.705608 
L 170.88871 151.167689 
L 173.60961 150.777771 
L 176.33051 151.563074 
L 179.05141 152.605088 
L 181.772309 153.523602 
L 184.493209 156.831886 
L 187.214109 157.040645 
L 189.935009 158.196163 
L 192.655908 153.907222 
L 195.376808 157.666925 
L 198.097708 156.524023 
L 200.818608 155.94005 
L 203.539508 150.396983 
L 206.260407 153.738726 
L 208.981307 155.894684 
L 211.702207 155.064028 
L 214.423107 155.413402 
L 217.144007 156.541277 
L 219.864906 154.87485 
L 222.585806 155.923567 
L 225.306706 157.92832 
L 228.027606 157.798816 
L 230.748506 153.904977 
L 233.469405 155.599751 
L 236.190305 157.481076 
L 238.911205 156.942058 
L 241.632105 158.936055 
L 244.353005 157.734774 
L 247.073904 161.151148 
L 249.794804 158.304656 
L 252.515704 159.41955 
L 255.236604 156.99314 
L 257.957503 156.310326 
L 260.678403 159.208382 
L 263.399303 155.989961 
L 266.120203 156.002352 
L 268.841103 155.224813 
L 271.562002 158.251467 
L 274.282902 158.659835 
L 277.003802 160.469286 
L 279.724702 158.687842 
L 282.445602 159.845987 
L 285.166501 161.166425 
L 287.887401 157.028773 
L 290.608301 157.775864 
L 293.329201 161.765156 
L 296.050101 162.237744 
L 298.771 161.206152 
L 301.4919 158.984949 
L 304.2128 159.776797 
L 306.9337 161.278072 
L 309.6546 160.688801 
L 312.375499 160.92121 
L 315.096399 161.489326 
L 317.817299 163.013954 
L 320.538199 163.314541 
L 323.259099 161.98312 
L 325.979998 160.456377 
L 328.700898 162.371413 
" clip-path="url(#p91db9df6e0)" style="fill: none; stroke: #25858e; stroke-width: 1.5; stroke-linecap: square"/>
   </g>
   <g id="line2d_29">
    <path d="M 86.540817 14.682253 
L 89.261716 35.436104 
L 91.982616 53.979144 
L 94.703516 69.253213 
L 97.424416 78.514664 
L 100.145316 89.689084 
L 102.866215 99.70161 
L 105.587115 103.152132 
L 108.308015 113.652717 
L 111.028915 116.911868 
L 113.749814 122.583254 
L 116.470714 127.984023 
L 119.191614 130.508916 
L 121.912514 128.541626 
L 124.633414 132.509694 
L 127.354313 133.316318 
L 130.075213 135.698628 
L 132.796113 139.142544 
L 135.517013 141.599707 
L 138.237913 142.840183 
L 140.958812 141.51029 
L 143.679712 143.258206 
L 146.400612 142.92894 
L 149.121512 143.438005 
L 151.842412 147.354804 
L 154.563311 149.995211 
L 157.284211 148.703092 
L 160.005111 146.8129 
L 162.726011 148.871932 
L 165.446911 148.388818 
L 168.16781 150.706302 
L 170.88871 151.167491 
L 173.60961 150.777659 
L 176.33051 151.564295 
L 179.05141 152.605441 
L 181.772309 153.524793 
L 184.493209 156.831574 
L 187.214109 157.040831 
L 189.935009 158.196914 
L 192.655908 153.907748 
L 195.376808 157.666459 
L 198.097708 156.524908 
L 200.818608 155.94034 
L 203.539508 150.397025 
L 206.260407 153.740413 
L 208.981307 155.894971 
L 211.702207 155.064557 
L 214.423107 155.413562 
L 217.144007 156.542342 
L 219.864906 154.874243 
L 222.585806 155.925571 
L 225.306706 157.928887 
L 228.027606 157.799357 
L 230.748506 153.904655 
L 233.469405 155.600801 
L 236.190305 157.480915 
L 238.911205 156.941823 
L 241.632105 158.937169 
L 244.353005 157.734509 
L 247.073904 161.151971 
L 249.794804 158.30438 
L 252.515704 159.420066 
L 255.236604 156.993327 
L 257.957503 156.312017 
L 260.678403 159.209316 
L 263.399303 155.988748 
L 266.120203 156.002409 
L 268.841103 155.224988 
L 271.562002 158.251189 
L 274.282902 158.65896 
L 277.003802 160.469945 
L 279.724702 158.688996 
L 282.445602 159.845945 
L 285.166501 161.166798 
L 287.887401 157.028784 
L 290.608301 157.77578 
L 293.329201 161.76507 
L 296.050101 162.236381 
L 298.771 161.206718 
L 301.4919 158.98601 
L 304.2128 159.777178 
L 306.9337 161.279347 
L 309.6546 160.687919 
L 312.375499 160.920915 
L 315.096399 161.489807 
L 317.817299 163.013663 
L 320.538199 163.315355 
L 323.259099 161.983473 
L 325.979998 160.457491 
L 328.700898 162.371697 
" clip-path="url(#p91db9df6e0)" style="fill: none; stroke: #228d8d; stroke-width: 1.5; stroke-linecap: square"/>
   </g>
   <g id="line2d_30">
    <path d="M 86.540817 14.680565 
L 89.261716 35.434756 
L 91.982616 53.979695 
L 94.703516 69.252527 
L 97.424416 78.513877 
L 100.145316 89.69001 
L 102.866215 99.700125 
L 105.587115 103.152122 
L 108.308015 113.652558 
L 111.028915 116.911679 
L 113.749814 122.583323 
L 116.470714 127.984796 
L 119.191614 130.508951 
L 121.912514 128.541072 
L 124.633414 132.508766 
L 127.354313 133.317418 
L 130.075213 135.697674 
L 132.796113 139.144336 
L 135.517013 141.599577 
L 138.237913 142.840114 
L 140.958812 141.51149 
L 143.679712 143.258482 
L 146.400612 142.928838 
L 149.121512 143.438349 
L 151.842412 147.354422 
L 154.563311 149.996286 
L 157.284211 148.703762 
L 160.005111 146.813498 
L 162.726011 148.871008 
L 165.446911 148.389476 
L 168.16781 150.707008 
L 170.88871 151.167594 
L 173.60961 150.777364 
L 176.33051 151.565689 
L 179.05141 152.605798 
L 181.772309 153.525878 
L 184.493209 156.831202 
L 187.214109 157.041277 
L 189.935009 158.197578 
L 192.655908 153.907987 
L 195.376808 157.665792 
L 198.097708 156.525495 
L 200.818608 155.940883 
L 203.539508 150.396937 
L 206.260407 153.741513 
L 208.981307 155.89513 
L 211.702207 155.064606 
L 214.423107 155.413721 
L 217.144007 156.543048 
L 219.864906 154.873678 
L 222.585806 155.927753 
L 225.306706 157.929202 
L 228.027606 157.799749 
L 230.748506 153.904577 
L 233.469405 155.601712 
L 236.190305 157.480954 
L 238.911205 156.941699 
L 241.632105 158.938149 
L 244.353005 157.734159 
L 247.073904 161.153265 
L 249.794804 158.303988 
L 252.515704 159.420367 
L 255.236604 156.993373 
L 257.957503 156.313771 
L 260.678403 159.210218 
L 263.399303 155.987611 
L 266.120203 156.002466 
L 268.841103 155.224943 
L 271.562002 158.250586 
L 274.282902 158.657987 
L 277.003802 160.470407 
L 279.724702 158.690147 
L 282.445602 159.846147 
L 285.166501 161.167201 
L 287.887401 157.029011 
L 290.608301 157.775925 
L 293.329201 161.764708 
L 296.050101 162.235058 
L 298.771 161.207196 
L 301.4919 158.987183 
L 304.2128 159.77766 
L 306.9337 161.280494 
L 309.6546 160.687096 
L 312.375499 160.920902 
L 315.096399 161.490156 
L 317.817299 163.013445 
L 320.538199 163.316664 
L 323.259099 161.98413 
L 325.979998 160.458532 
L 328.700898 162.372077 
" clip-path="url(#p91db9df6e0)" style="fill: none; stroke: #20938c; stroke-width: 1.5; stroke-linecap: square"/>
   </g>
   <g id="line2d_31">
    <path d="M 86.540817 14.678599 
L 89.261716 35.432946 
L 91.982616 53.979819 
L 94.703516 69.251157 
L 97.424416 78.51301 
L 100.145316 89.690749 
L 102.866215 99.698376 
L 105.587115 103.152015 
L 108.308015 113.652323 
L 111.028915 116.911345 
L 113.749814 122.583504 
L 116.470714 127.985166 
L 119.191614 130.508604 
L 121.912514 128.540158 
L 124.633414 132.507827 
L 127.354313 133.318236 
L 130.075213 135.696413 
L 132.796113 139.146231 
L 135.517013 141.599834 
L 138.237913 142.840201 
L 140.958812 141.512505 
L 143.679712 143.2584 
L 146.400612 142.928552 
L 149.121512 143.438544 
L 151.842412 147.35405 
L 154.563311 149.997321 
L 157.284211 148.704259 
L 160.005111 146.813986 
L 162.726011 148.870386 
L 165.446911 148.390088 
L 168.16781 150.707663 
L 170.88871 151.167947 
L 173.60961 150.77694 
L 176.33051 151.567177 
L 179.05141 152.606065 
L 181.772309 153.526786 
L 184.493209 156.830819 
L 187.214109 157.041972 
L 189.935009 158.198138 
L 192.655908 153.907874 
L 195.376808 157.664928 
L 198.097708 156.525876 
L 200.818608 155.941565 
L 203.539508 150.396823 
L 206.260407 153.741944 
L 208.981307 155.895142 
L 211.702207 155.06418 
L 214.423107 155.41388 
L 217.144007 156.543344 
L 219.864906 154.873253 
L 222.585806 155.9299 
L 225.306706 157.929274 
L 228.027606 157.799983 
L 230.748506 153.904718 
L 233.469405 155.602456 
L 236.190305 157.481201 
L 238.911205 156.941704 
L 241.632105 158.938921 
L 244.353005 157.733847 
L 247.073904 161.154887 
L 249.794804 158.303567 
L 252.515704 159.420377 
L 255.236604 156.99329 
L 257.957503 156.315487 
L 260.678403 159.211042 
L 263.399303 155.986652 
L 266.120203 156.002481 
L 268.841103 155.224643 
L 271.562002 158.249738 
L 274.282902 158.656987 
L 277.003802 160.470642 
L 279.724702 158.691171 
L 282.445602 159.846516 
L 285.166501 161.167538 
L 287.887401 157.029413 
L 290.608301 157.776347 
L 293.329201 161.764125 
L 296.050101 162.23391 
L 298.771 161.207538 
L 301.4919 158.988368 
L 304.2128 159.778153 
L 306.9337 161.2814 
L 309.6546 160.686371 
L 312.375499 160.921187 
L 315.096399 161.490387 
L 317.817299 163.013361 
L 320.538199 163.318376 
L 323.259099 161.985024 
L 325.979998 160.459372 
L 328.700898 162.372452 
" clip-path="url(#p91db9df6e0)" style="fill: none; stroke: #1e9b8a; stroke-width: 1.5; stroke-linecap: square"/>
   </g>
   <g id="line2d_32">
    <path d="M 86.540817 14.676601 
L 89.261716 35.430829 
L 91.982616 53.979464 
L 94.703516 69.249304 
L 97.424416 78.512153 
L 100.145316 89.691205 
L 102.866215 99.696483 
L 105.587115 103.151821 
L 108.308015 113.652056 
L 111.028915 116.910845 
L 113.749814 122.583807 
L 116.470714 127.985102 
L 119.191614 130.507926 
L 121.912514 128.538999 
L 124.633414 132.506969 
L 127.354313 133.318717 
L 130.075213 135.695011 
L 132.796113 139.148072 
L 135.517013 141.600448 
L 138.237913 142.840357 
L 140.958812 141.513277 
L 143.679712 143.257943 
L 146.400612 142.928077 
L 149.121512 143.438646 
L 151.842412 147.353706 
L 154.563311 149.998113 
L 157.284211 148.704592 
L 160.005111 146.814338 
L 162.726011 148.870117 
L 165.446911 148.390569 
L 168.16781 150.708181 
L 170.88871 151.168443 
L 173.60961 150.776445 
L 176.33051 151.568655 
L 179.05141 152.606175 
L 181.772309 153.527456 
L 184.493209 156.830471 
L 187.214109 157.042856 
L 189.935009 158.198613 
L 192.655908 153.907408 
L 195.376808 157.663911 
L 198.097708 156.526157 
L 200.818608 155.942277 
L 203.539508 150.396814 
L 206.260407 153.741714 
L 208.981307 155.895026 
L 211.702207 155.06334 
L 214.423107 155.414081 
L 217.144007 156.543227 
L 219.864906 154.873037 
L 222.585806 155.93179 
L 225.306706 157.929153 
L 228.027606 157.800089 
L 230.748506 153.905046 
L 233.469405 155.603037 
L 236.190305 157.481644 
L 238.911205 156.941865 
L 241.632105 158.939416 
L 244.353005 157.733675 
L 247.073904 161.156643 
L 249.794804 158.303196 
L 252.515704 159.420059 
L 255.236604 156.993135 
L 257.957503 156.317074 
L 260.678403 159.211746 
L 263.399303 155.98597 
L 266.120203 156.002424 
L 268.841103 155.224092 
L 271.562002 158.248759 
L 274.282902 158.656032 
L 277.003802 160.470662 
L 279.724702 158.69195 
L 282.445602 159.846966 
L 285.166501 161.16773 
L 287.887401 157.029942 
L 290.608301 157.77704 
L 293.329201 161.763404 
L 296.050101 162.233059 
L 298.771 161.207734 
L 301.4919 158.989461 
L 304.2128 159.77857 
L 306.9337 161.281981 
L 309.6546 160.685796 
L 312.375499 160.921748 
L 315.096399 161.490543 
L 317.817299 163.013444 
L 320.538199 163.320383 
L 323.259099 161.986075 
L 325.979998 160.459928 
L 328.700898 162.372736 
" clip-path="url(#p91db9df6e0)" style="fill: none; stroke: #1fa287; stroke-width: 1.5; stroke-linecap: square"/>
   </g>
   <g id="line2d_33">
    <path d="M 86.540817 14.674752 
L 89.261716 35.428578 
L 91.982616 53.9786 
L 94.703516 69.247168 
L 97.424416 78.511359 
L 100.145316 89.691309 
L 102.866215 99.694567 
L 105.587115 103.151574 
L 108.308015 113.65177 
L 111.028915 116.910188 
L 113.749814 122.584202 
L 116.470714 127.984633 
L 119.191614 130.506972 
L 121.912514 128.537734 
L 124.633414 132.506279 
L 127.354313 133.318841 
L 130.075213 135.693676 
L 132.796113 139.149695 
L 135.517013 141.601333 
L 138.237913 142.840496 
L 140.958812 141.513777 
L 143.679712 143.257135 
L 146.400612 142.927442 
L 149.121512 143.438724 
L 151.842412 147.353418 
L 154.563311 149.99847 
L 157.284211 148.704764 
L 160.005111 146.814536 
L 162.726011 148.870196 
L 165.446911 148.390856 
L 168.16781 150.708459 
L 170.88871 151.168946 
L 173.60961 150.775939 
L 176.33051 151.570005 
L 179.05141 152.606118 
L 181.772309 153.527852 
L 184.493209 156.830186 
L 187.214109 157.043826 
L 189.935009 158.199044 
L 192.655908 153.906657 
L 195.376808 157.662829 
L 198.097708 156.526411 
L 200.818608 155.942922 
L 203.539508 150.397034 
L 206.260407 153.740918 
L 208.981307 155.89483 
L 211.702207 155.062201 
L 214.423107 155.414394 
L 217.144007 156.542733 
L 219.864906 154.87306 
L 222.585806 155.933221 
L 225.306706 157.928916 
L 228.027606 157.800116 
L 230.748506 153.905535 
L 233.469405 155.603476 
L 236.190305 157.482261 
L 238.911205 156.942205 
L 241.632105 158.939589 
L 244.353005 157.733702 
L 247.073904 161.158325 
L 249.794804 158.302934 
L 252.515704 159.419423 
L 255.236604 156.992987 
L 257.957503 156.318445 
L 260.678403 159.212293 
L 263.399303 155.985651 
L 266.120203 156.002286 
L 268.841103 155.223336 
L 271.562002 158.247776 
L 274.282902 158.655193 
L 277.003802 160.470512 
L 279.724702 158.692385 
L 282.445602 159.847418 
L 285.166501 161.167732 
L 287.887401 157.030551 
L 290.608301 157.777956 
L 293.329201 161.762646 
L 296.050101 162.232596 
L 298.771 161.207816 
L 301.4919 158.990364 
L 304.2128 159.778848 
L 306.9337 161.282195 
L 309.6546 160.685425 
L 312.375499 160.922516 
L 315.096399 161.490673 
L 317.817299 163.013688 
L 320.538199 163.322559 
L 323.259099 161.987198 
L 325.979998 160.460181 
L 328.700898 162.372875 
" clip-path="url(#p91db9df6e0)" style="fill: none; stroke: #24aa83; stroke-width: 1.5; stroke-linecap: square"/>
   </g>
   <g id="line2d_34">
    <path d="M 86.540817 14.673146 
L 89.261716 35.426379 
L 91.982616 53.97725 
L 94.703516 69.24493 
L 97.424416 78.510643 
L 100.145316 89.691034 
L 102.866215 99.692758 
L 105.587115 103.151331 
L 108.308015 113.651448 
L 111.028915 116.90942 
L 113.749814 122.584634 
L 116.470714 127.983852 
L 119.191614 130.505797 
L 121.912514 128.536513 
L 124.633414 132.50583 
L 127.354313 133.31861 
L 130.075213 135.692618 
L 132.796113 139.150955 
L 135.517013 141.602362 
L 138.237913 142.840547 
L 140.958812 141.514013 
L 143.679712 143.256047 
L 146.400612 142.926712 
L 149.121512 143.43883 
L 151.842412 147.353217 
L 154.563311 149.998252 
L 157.284211 148.704756 
L 160.005111 146.814579 
L 162.726011 148.870567 
L 165.446911 148.390931 
L 168.16781 150.708396 
L 170.88871 151.169331 
L 173.60961 150.775484 
L 176.33051 151.571102 
L 179.05141 152.605937 
L 181.772309 153.527966 
L 184.493209 156.829977 
L 187.214109 157.044759 
L 189.935009 158.199472 
L 192.655908 153.90574 
L 195.376808 157.661799 
L 198.097708 156.526656 
L 200.818608 155.943429 
L 203.539508 150.397573 
L 206.260407 153.739713 
L 208.981307 155.89462 
L 211.702207 155.06092 
L 214.423107 155.414887 
L 217.144007 156.541926 
L 219.864906 154.873309 
L 222.585806 155.934038 
L 225.306706 157.928645 
L 228.027606 157.800105 
L 230.748506 153.90617 
L 233.469405 155.603798 
L 236.190305 157.483027 
L 238.911205 156.942733 
L 241.632105 158.939428 
L 244.353005 157.733949 
L 247.073904 161.159747 
L 249.794804 158.302823 
L 252.515704 159.41854 
L 255.236604 156.992915 
L 257.957503 156.319509 
L 260.678403 159.212647 
L 263.399303 155.985754 
L 266.120203 156.002081 
L 268.841103 155.222444 
L 271.562002 158.246902 
L 274.282902 158.654537 
L 277.003802 160.470255 
L 279.724702 158.692411 
L 282.445602 159.84782 
L 285.166501 161.167548 
L 287.887401 157.031207 
L 290.608301 157.779006 
L 293.329201 161.76195 
L 296.050101 162.232558 
L 298.771 161.207844 
L 301.4919 158.991002 
L 304.2128 159.778969 
L 306.9337 161.282047 
L 309.6546 160.685312 
L 312.375499 160.923387 
L 315.096399 161.490825 
L 317.817299 163.014054 
L 320.538199 163.324764 
L 323.259099 161.988303 
L 325.979998 160.460185 
L 328.700898 162.372861 
" clip-path="url(#p91db9df6e0)" style="fill: none; stroke: #2ab07f; stroke-width: 1.5; stroke-linecap: square"/>
   </g>
   <g id="line2d_35">
    <path d="M 86.540817 14.671796 
L 89.261716 35.424413 
L 91.982616 53.975489 
L 94.703516 69.242741 
L 97.424416 78.509997 
L 100.145316 89.69041 
L 102.866215 99.691179 
L 105.587115 103.151152 
L 108.308015 113.651049 
L 111.028915 116.908621 
L 113.749814 122.585036 
L 116.470714 127.982895 
L 119.191614 130.50446 
L 121.912514 128.535478 
L 124.633414 132.505682 
L 127.354313 133.318054 
L 130.075213 135.692 
L 132.796113 139.151744 
L 135.517013 141.603388 
L 138.237913 142.840464 
L 140.958812 141.514022 
L 143.679712 143.254785 
L 146.400612 142.925967 
L 149.121512 143.43898 
L 151.842412 147.353133 
L 154.563311 149.997409 
L 157.284211 148.704527 
L 160.005111 146.814479 
L 162.726011 148.871138 
L 165.446911 148.390823 
L 168.16781 150.707917 
L 170.88871 151.169507 
L 173.60961 150.775136 
L 176.33051 151.571838 
L 179.05141 152.605726 
L 181.772309 153.527823 
L 184.493209 156.829835 
L 187.214109 157.045536 
L 189.935009 158.199921 
L 192.655908 153.90481 
L 195.376808 157.66094 
L 198.097708 156.526849 
L 200.818608 155.943756 
L 203.539508 150.398472 
L 206.260407 153.738288 
L 208.981307 155.894463 
L 211.702207 155.059667 
L 214.423107 155.4156 
L 217.144007 156.540886 
L 219.864906 154.873744 
L 222.585806 155.93416 
L 225.306706 157.928413 
L 228.027606 157.800079 
L 230.748506 153.906953 
L 233.469405 155.604015 
L 236.190305 157.483911 
L 238.911205 156.943432 
L 241.632105 158.938953 
L 244.353005 157.734395 
L 247.073904 161.160767 
L 249.794804 158.302887 
L 252.515704 159.417537 
L 255.236604 156.992957 
L 257.957503 156.320177 
L 260.678403 159.212786 
L 263.399303 155.986298 
L 266.120203 156.001854 
L 268.841103 155.2215 
L 271.562002 158.246219 
L 274.282902 158.654119 
L 277.003802 160.469958 
L 279.724702 158.692011 
L 282.445602 159.848146 
L 285.166501 161.167222 
L 287.887401 157.031888 
L 290.608301 157.780086 
L 293.329201 161.761395 
L 296.050101 162.232927 
L 298.771 161.207885 
L 301.4919 158.991338 
L 304.2128 159.778969 
L 306.9337 161.281593 
L 309.6546 160.685501 
L 312.375499 160.924236 
L 315.096399 161.491027 
L 317.817299 163.014474 
L 320.538199 163.326849 
L 323.259099 161.989304 
L 325.979998 160.460047 
L 328.700898 162.372732 
" clip-path="url(#p91db9df6e0)" style="fill: none; stroke: #35b779; stroke-width: 1.5; stroke-linecap: square"/>
   </g>
   <g id="line2d_36">
    <path d="M 86.540817 14.670659 
L 89.261716 35.42283 
L 91.982616 53.973445 
L 94.703516 69.240721 
L 97.424416 78.509404 
L 100.145316 89.68951 
L 102.866215 99.689939 
L 105.587115 103.151095 
L 108.308015 113.650521 
L 111.028915 116.907894 
L 113.749814 122.585341 
L 116.470714 127.981924 
L 119.191614 130.503034 
L 121.912514 128.53474 
L 124.633414 132.505862 
L 127.354313 133.317229 
L 130.075213 135.691908 
L 132.796113 139.152012 
L 135.517013 141.604278 
L 138.237913 142.840229 
L 140.958812 141.513869 
L 143.679712 143.253479 
L 146.400612 142.92529 
L 149.121512 143.439136 
L 151.842412 147.353173 
L 154.563311 149.996 
L 157.284211 148.704027 
L 160.005111 146.814271 
L 162.726011 148.871799 
L 165.446911 148.390598 
L 168.16781 150.707001 
L 170.88871 151.16944 
L 173.60961 150.774941 
L 176.33051 151.572132 
L 179.05141 152.605593 
L 181.772309 153.527474 
L 184.493209 156.82974 
L 187.214109 157.046063 
L 189.935009 158.200389 
L 192.655908 153.904024 
L 195.376808 157.660347 
L 198.097708 156.526912 
L 200.818608 155.943893 
L 203.539508 150.399712 
L 206.260407 153.736835 
L 208.981307 155.894404 
L 211.702207 155.0586 
L 214.423107 155.416527 
L 217.144007 156.539711 
L 219.864906 154.874316 
L 222.585806 155.933587 
L 225.306706 157.928273 
L 228.027606 157.800029 
L 230.748506 153.907889 
L 233.469405 155.604124 
L 236.190305 157.484882 
L 238.911205 156.944262 
L 241.632105 158.938209 
L 244.353005 157.734998 
L 247.073904 161.161308 
L 249.794804 158.303137 
L 252.515704 159.416577 
L 255.236604 156.993111 
L 257.957503 156.320375 
L 260.678403 159.212705 
L 263.399303 155.987258 
L 266.120203 156.001671 
L 268.841103 155.220586 
L 271.562002 158.24576 
L 274.282902 158.653978 
L 277.003802 160.469669 
L 279.724702 158.691218 
L 282.445602 159.848398 
L 285.166501 161.166831 
L 287.887401 157.032581 
L 290.608301 157.781099 
L 293.329201 161.761027 
L 296.050101 162.23363 
L 298.771 161.207993 
L 301.4919 158.991381 
L 304.2128 159.778938 
L 306.9337 161.280927 
L 309.6546 160.686011 
L 312.375499 160.92494 
L 315.096399 161.491284 
L 317.817299 163.014857 
L 320.538199 163.32866 
L 323.259099 161.990121 
L 325.979998 160.4599 
L 328.700898 162.372559 
" clip-path="url(#p91db9df6e0)" style="fill: none; stroke: #42be71; stroke-width: 1.5; stroke-linecap: square"/>
   </g>
   <g id="line2d_37">
    <path d="M 86.540817 14.669672 
L 89.261716 35.421724 
L 91.982616 53.971281 
L 94.703516 69.238955 
L 97.424416 78.508854 
L 100.145316 89.688439 
L 102.866215 99.689111 
L 105.587115 103.151192 
L 108.308015 113.649812 
L 111.028915 116.907342 
L 113.749814 122.585502 
L 116.470714 127.981093 
L 119.191614 130.501609 
L 121.912514 128.534367 
L 124.633414 132.506362 
L 127.354313 133.316229 
L 130.075213 135.692341 
L 132.796113 139.151773 
L 135.517013 141.604929 
L 138.237913 142.839864 
L 140.958812 141.513637 
L 143.679712 143.252262 
L 146.400612 142.924749 
L 149.121512 143.439209 
L 151.842412 147.353314 
L 154.563311 149.994187 
L 157.284211 148.703219 
L 160.005111 146.813999 
L 162.726011 148.872441 
L 165.446911 148.39034 
L 168.16781 150.705698 
L 170.88871 151.169147 
L 173.60961 150.774929 
L 176.33051 151.571946 
L 179.05141 152.605629 
L 181.772309 153.526983 
L 184.493209 156.82967 
L 187.214109 157.046289 
L 189.935009 158.200842 
L 192.655908 153.90352 
L 195.376808 157.660072 
L 198.097708 156.526759 
L 200.818608 155.943854 
L 203.539508 150.401231 
L 206.260407 153.735514 
L 208.981307 155.894457 
L 211.702207 155.057841 
L 214.423107 155.417611 
L 217.144007 156.538507 
L 219.864906 154.874989 
L 222.585806 155.932405 
L 225.306706 157.928256 
L 228.027606 157.799929 
L 230.748506 153.908982 
L 233.469405 155.604102 
L 236.190305 157.485893 
L 238.911205 156.945156 
L 241.632105 158.937251 
L 244.353005 157.735706 
L 247.073904 161.16135 
L 249.794804 158.303571 
L 252.515704 159.415825 
L 255.236604 156.993341 
L 257.957503 156.320063 
L 260.678403 159.212422 
L 263.399303 155.988559 
L 266.120203 156.001609 
L 268.841103 155.219783 
L 271.562002 158.245517 
L 274.282902 158.654132 
L 277.003802 160.469418 
L 279.724702 158.690111 
L 282.445602 159.848589 
L 285.166501 161.166462 
L 287.887401 157.033276 
L 290.608301 157.781968 
L 293.329201 161.760859 
L 296.050101 162.234559 
L 298.771 161.208185 
L 301.4919 158.991184 
L 304.2128 159.778994 
L 306.9337 161.280169 
L 309.6546 160.686833 
L 312.375499 160.925403 
L 315.096399 161.491583 
L 317.817299 163.015107 
L 320.538199 163.330055 
L 323.259099 161.990686 
L 325.979998 160.459861 
L 328.700898 162.372425 
" clip-path="url(#p91db9df6e0)" style="fill: none; stroke: #52c569; stroke-width: 1.5; stroke-linecap: square"/>
   </g>
   <g id="line2d_38">
    <path d="M 86.540817 14.66879 
L 89.261716 35.421115 
L 91.982616 53.969166 
L 94.703516 69.237497 
L 97.424416 78.508356 
L 100.145316 89.687306 
L 102.866215 99.688716 
L 105.587115 103.151449 
L 108.308015 113.648892 
L 111.028915 116.907052 
L 113.749814 122.585496 
L 116.470714 127.98052 
L 119.191614 130.500298 
L 121.912514 128.534371 
L 124.633414 132.507127 
L 127.354313 133.315178 
L 130.075213 135.693212 
L 132.796113 139.151099 
L 135.517013 141.605287 
L 138.237913 142.839419 
L 140.958812 141.513418 
L 143.679712 143.251242 
L 146.400612 142.924381 
L 149.121512 143.439086 
L 151.842412 147.353506 
L 154.563311 149.992202 
L 157.284211 148.702107 
L 160.005111 146.813724 
L 162.726011 148.872969 
L 165.446911 148.390118 
L 168.16781 150.704129 
L 170.88871 151.168688 
L 173.60961 150.775111 
L 176.33051 151.571296 
L 179.05141 152.605878 
L 181.772309 153.526414 
L 184.493209 156.829608 
L 187.214109 157.046203 
L 189.935009 158.201224 
L 192.655908 153.903396 
L 195.376808 157.66011 
L 198.097708 156.526332 
L 200.818608 155.943669 
L 203.539508 150.402924 
L 206.260407 153.734443 
L 208.981307 155.894597 
L 211.702207 155.057457 
L 214.423107 155.41875 
L 217.144007 156.537391 
L 219.864906 154.875739 
L 222.585806 155.930766 
L 225.306706 157.928376 
L 228.027606 157.799747 
L 230.748506 153.910217 
L 233.469405 155.603924 
L 236.190305 157.486885 
L 238.911205 156.946032 
L 241.632105 158.936139 
L 244.353005 157.736463 
L 247.073904 161.160928 
L 249.794804 158.304175 
L 252.515704 159.415414 
L 255.236604 156.9936 
L 257.957503 156.319262 
L 260.678403 159.211983 
L 263.399303 155.99009 
L 266.120203 156.001747 
L 268.841103 155.219161 
L 271.562002 158.245449 
L 274.282902 158.654569 
L 277.003802 160.469212 
L 279.724702 158.688805 
L 282.445602 159.848737 
L 285.166501 161.166194 
L 287.887401 157.03395 
L 290.608301 157.782654 
L 293.329201 161.760872 
L 296.050101 162.235596 
L 298.771 161.208431 
L 301.4919 158.990828 
L 304.2128 159.779246 
L 306.9337 161.279435 
L 309.6546 160.68793 
L 312.375499 160.925569 
L 315.096399 161.491895 
L 317.817299 163.015143 
L 320.538199 163.330914 
L 323.259099 161.990956 
L 325.979998 160.459998 
L 328.700898 162.372402 
" clip-path="url(#p91db9df6e0)" style="fill: none; stroke: #60ca60; stroke-width: 1.5; stroke-linecap: square"/>
   </g>
   <g id="line2d_39">
    <path d="M 86.540817 14.668008 
L 89.261716 35.420953 
L 91.982616 53.967254 
L 94.703516 69.236364 
L 97.424416 78.507939 
L 100.145316 89.686212 
L 102.866215 99.688712 
L 105.587115 103.151839 
L 108.308015 113.647765 
L 111.028915 116.907082 
L 113.749814 122.585323 
L 116.470714 127.980266 
L 119.191614 130.499214 
L 121.912514 128.534704 
L 124.633414 132.508073 
L 127.354313 133.314218 
L 130.075213 135.694383 
L 132.796113 139.150116 
L 135.517013 141.605354 
L 138.237913 142.838977 
L 140.958812 141.513292 
L 143.679712 143.250496 
L 146.400612 142.924186 
L 149.121512 143.438666 
L 151.842412 147.353679 
L 154.563311 149.990302 
L 157.284211 148.700749 
L 160.005111 146.813508 
L 162.726011 148.873312 
L 165.446911 148.389966 
L 168.16781 150.702469 
L 170.88871 151.168141 
L 173.60961 150.775468 
L 176.33051 151.570253 
L 179.05141 152.60633 
L 181.772309 153.525817 
L 184.493209 156.829555 
L 187.214109 157.045824 
L 189.935009 158.20148 
L 192.655908 153.903699 
L 195.376808 157.660423 
L 198.097708 156.525614 
L 200.818608 155.943375 
L 203.539508 150.404657 
L 206.260407 153.733691 
L 208.981307 155.894769 
L 211.702207 155.057453 
L 214.423107 155.419817 
L 217.144007 156.536473 
L 219.864906 154.876558 
L 222.585806 155.928862 
L 225.306706 157.928625 
L 228.027606 157.799469 
L 230.748506 153.911554 
L 233.469405 155.603579 
L 236.190305 157.487774 
L 238.911205 156.946804 
L 241.632105 158.934938 
L 244.353005 157.73721 
L 247.073904 161.160116 
L 249.794804 158.304915 
L 252.515704 159.415408 
L 255.236604 156.993845 
L 257.957503 156.318055 
L 260.678403 159.211449 
L 263.399303 155.991715 
L 266.120203 156.002146 
L 268.841103 155.218777 
L 271.562002 158.245504 
L 274.282902 158.655247 
L 277.003802 160.469052 
L 279.724702 158.687429 
L 282.445602 159.848848 
L 285.166501 161.16608 
L 287.887401 157.034569 
L 290.608301 157.783155 
L 293.329201 161.761026 
L 296.050101 162.236636 
L 298.771 161.208662 
L 301.4919 158.990405 
L 304.2128 159.779752 
L 306.9337 161.27882 
L 309.6546 160.689236 
L 312.375499 160.925424 
L 315.096399 161.492189 
L 317.817299 163.014916 
L 320.538199 163.331148 
L 323.259099 161.990925 
L 325.979998 160.460308 
L 328.700898 162.37254 
" clip-path="url(#p91db9df6e0)" style="fill: none; stroke: #73d056; stroke-width: 1.5; stroke-linecap: square"/>
   </g>
   <g id="line2d_40">
    <path d="M 86.540817 14.667367 
L 89.261716 35.421132 
L 91.982616 53.96566 
L 94.703516 69.23554 
L 97.424416 78.507643 
L 100.145316 89.685229 
L 102.866215 99.688997 
L 105.587115 103.152306 
L 108.308015 113.646475 
L 111.028915 116.907453 
L 113.749814 122.585001 
L 116.470714 127.980324 
L 119.191614 130.498453 
L 121.912514 128.535266 
L 124.633414 132.509096 
L 127.354313 133.313481 
L 130.075213 135.695695 
L 132.796113 139.148979 
L 135.517013 141.605177 
L 138.237913 142.838631 
L 140.958812 141.513305 
L 143.679712 143.25006 
L 146.400612 142.924135 
L 149.121512 143.437898 
L 151.842412 147.353766 
L 154.563311 149.988709 
L 157.284211 148.69926 
L 160.005111 146.813408 
L 162.726011 148.873427 
L 165.446911 148.389871 
L 168.16781 150.700917 
L 170.88871 151.167581 
L 173.60961 150.775956 
L 176.33051 151.568937 
L 179.05141 152.606922 
L 181.772309 153.525226 
L 184.493209 156.829533 
L 187.214109 157.045187 
L 189.935009 158.201562 
L 192.655908 153.904419 
L 195.376808 157.660959 
L 198.097708 156.524639 
L 200.818608 155.943011 
L 203.539508 150.406273 
L 206.260407 153.733283 
L 208.981307 155.894909 
L 211.702207 155.057775 
L 214.423107 155.420683 
L 217.144007 156.535849 
L 219.864906 154.877438 
L 222.585806 155.9269 
L 225.306706 157.928987 
L 228.027606 157.799111 
L 230.748506 153.912921 
L 233.469405 155.603081 
L 236.190305 157.488467 
L 238.911205 156.947397 
L 241.632105 158.933715 
L 244.353005 157.737879 
L 247.073904 161.159014 
L 249.794804 158.305746 
L 252.515704 159.415783 
L 255.236604 156.994059 
L 257.957503 156.316583 
L 260.678403 159.210886 
L 263.399303 155.993296 
L 266.120203 156.002832 
L 268.841103 155.218677 
L 271.562002 158.245637 
L 274.282902 158.656097 
L 277.003802 160.468941 
L 279.724702 158.686116 
L 282.445602 159.848916 
L 285.166501 161.16614 
L 287.887401 157.035093 
L 290.608301 157.783501 
L 293.329201 161.761273 
L 296.050101 162.237607 
L 298.771 161.208796 
L 301.4919 158.989996 
L 304.2128 159.780492 
L 306.9337 161.278383 
L 309.6546 160.690671 
L 312.375499 160.925001 
L 315.096399 161.492437 
L 317.817299 163.014426 
L 320.538199 163.33071 
L 323.259099 161.99063 
L 325.979998 160.460722 
L 328.700898 162.372855 
" clip-path="url(#p91db9df6e0)" style="fill: none; stroke: #86d549; stroke-width: 1.5; stroke-linecap: square"/>
   </g>
   <g id="line2d_41">
    <path d="M 86.540817 14.666939 
L 89.261716 35.421522 
L 91.982616 53.964448 
L 94.703516 69.234987 
L 97.424416 78.507513 
L 100.145316 89.6844 
L 102.866215 99.689434 
L 105.587115 103.15278 
L 108.308015 113.645101 
L 111.028915 116.908147 
L 113.749814 122.584551 
L 116.470714 127.980622 
L 119.191614 130.498064 
L 121.912514 128.535924 
L 124.633414 132.510098 
L 127.354313 133.313064 
L 130.075213 135.697 
L 132.796113 139.147858 
L 135.517013 141.604839 
L 138.237913 142.838476 
L 140.958812 141.513457 
L 143.679712 143.249937 
L 146.400612 142.924179 
L 149.121512 143.436809 
L 151.842412 147.353723 
L 154.563311 149.987574 
L 157.284211 148.697807 
L 160.005111 146.813464 
L 162.726011 148.873297 
L 165.446911 148.389781 
L 168.16781 150.699666 
L 170.88871 151.167064 
L 173.60961 150.77651 
L 176.33051 151.567503 
L 179.05141 152.607561 
L 181.772309 153.52466 
L 184.493209 156.82958 
L 187.214109 157.044335 
L 189.935009 158.201444 
L 192.655908 153.905493 
L 195.376808 157.661674 
L 198.097708 156.523485 
L 200.818608 155.942614 
L 203.539508 150.407614 
L 206.260407 153.733214 
L 208.981307 155.894958 
L 211.702207 155.058309 
L 214.423107 155.421239 
L 217.144007 156.53558 
L 219.864906 154.878363 
L 222.585806 155.925066 
L 225.306706 157.92943 
L 228.027606 157.798724 
L 230.748506 153.914221 
L 233.469405 155.602471 
L 236.190305 157.488868 
L 238.911205 156.947766 
L 241.632105 158.93255 
L 244.353005 157.73839 
L 247.073904 161.157738 
L 249.794804 158.306605 
L 252.515704 159.416431 
L 255.236604 156.994243 
L 257.957503 156.315016 
L 260.678403 159.210347 
L 263.399303 155.994716 
L 266.120203 156.003791 
L 268.841103 155.218885 
L 271.562002 158.245819 
L 274.282902 158.657036 
L 277.003802 160.468893 
L 279.724702 158.684983 
L 282.445602 159.848933 
L 285.166501 161.166361 
L 287.887401 157.035488 
L 290.608301 157.783734 
L 293.329201 161.761564 
L 296.050101 162.238471 
L 298.771 161.208765 
L 301.4919 158.989654 
L 304.2128 159.781363 
L 306.9337 161.278152 
L 309.6546 160.692145 
L 312.375499 160.924363 
L 315.096399 161.492621 
L 317.817299 163.013723 
L 320.538199 163.329599 
L 323.259099 161.990148 
L 325.979998 160.461125 
L 328.700898 162.373336 
" clip-path="url(#p91db9df6e0)" style="fill: none; stroke: #9bd93c; stroke-width: 1.5; stroke-linecap: square"/>
   </g>
   <g id="line2d_42">
    <path d="M 86.540817 14.666807 
L 89.261716 35.422002 
L 91.982616 53.96364 
L 94.703516 69.234653 
L 97.424416 78.507583 
L 100.145316 89.683738 
L 102.866215 99.689889 
L 105.587115 103.153185 
L 108.308015 113.643751 
L 111.028915 116.909107 
L 113.749814 122.584002 
L 116.470714 127.981045 
L 119.191614 130.498028 
L 121.912514 128.53654 
L 124.633414 132.511 
L 127.354313 133.313016 
L 130.075213 135.698179 
L 132.796113 139.146911 
L 135.517013 141.604437 
L 138.237913 142.838587 
L 140.958812 141.513689 
L 143.679712 143.250112 
L 146.400612 142.924267 
L 149.121512 143.435505 
L 151.842412 147.353533 
L 154.563311 149.986959 
L 157.284211 148.696579 
L 160.005111 146.813691 
L 162.726011 148.87294 
L 165.446911 148.389624 
L 168.16781 150.698873 
L 170.88871 151.166617 
L 173.60961 150.777048 
L 176.33051 151.566115 
L 179.05141 152.608143 
L 181.772309 153.524127 
L 184.493209 156.829747 
L 187.214109 157.043313 
L 189.935009 158.201126 
L 192.655908 153.906821 
L 195.376808 157.662547 
L 198.097708 156.522261 
L 200.818608 155.942219 
L 203.539508 150.408533 
L 206.260407 153.73347 
L 208.981307 155.894891 
L 211.702207 155.05891 
L 214.423107 155.421417 
L 217.144007 156.535679 
L 219.864906 154.879303 
L 222.585806 155.92351 
L 225.306706 157.929913 
L 228.027606 157.798385 
L 230.748506 153.915344 
L 233.469405 155.60181 
L 236.190305 157.488913 
L 238.911205 156.947905 
L 241.632105 158.931524 
L 244.353005 157.73866 
L 247.073904 161.156409 
L 249.794804 158.307427 
L 252.515704 159.417186 
L 255.236604 156.994415 
L 257.957503 156.313524 
L 260.678403 159.209868 
L 263.399303 155.995893 
L 266.120203 156.00496 
L 268.841103 155.219404 
L 271.562002 158.24604 
L 274.282902 158.657986 
L 277.003802 160.468932 
L 279.724702 158.684131 
L 282.445602 159.848893 
L 285.166501 161.166702 
L 287.887401 157.035748 
L 290.608301 157.783892 
L 293.329201 161.76186 
L 296.050101 162.239224 
L 298.771 161.208549 
L 301.4919 158.989402 
L 304.2128 159.782203 
L 306.9337 161.278124 
L 309.6546 160.693573 
L 312.375499 160.923599 
L 315.096399 161.492734 
L 317.817299 163.012897 
L 320.538199 163.327873 
L 323.259099 161.989588 
L 325.979998 160.461394 
L 328.700898 162.373953 
" clip-path="url(#p91db9df6e0)" style="fill: none; stroke: #addc30; stroke-width: 1.5; stroke-linecap: square"/>
   </g>
   <g id="line2d_43">
    <path d="M 86.540817 14.667043 
L 89.261716 35.422485 
L 91.982616 53.963218 
L 94.703516 69.234499 
L 97.424416 78.507871 
L 100.145316 89.683237 
L 102.866215 99.690263 
L 105.587115 103.153448 
L 108.308015 113.642539 
L 111.028915 116.910236 
L 113.749814 122.583385 
L 116.470714 127.981457 
L 119.191614 130.498262 
L 121.912514 128.537004 
L 124.633414 132.511752 
L 127.354313 133.313322 
L 130.075213 135.699155 
L 132.796113 139.14626 
L 135.517013 141.604062 
L 138.237913 142.839007 
L 140.958812 141.513893 
L 143.679712 143.250563 
L 146.400612 142.924353 
L 149.121512 143.434149 
L 151.842412 147.353216 
L 154.563311 149.986837 
L 157.284211 148.695758 
L 160.005111 146.814071 
L 162.726011 148.872406 
L 165.446911 148.389336 
L 168.16781 150.698635 
L 170.88871 151.166246 
L 173.60961 150.77749 
L 176.33051 151.56492 
L 179.05141 152.608578 
L 181.772309 153.523629 
L 184.493209 156.83007 
L 187.214109 157.04218 
L 189.935009 158.200636 
L 192.655908 153.908279 
L 195.376808 157.663566 
L 198.097708 156.521084 
L 200.818608 155.941865 
L 203.539508 150.408928 
L 206.260407 153.73403 
L 208.981307 155.894722 
L 211.702207 155.05942 
L 214.423107 155.421203 
L 217.144007 156.536109 
L 219.864906 154.88021 
L 222.585806 155.922331 
L 225.306706 157.930388 
L 228.027606 157.798172 
L 230.748506 153.916187 
L 233.469405 155.601158 
L 236.190305 157.488584 
L 238.911205 156.94784 
L 241.632105 158.93072 
L 244.353005 157.738619 
L 247.073904 161.155141 
L 249.794804 158.308149 
L 252.515704 159.417867 
L 255.236604 156.994596 
L 257.957503 156.312247 
L 260.678403 159.209457 
L 263.399303 155.996791 
L 266.120203 156.006237 
L 268.841103 155.220208 
L 271.562002 158.246303 
L 274.282902 158.658888 
L 277.003802 160.469076 
L 279.724702 158.683632 
L 282.445602 159.848813 
L 285.166501 161.167107 
L 287.887401 157.035893 
L 290.608301 157.783989 
L 293.329201 161.762127 
L 296.050101 162.239876 
L 298.771 161.208189 
L 301.4919 158.989229 
L 304.2128 159.782835 
L 306.9337 161.278274 
L 309.6546 160.694875 
L 312.375499 160.922805 
L 315.096399 161.492776 
L 317.817299 163.012064 
L 320.538199 163.325647 
L 323.259099 161.989068 
L 325.979998 160.461431 
L 328.700898 162.374662 
" clip-path="url(#p91db9df6e0)" style="fill: none; stroke: #c2df23; stroke-width: 1.5; stroke-linecap: square"/>
   </g>
   <g id="line2d_44">
    <path d="M 86.540817 14.667686 
L 89.261716 35.422933 
L 91.982616 53.963148 
L 94.703516 69.234513 
L 97.424416 78.508374 
L 100.145316 89.682885 
L 102.866215 99.690523 
L 105.587115 103.15351 
L 108.308015 113.641567 
L 111.028915 116.911409 
L 113.749814 122.582745 
L 116.470714 127.981731 
L 119.191614 130.498639 
L 121.912514 128.537257 
L 124.633414 132.512328 
L 127.354313 133.313923 
L 130.075213 135.699888 
L 132.796113 139.145972 
L 135.517013 141.603781 
L 138.237913 142.839734 
L 140.958812 141.513943 
L 143.679712 143.251262 
L 146.400612 142.924407 
L 149.121512 143.432921 
L 151.842412 147.352817 
L 154.563311 149.987126 
L 157.284211 148.695485 
L 160.005111 146.814555 
L 162.726011 148.871775 
L 165.446911 148.38888 
L 168.16781 150.698975 
L 170.88871 151.165943 
L 173.60961 150.777761 
L 176.33051 151.564023 
L 179.05141 152.6088 
L 181.772309 153.523168 
L 184.493209 156.830564 
L 187.214109 157.041012 
L 189.935009 158.20002 
L 192.655908 153.909741 
L 195.376808 157.664716 
L 198.097708 156.520061 
L 200.818608 155.941598 
L 203.539508 150.408759 
L 206.260407 153.734868 
L 208.981307 155.894502 
L 211.702207 155.05971 
L 214.423107 155.420647 
L 217.144007 156.536792 
L 219.864906 154.881027 
L 222.585806 155.921572 
L 225.306706 157.930813 
L 228.027606 157.798148 
L 230.748506 153.916665 
L 233.469405 155.600563 
L 236.190305 157.487927 
L 238.911205 156.94763 
L 241.632105 158.930205 
L 244.353005 157.738226 
L 247.073904 161.154036 
L 249.794804 158.30872 
L 252.515704 159.418327 
L 255.236604 156.9948 
L 257.957503 156.311273 
L 260.678403 159.209098 
L 263.399303 155.997406 
L 266.120203 156.007498 
L 268.841103 155.221238 
L 271.562002 158.246619 
L 274.282902 158.659709 
L 277.003802 160.469323 
L 279.724702 158.683521 
L 282.445602 159.848727 
L 285.166501 161.16751 
L 287.887401 157.035971 
L 290.608301 157.784008 
L 293.329201 161.762347 
L 296.050101 162.240438 
L 298.771 161.20778 
L 301.4919 158.989104 
L 304.2128 159.783118 
L 306.9337 161.278564 
L 309.6546 160.695983 
L 312.375499 160.922079 
L 315.096399 161.492749 
L 317.817299 163.011344 
L 320.538199 163.3231 
L 323.259099 161.988689 
L 325.979998 160.461188 
L 328.700898 162.375416 
" clip-path="url(#p91db9df6e0)" style="fill: none; stroke: #d8e219; stroke-width: 1.5; stroke-linecap: square"/>
   </g>
   <g id="line2d_45">
    <path d="M 86.540817 14.668736 
L 89.261716 35.423352 
L 91.982616 53.963384 
L 94.703516 69.234718 
L 97.424416 78.509059 
L 100.145316 89.682678 
L 102.866215 99.690701 
L 105.587115 103.153327 
L 108.308015 113.640905 
L 111.028915 116.91248 
L 113.749814 122.58214 
L 116.470714 127.981773 
L 119.191614 130.499029 
L 121.912514 128.537301 
L 124.633414 132.512718 
L 127.354313 133.314719 
L 130.075213 135.700367 
L 132.796113 139.146037 
L 135.517013 141.603628 
L 138.237913 142.840724 
L 140.958812 141.513716 
L 143.679712 143.252171 
L 146.400612 142.924418 
L 149.121512 143.431979 
L 151.842412 147.352395 
L 154.563311 149.98771 
L 157.284211 148.69583 
L 160.005111 146.815072 
L 162.726011 148.871152 
L 165.446911 148.388259 
L 168.16781 150.699844 
L 170.88871 151.165695 
L 173.60961 150.777811 
L 176.33051 151.563468 
L 179.05141 152.608776 
L 181.772309 153.52275 
L 184.493209 156.831198 
L 187.214109 157.039908 
L 189.935009 158.199339 
L 192.655908 153.911097 
L 195.376808 157.66596 
L 198.097708 156.519276 
L 200.818608 155.941464 
L 203.539508 150.408063 
L 206.260407 153.735942 
L 208.981307 155.89431 
L 211.702207 155.059707 
L 214.423107 155.419853 
L 217.144007 156.537625 
L 219.864906 154.881691 
L 222.585806 155.921237 
L 225.306706 157.931161 
L 228.027606 157.798335 
L 230.748506 153.916732 
L 233.469405 155.600047 
L 236.190305 157.487044 
L 238.911205 156.947343 
L 241.632105 158.93002 
L 244.353005 157.737489 
L 247.073904 161.153173 
L 249.794804 158.309108 
L 252.515704 159.418488 
L 255.236604 156.995031 
L 257.957503 156.310631 
L 260.678403 159.208764 
L 263.399303 155.997764 
L 266.120203 156.008609 
L 268.841103 155.222404 
L 271.562002 158.247005 
L 274.282902 158.660445 
L 277.003802 160.469639 
L 279.724702 158.683797 
L 282.445602 159.848691 
L 285.166501 161.167851 
L 287.887401 157.036037 
L 290.608301 157.783905 
L 293.329201 161.762506 
L 296.050101 162.240907 
L 298.771 161.207448 
L 301.4919 158.988991 
L 304.2128 159.782984 
L 306.9337 161.27894 
L 309.6546 160.696837 
L 312.375499 160.921508 
L 315.096399 161.492651 
L 317.817299 163.010841 
L 320.538199 163.320456 
L 323.259099 161.988518 
L 325.979998 160.46068 
L 328.700898 162.376164 
" clip-path="url(#p91db9df6e0)" style="fill: none; stroke: #ece51b; stroke-width: 1.5; stroke-linecap: square"/>
   </g>
   <g id="patch_3">
    <path d="M 74.432812 170.767352 
L 74.432812 7.2 
" style="fill: none"/>
   </g>
   <g id="patch_4">
    <path d="M 340.808902 170.767352 
L 340.808902 7.2 
" style="fill: none"/>
   </g>
   <g id="patch_5">
    <path d="M 74.432812 170.767352 
L 340.808902 170.767352 
" style="fill: none"/>
   </g>
   <g id="patch_6">
    <path d="M 74.432812 7.2 
L 340.808902 7.2 
" style="fill: none"/>
   </g>
  </g>
 </g>
 <defs>
  <clipPath id="p91db9df6e0">
   <rect x="74.432812" y="7.2" width="266.37609" height="163.567352"/>
  </clipPath>
 </defs>
</svg>
