<?xml version="1.0" encoding="utf-8" standalone="no"?>
<!DOCTYPE svg PUBLIC "-//W3C//DTD SVG 1.1//EN"
  "http://www.w3.org/Graphics/SVG/1.1/DTD/svg11.dtd">
<svg xmlns:xlink="http://www.w3.org/1999/xlink" width="415.441106pt" height="325.986375pt" viewBox="0 0 415.441106 325.986375" xmlns="http://www.w3.org/2000/svg" version="1.1">
 <metadata>
  <rdf:RDF xmlns:dc="http://purl.org/dc/elements/1.1/" xmlns:cc="http://creativecommons.org/ns#" xmlns:rdf="http://www.w3.org/1999/02/22-rdf-syntax-ns#">
   <cc:Work>
    <dc:type rdf:resource="http://purl.org/dc/dcmitype/StillImage"/>
    <dc:date>2022-08-10T21:25:40.173743</dc:date>
    <dc:format>image/svg+xml</dc:format>
    <dc:creator>
     <cc:Agent>
      <dc:title>Matplotlib v3.5.2, https://matplotlib.org/</dc:title>
     </cc:Agent>
    </dc:creator>
   </cc:Work>
  </rdf:RDF>
 </metadata>
 <defs>
  <style type="text/css">*{stroke-linejoin: round; stroke-linecap: butt}</style>
 </defs>
 <g id="figure_1">
  <g id="patch_1">
   <path d="M 0 325.986375 
L 415.441106 325.986375 
L 415.441106 0 
L 0 0 
L 0 325.986375 
z
" style="fill: none"/>
  </g>
  <g id="axes_1">
   <g id="patch_2">
    <path d="M 50.14375 288.430125 
L 407.26375 288.430125 
L 407.26375 22.318125 
L 50.14375 22.318125 
L 50.14375 288.430125 
z
" style="fill: none"/>
   </g>
   <g id="matplotlib.axis_1">
    <g id="xtick_1">
     <g id="line2d_1">
      <path d="M 66.376477 288.430125 
L 66.376477 22.318125 
" clip-path="url(#p22d4188770)" style="fill: none; stroke: #6f6f6f; stroke-opacity: 0.2; stroke-width: 0.8; stroke-linecap: square"/>
     </g>
     <g id="line2d_2">
      <defs>
       <path id="m4bee3629f2" d="M 0 0 
L 0 3.5 
" style="stroke: #666666; stroke-opacity: 0.015686; stroke-width: 0.8"/>
      </defs>
      <g>
       <use xlink:href="#m4bee3629f2" x="66.376477" y="288.430125" style="fill: #666666; fill-opacity: 0.015686; stroke: #666666; stroke-opacity: 0.015686; stroke-width: 0.8"/>
      </g>
     </g>
     <g id="text_1">
      <!-- 0 -->
      <g style="fill: #666666" transform="translate(63.195227 303.028562)scale(0.1 -0.1)">
       <defs>
        <path id="DejaVuSans-30" d="M 2034 4250 
Q 1547 4250 1301 3770 
Q 1056 3291 1056 2328 
Q 1056 1369 1301 889 
Q 1547 409 2034 409 
Q 2525 409 2770 889 
Q 3016 1369 3016 2328 
Q 3016 3291 2770 3770 
Q 2525 4250 2034 4250 
z
M 2034 4750 
Q 2819 4750 3233 4129 
Q 3647 3509 3647 2328 
Q 3647 1150 3233 529 
Q 2819 -91 2034 -91 
Q 1250 -91 836 529 
Q 422 1150 422 2328 
Q 422 3509 836 4129 
Q 1250 4750 2034 4750 
z
" transform="scale(0.015625)"/>
       </defs>
       <use xlink:href="#DejaVuSans-30"/>
      </g>
     </g>
    </g>
    <g id="xtick_2">
     <g id="line2d_3">
      <path d="M 131.568153 288.430125 
L 131.568153 22.318125 
" clip-path="url(#p22d4188770)" style="fill: none; stroke: #6f6f6f; stroke-opacity: 0.2; stroke-width: 0.8; stroke-linecap: square"/>
     </g>
     <g id="line2d_4">
      <g>
       <use xlink:href="#m4bee3629f2" x="131.568153" y="288.430125" style="fill: #666666; fill-opacity: 0.015686; stroke: #666666; stroke-opacity: 0.015686; stroke-width: 0.8"/>
      </g>
     </g>
     <g id="text_2">
      <!-- 10000 -->
      <g style="fill: #666666" transform="translate(115.661903 303.028562)scale(0.1 -0.1)">
       <defs>
        <path id="DejaVuSans-31" d="M 794 531 
L 1825 531 
L 1825 4091 
L 703 3866 
L 703 4441 
L 1819 4666 
L 2450 4666 
L 2450 531 
L 3481 531 
L 3481 0 
L 794 0 
L 794 531 
z
" transform="scale(0.015625)"/>
       </defs>
       <use xlink:href="#DejaVuSans-31"/>
       <use xlink:href="#DejaVuSans-30" x="63.623047"/>
       <use xlink:href="#DejaVuSans-30" x="127.246094"/>
       <use xlink:href="#DejaVuSans-30" x="190.869141"/>
       <use xlink:href="#DejaVuSans-30" x="254.492188"/>
      </g>
     </g>
    </g>
    <g id="xtick_3">
     <g id="line2d_5">
      <path d="M 196.759829 288.430125 
L 196.759829 22.318125 
" clip-path="url(#p22d4188770)" style="fill: none; stroke: #6f6f6f; stroke-opacity: 0.2; stroke-width: 0.8; stroke-linecap: square"/>
     </g>
     <g id="line2d_6">
      <g>
       <use xlink:href="#m4bee3629f2" x="196.759829" y="288.430125" style="fill: #666666; fill-opacity: 0.015686; stroke: #666666; stroke-opacity: 0.015686; stroke-width: 0.8"/>
      </g>
     </g>
     <g id="text_3">
      <!-- 20000 -->
      <g style="fill: #666666" transform="translate(180.853579 303.028562)scale(0.1 -0.1)">
       <defs>
        <path id="DejaVuSans-32" d="M 1228 531 
L 3431 531 
L 3431 0 
L 469 0 
L 469 531 
Q 828 903 1448 1529 
Q 2069 2156 2228 2338 
Q 2531 2678 2651 2914 
Q 2772 3150 2772 3378 
Q 2772 3750 2511 3984 
Q 2250 4219 1831 4219 
Q 1534 4219 1204 4116 
Q 875 4013 500 3803 
L 500 4441 
Q 881 4594 1212 4672 
Q 1544 4750 1819 4750 
Q 2544 4750 2975 4387 
Q 3406 4025 3406 3419 
Q 3406 3131 3298 2873 
Q 3191 2616 2906 2266 
Q 2828 2175 2409 1742 
Q 1991 1309 1228 531 
z
" transform="scale(0.015625)"/>
       </defs>
       <use xlink:href="#DejaVuSans-32"/>
       <use xlink:href="#DejaVuSans-30" x="63.623047"/>
       <use xlink:href="#DejaVuSans-30" x="127.246094"/>
       <use xlink:href="#DejaVuSans-30" x="190.869141"/>
       <use xlink:href="#DejaVuSans-30" x="254.492188"/>
      </g>
     </g>
    </g>
    <g id="xtick_4">
     <g id="line2d_7">
      <path d="M 261.951505 288.430125 
L 261.951505 22.318125 
" clip-path="url(#p22d4188770)" style="fill: none; stroke: #6f6f6f; stroke-opacity: 0.2; stroke-width: 0.8; stroke-linecap: square"/>
     </g>
     <g id="line2d_8">
      <g>
       <use xlink:href="#m4bee3629f2" x="261.951505" y="288.430125" style="fill: #666666; fill-opacity: 0.015686; stroke: #666666; stroke-opacity: 0.015686; stroke-width: 0.8"/>
      </g>
     </g>
     <g id="text_4">
      <!-- 30000 -->
      <g style="fill: #666666" transform="translate(246.045255 303.028562)scale(0.1 -0.1)">
       <defs>
        <path id="DejaVuSans-33" d="M 2597 2516 
Q 3050 2419 3304 2112 
Q 3559 1806 3559 1356 
Q 3559 666 3084 287 
Q 2609 -91 1734 -91 
Q 1441 -91 1130 -33 
Q 819 25 488 141 
L 488 750 
Q 750 597 1062 519 
Q 1375 441 1716 441 
Q 2309 441 2620 675 
Q 2931 909 2931 1356 
Q 2931 1769 2642 2001 
Q 2353 2234 1838 2234 
L 1294 2234 
L 1294 2753 
L 1863 2753 
Q 2328 2753 2575 2939 
Q 2822 3125 2822 3475 
Q 2822 3834 2567 4026 
Q 2313 4219 1838 4219 
Q 1578 4219 1281 4162 
Q 984 4106 628 3988 
L 628 4550 
Q 988 4650 1302 4700 
Q 1616 4750 1894 4750 
Q 2613 4750 3031 4423 
Q 3450 4097 3450 3541 
Q 3450 3153 3228 2886 
Q 3006 2619 2597 2516 
z
" transform="scale(0.015625)"/>
       </defs>
       <use xlink:href="#DejaVuSans-33"/>
       <use xlink:href="#DejaVuSans-30" x="63.623047"/>
       <use xlink:href="#DejaVuSans-30" x="127.246094"/>
       <use xlink:href="#DejaVuSans-30" x="190.869141"/>
       <use xlink:href="#DejaVuSans-30" x="254.492188"/>
      </g>
     </g>
    </g>
    <g id="xtick_5">
     <g id="line2d_9">
      <path d="M 327.14318 288.430125 
L 327.14318 22.318125 
" clip-path="url(#p22d4188770)" style="fill: none; stroke: #6f6f6f; stroke-opacity: 0.2; stroke-width: 0.8; stroke-linecap: square"/>
     </g>
     <g id="line2d_10">
      <g>
       <use xlink:href="#m4bee3629f2" x="327.14318" y="288.430125" style="fill: #666666; fill-opacity: 0.015686; stroke: #666666; stroke-opacity: 0.015686; stroke-width: 0.8"/>
      </g>
     </g>
     <g id="text_5">
      <!-- 40000 -->
      <g style="fill: #666666" transform="translate(311.23693 303.028562)scale(0.1 -0.1)">
       <defs>
        <path id="DejaVuSans-34" d="M 2419 4116 
L 825 1625 
L 2419 1625 
L 2419 4116 
z
M 2253 4666 
L 3047 4666 
L 3047 1625 
L 3713 1625 
L 3713 1100 
L 3047 1100 
L 3047 0 
L 2419 0 
L 2419 1100 
L 313 1100 
L 313 1709 
L 2253 4666 
z
" transform="scale(0.015625)"/>
       </defs>
       <use xlink:href="#DejaVuSans-34"/>
       <use xlink:href="#DejaVuSans-30" x="63.623047"/>
       <use xlink:href="#DejaVuSans-30" x="127.246094"/>
       <use xlink:href="#DejaVuSans-30" x="190.869141"/>
       <use xlink:href="#DejaVuSans-30" x="254.492188"/>
      </g>
     </g>
    </g>
    <g id="xtick_6">
     <g id="line2d_11">
      <path d="M 392.334856 288.430125 
L 392.334856 22.318125 
" clip-path="url(#p22d4188770)" style="fill: none; stroke: #6f6f6f; stroke-opacity: 0.2; stroke-width: 0.8; stroke-linecap: square"/>
     </g>
     <g id="line2d_12">
      <g>
       <use xlink:href="#m4bee3629f2" x="392.334856" y="288.430125" style="fill: #666666; fill-opacity: 0.015686; stroke: #666666; stroke-opacity: 0.015686; stroke-width: 0.8"/>
      </g>
     </g>
     <g id="text_6">
      <!-- 50000 -->
      <g style="fill: #666666" transform="translate(376.428606 303.028562)scale(0.1 -0.1)">
       <defs>
        <path id="DejaVuSans-35" d="M 691 4666 
L 3169 4666 
L 3169 4134 
L 1269 4134 
L 1269 2991 
Q 1406 3038 1543 3061 
Q 1681 3084 1819 3084 
Q 2600 3084 3056 2656 
Q 3513 2228 3513 1497 
Q 3513 744 3044 326 
Q 2575 -91 1722 -91 
Q 1428 -91 1123 -41 
Q 819 9 494 109 
L 494 744 
Q 775 591 1075 516 
Q 1375 441 1709 441 
Q 2250 441 2565 725 
Q 2881 1009 2881 1497 
Q 2881 1984 2565 2268 
Q 2250 2553 1709 2553 
Q 1456 2553 1204 2497 
Q 953 2441 691 2322 
L 691 4666 
z
" transform="scale(0.015625)"/>
       </defs>
       <use xlink:href="#DejaVuSans-35"/>
       <use xlink:href="#DejaVuSans-30" x="63.623047"/>
       <use xlink:href="#DejaVuSans-30" x="127.246094"/>
       <use xlink:href="#DejaVuSans-30" x="190.869141"/>
       <use xlink:href="#DejaVuSans-30" x="254.492188"/>
      </g>
     </g>
    </g>
    <g id="text_7">
     <!-- MD Step -->
     <g style="fill: #bdbdbd" transform="translate(207.565469 316.706687)scale(0.1 -0.1)">
      <defs>
       <path id="DejaVuSans-4d" d="M 628 4666 
L 1569 4666 
L 2759 1491 
L 3956 4666 
L 4897 4666 
L 4897 0 
L 4281 0 
L 4281 4097 
L 3078 897 
L 2444 897 
L 1241 4097 
L 1241 0 
L 628 0 
L 628 4666 
z
" transform="scale(0.015625)"/>
       <path id="DejaVuSans-44" d="M 1259 4147 
L 1259 519 
L 2022 519 
Q 2988 519 3436 956 
Q 3884 1394 3884 2338 
Q 3884 3275 3436 3711 
Q 2988 4147 2022 4147 
L 1259 4147 
z
M 628 4666 
L 1925 4666 
Q 3281 4666 3915 4102 
Q 4550 3538 4550 2338 
Q 4550 1131 3912 565 
Q 3275 0 1925 0 
L 628 0 
L 628 4666 
z
" transform="scale(0.015625)"/>
       <path id="DejaVuSans-20" transform="scale(0.015625)"/>
       <path id="DejaVuSans-53" d="M 3425 4513 
L 3425 3897 
Q 3066 4069 2747 4153 
Q 2428 4238 2131 4238 
Q 1616 4238 1336 4038 
Q 1056 3838 1056 3469 
Q 1056 3159 1242 3001 
Q 1428 2844 1947 2747 
L 2328 2669 
Q 3034 2534 3370 2195 
Q 3706 1856 3706 1288 
Q 3706 609 3251 259 
Q 2797 -91 1919 -91 
Q 1588 -91 1214 -16 
Q 841 59 441 206 
L 441 856 
Q 825 641 1194 531 
Q 1563 422 1919 422 
Q 2459 422 2753 634 
Q 3047 847 3047 1241 
Q 3047 1584 2836 1778 
Q 2625 1972 2144 2069 
L 1759 2144 
Q 1053 2284 737 2584 
Q 422 2884 422 3419 
Q 422 4038 858 4394 
Q 1294 4750 2059 4750 
Q 2388 4750 2728 4690 
Q 3069 4631 3425 4513 
z
" transform="scale(0.015625)"/>
       <path id="DejaVuSans-74" d="M 1172 4494 
L 1172 3500 
L 2356 3500 
L 2356 3053 
L 1172 3053 
L 1172 1153 
Q 1172 725 1289 603 
Q 1406 481 1766 481 
L 2356 481 
L 2356 0 
L 1766 0 
Q 1100 0 847 248 
Q 594 497 594 1153 
L 594 3053 
L 172 3053 
L 172 3500 
L 594 3500 
L 594 4494 
L 1172 4494 
z
" transform="scale(0.015625)"/>
       <path id="DejaVuSans-65" d="M 3597 1894 
L 3597 1613 
L 953 1613 
Q 991 1019 1311 708 
Q 1631 397 2203 397 
Q 2534 397 2845 478 
Q 3156 559 3463 722 
L 3463 178 
Q 3153 47 2828 -22 
Q 2503 -91 2169 -91 
Q 1331 -91 842 396 
Q 353 884 353 1716 
Q 353 2575 817 3079 
Q 1281 3584 2069 3584 
Q 2775 3584 3186 3129 
Q 3597 2675 3597 1894 
z
M 3022 2063 
Q 3016 2534 2758 2815 
Q 2500 3097 2075 3097 
Q 1594 3097 1305 2825 
Q 1016 2553 972 2059 
L 3022 2063 
z
" transform="scale(0.015625)"/>
       <path id="DejaVuSans-70" d="M 1159 525 
L 1159 -1331 
L 581 -1331 
L 581 3500 
L 1159 3500 
L 1159 2969 
Q 1341 3281 1617 3432 
Q 1894 3584 2278 3584 
Q 2916 3584 3314 3078 
Q 3713 2572 3713 1747 
Q 3713 922 3314 415 
Q 2916 -91 2278 -91 
Q 1894 -91 1617 61 
Q 1341 213 1159 525 
z
M 3116 1747 
Q 3116 2381 2855 2742 
Q 2594 3103 2138 3103 
Q 1681 3103 1420 2742 
Q 1159 2381 1159 1747 
Q 1159 1113 1420 752 
Q 1681 391 2138 391 
Q 2594 391 2855 752 
Q 3116 1113 3116 1747 
z
" transform="scale(0.015625)"/>
      </defs>
      <use xlink:href="#DejaVuSans-4d"/>
      <use xlink:href="#DejaVuSans-44" x="86.279297"/>
      <use xlink:href="#DejaVuSans-20" x="163.28125"/>
      <use xlink:href="#DejaVuSans-53" x="195.068359"/>
      <use xlink:href="#DejaVuSans-74" x="258.544922"/>
      <use xlink:href="#DejaVuSans-65" x="297.753906"/>
      <use xlink:href="#DejaVuSans-70" x="359.277344"/>
     </g>
    </g>
   </g>
   <g id="matplotlib.axis_2">
    <g id="ytick_1">
     <g id="line2d_13">
      <path d="M 50.14375 276.334935 
L 407.26375 276.334935 
" clip-path="url(#p22d4188770)" style="fill: none; stroke: #6f6f6f; stroke-opacity: 0.2; stroke-width: 0.8; stroke-linecap: square"/>
     </g>
     <g id="line2d_14">
      <defs>
       <path id="mc87fda39ee" d="M 0 0 
L -3.5 0 
" style="stroke: #666666; stroke-opacity: 0.015686; stroke-width: 0.8"/>
      </defs>
      <g>
       <use xlink:href="#mc87fda39ee" x="50.14375" y="276.334935" style="fill: #666666; fill-opacity: 0.015686; stroke: #666666; stroke-opacity: 0.015686; stroke-width: 0.8"/>
      </g>
     </g>
     <g id="text_8">
      <!-- 0.00 -->
      <g style="fill: #666666" transform="translate(20.878125 280.134153)scale(0.1 -0.1)">
       <defs>
        <path id="DejaVuSans-2e" d="M 684 794 
L 1344 794 
L 1344 0 
L 684 0 
L 684 794 
z
" transform="scale(0.015625)"/>
       </defs>
       <use xlink:href="#DejaVuSans-30"/>
       <use xlink:href="#DejaVuSans-2e" x="63.623047"/>
       <use xlink:href="#DejaVuSans-30" x="95.410156"/>
       <use xlink:href="#DejaVuSans-30" x="159.033203"/>
      </g>
     </g>
    </g>
    <g id="ytick_2">
     <g id="line2d_15">
      <path d="M 50.14375 238.34001 
L 407.26375 238.34001 
" clip-path="url(#p22d4188770)" style="fill: none; stroke: #6f6f6f; stroke-opacity: 0.2; stroke-width: 0.8; stroke-linecap: square"/>
     </g>
     <g id="line2d_16">
      <g>
       <use xlink:href="#mc87fda39ee" x="50.14375" y="238.34001" style="fill: #666666; fill-opacity: 0.015686; stroke: #666666; stroke-opacity: 0.015686; stroke-width: 0.8"/>
      </g>
     </g>
     <g id="text_9">
      <!-- 0.05 -->
      <g style="fill: #666666" transform="translate(20.878125 242.139229)scale(0.1 -0.1)">
       <use xlink:href="#DejaVuSans-30"/>
       <use xlink:href="#DejaVuSans-2e" x="63.623047"/>
       <use xlink:href="#DejaVuSans-30" x="95.410156"/>
       <use xlink:href="#DejaVuSans-35" x="159.033203"/>
      </g>
     </g>
    </g>
    <g id="ytick_3">
     <g id="line2d_17">
      <path d="M 50.14375 200.345085 
L 407.26375 200.345085 
" clip-path="url(#p22d4188770)" style="fill: none; stroke: #6f6f6f; stroke-opacity: 0.2; stroke-width: 0.8; stroke-linecap: square"/>
     </g>
     <g id="line2d_18">
      <g>
       <use xlink:href="#mc87fda39ee" x="50.14375" y="200.345085" style="fill: #666666; fill-opacity: 0.015686; stroke: #666666; stroke-opacity: 0.015686; stroke-width: 0.8"/>
      </g>
     </g>
     <g id="text_10">
      <!-- 0.10 -->
      <g style="fill: #666666" transform="translate(20.878125 204.144304)scale(0.1 -0.1)">
       <use xlink:href="#DejaVuSans-30"/>
       <use xlink:href="#DejaVuSans-2e" x="63.623047"/>
       <use xlink:href="#DejaVuSans-31" x="95.410156"/>
       <use xlink:href="#DejaVuSans-30" x="159.033203"/>
      </g>
     </g>
    </g>
    <g id="ytick_4">
     <g id="line2d_19">
      <path d="M 50.14375 162.35016 
L 407.26375 162.35016 
" clip-path="url(#p22d4188770)" style="fill: none; stroke: #6f6f6f; stroke-opacity: 0.2; stroke-width: 0.8; stroke-linecap: square"/>
     </g>
     <g id="line2d_20">
      <g>
       <use xlink:href="#mc87fda39ee" x="50.14375" y="162.35016" style="fill: #666666; fill-opacity: 0.015686; stroke: #666666; stroke-opacity: 0.015686; stroke-width: 0.8"/>
      </g>
     </g>
     <g id="text_11">
      <!-- 0.15 -->
      <g style="fill: #666666" transform="translate(20.878125 166.149379)scale(0.1 -0.1)">
       <use xlink:href="#DejaVuSans-30"/>
       <use xlink:href="#DejaVuSans-2e" x="63.623047"/>
       <use xlink:href="#DejaVuSans-31" x="95.410156"/>
       <use xlink:href="#DejaVuSans-35" x="159.033203"/>
      </g>
     </g>
    </g>
    <g id="ytick_5">
     <g id="line2d_21">
      <path d="M 50.14375 124.355236 
L 407.26375 124.355236 
" clip-path="url(#p22d4188770)" style="fill: none; stroke: #6f6f6f; stroke-opacity: 0.2; stroke-width: 0.8; stroke-linecap: square"/>
     </g>
     <g id="line2d_22">
      <g>
       <use xlink:href="#mc87fda39ee" x="50.14375" y="124.355236" style="fill: #666666; fill-opacity: 0.015686; stroke: #666666; stroke-opacity: 0.015686; stroke-width: 0.8"/>
      </g>
     </g>
     <g id="text_12">
      <!-- 0.20 -->
      <g style="fill: #666666" transform="translate(20.878125 128.154455)scale(0.1 -0.1)">
       <use xlink:href="#DejaVuSans-30"/>
       <use xlink:href="#DejaVuSans-2e" x="63.623047"/>
       <use xlink:href="#DejaVuSans-32" x="95.410156"/>
       <use xlink:href="#DejaVuSans-30" x="159.033203"/>
      </g>
     </g>
    </g>
    <g id="ytick_6">
     <g id="line2d_23">
      <path d="M 50.14375 86.360311 
L 407.26375 86.360311 
" clip-path="url(#p22d4188770)" style="fill: none; stroke: #6f6f6f; stroke-opacity: 0.2; stroke-width: 0.8; stroke-linecap: square"/>
     </g>
     <g id="line2d_24">
      <g>
       <use xlink:href="#mc87fda39ee" x="50.14375" y="86.360311" style="fill: #666666; fill-opacity: 0.015686; stroke: #666666; stroke-opacity: 0.015686; stroke-width: 0.8"/>
      </g>
     </g>
     <g id="text_13">
      <!-- 0.25 -->
      <g style="fill: #666666" transform="translate(20.878125 90.15953)scale(0.1 -0.1)">
       <use xlink:href="#DejaVuSans-30"/>
       <use xlink:href="#DejaVuSans-2e" x="63.623047"/>
       <use xlink:href="#DejaVuSans-32" x="95.410156"/>
       <use xlink:href="#DejaVuSans-35" x="159.033203"/>
      </g>
     </g>
    </g>
    <g id="ytick_7">
     <g id="line2d_25">
      <path d="M 50.14375 48.365386 
L 407.26375 48.365386 
" clip-path="url(#p22d4188770)" style="fill: none; stroke: #6f6f6f; stroke-opacity: 0.2; stroke-width: 0.8; stroke-linecap: square"/>
     </g>
     <g id="line2d_26">
      <g>
       <use xlink:href="#mc87fda39ee" x="50.14375" y="48.365386" style="fill: #666666; fill-opacity: 0.015686; stroke: #666666; stroke-opacity: 0.015686; stroke-width: 0.8"/>
      </g>
     </g>
     <g id="text_14">
      <!-- 0.30 -->
      <g style="fill: #666666" transform="translate(20.878125 52.164605)scale(0.1 -0.1)">
       <use xlink:href="#DejaVuSans-30"/>
       <use xlink:href="#DejaVuSans-2e" x="63.623047"/>
       <use xlink:href="#DejaVuSans-33" x="95.410156"/>
       <use xlink:href="#DejaVuSans-30" x="159.033203"/>
      </g>
     </g>
    </g>
    <g id="text_15">
     <!-- dQint -->
     <g style="fill: #bdbdbd" transform="translate(14.798438 169.00225)rotate(-90)scale(0.1 -0.1)">
      <defs>
       <path id="DejaVuSans-64" d="M 2906 2969 
L 2906 4863 
L 3481 4863 
L 3481 0 
L 2906 0 
L 2906 525 
Q 2725 213 2448 61 
Q 2172 -91 1784 -91 
Q 1150 -91 751 415 
Q 353 922 353 1747 
Q 353 2572 751 3078 
Q 1150 3584 1784 3584 
Q 2172 3584 2448 3432 
Q 2725 3281 2906 2969 
z
M 947 1747 
Q 947 1113 1208 752 
Q 1469 391 1925 391 
Q 2381 391 2643 752 
Q 2906 1113 2906 1747 
Q 2906 2381 2643 2742 
Q 2381 3103 1925 3103 
Q 1469 3103 1208 2742 
Q 947 2381 947 1747 
z
" transform="scale(0.015625)"/>
       <path id="DejaVuSans-51" d="M 2522 4238 
Q 1834 4238 1429 3725 
Q 1025 3213 1025 2328 
Q 1025 1447 1429 934 
Q 1834 422 2522 422 
Q 3209 422 3611 934 
Q 4013 1447 4013 2328 
Q 4013 3213 3611 3725 
Q 3209 4238 2522 4238 
z
M 3406 84 
L 4238 -825 
L 3475 -825 
L 2784 -78 
Q 2681 -84 2626 -87 
Q 2572 -91 2522 -91 
Q 1538 -91 948 567 
Q 359 1225 359 2328 
Q 359 3434 948 4092 
Q 1538 4750 2522 4750 
Q 3503 4750 4090 4092 
Q 4678 3434 4678 2328 
Q 4678 1516 4351 937 
Q 4025 359 3406 84 
z
" transform="scale(0.015625)"/>
       <path id="DejaVuSans-69" d="M 603 3500 
L 1178 3500 
L 1178 0 
L 603 0 
L 603 3500 
z
M 603 4863 
L 1178 4863 
L 1178 4134 
L 603 4134 
L 603 4863 
z
" transform="scale(0.015625)"/>
       <path id="DejaVuSans-6e" d="M 3513 2113 
L 3513 0 
L 2938 0 
L 2938 2094 
Q 2938 2591 2744 2837 
Q 2550 3084 2163 3084 
Q 1697 3084 1428 2787 
Q 1159 2491 1159 1978 
L 1159 0 
L 581 0 
L 581 3500 
L 1159 3500 
L 1159 2956 
Q 1366 3272 1645 3428 
Q 1925 3584 2291 3584 
Q 2894 3584 3203 3211 
Q 3513 2838 3513 2113 
z
" transform="scale(0.015625)"/>
      </defs>
      <use xlink:href="#DejaVuSans-64"/>
      <use xlink:href="#DejaVuSans-51" x="63.476562"/>
      <use xlink:href="#DejaVuSans-69" x="142.1875"/>
      <use xlink:href="#DejaVuSans-6e" x="169.970703"/>
      <use xlink:href="#DejaVuSans-74" x="233.349609"/>
     </g>
    </g>
   </g>
   <g id="line2d_27">
    <path d="M 66.376477 34.414125 
L 67.028394 44.061274 
L 67.680311 103.428321 
L 68.332228 136.080187 
L 68.984144 158.342838 
L 69.636061 165.021611 
L 70.939895 153.890285 
L 71.591811 165.021611 
L 72.243728 166.505787 
L 72.895645 153.890296 
L 73.547562 184.315903 
L 74.199478 168.732064 
L 74.851395 168.732064 
L 75.503312 166.505787 
L 76.155229 167.247898 
L 76.807145 169.474141 
L 77.459062 177.637113 
L 78.110979 174.66876 
L 78.762896 179.863378 
L 79.414812 169.474141 
L 80.066729 167.989975 
L 80.718646 167.989975 
L 81.370563 170.216229 
L 82.022479 183.57382 
L 82.674396 181.347555 
L 83.326313 181.347555 
L 83.97823 170.958318 
L 84.630146 163.537434 
L 85.282063 159.084904 
L 85.93398 167.247876 
L 86.585897 173.184571 
L 87.237814 167.989964 
L 87.88973 167.247876 
L 88.541647 183.573809 
L 89.193564 159.826992 
L 89.845481 175.410848 
L 90.497397 165.021611 
L 91.801231 182.089643 
L 92.453148 147.953567 
L 93.756981 178.379201 
L 94.408898 187.284251 
L 95.060815 166.505787 
L 95.712731 170.958318 
L 96.364648 150.921932 
L 97.016565 159.826992 
L 97.668482 171.700395 
L 98.320398 165.76371 
L 98.972315 153.148197 
L 99.624232 180.605466 
L 100.276149 162.053257 
L 100.928065 168.732053 
L 101.579982 170.216218 
L 102.231899 176.152936 
L 102.883816 173.184583 
L 103.535732 154.632373 
L 104.839566 174.66876 
L 105.491483 167.989964 
L 106.1434 162.795334 
L 106.795316 172.442472 
L 107.447233 160.56908 
L 108.09915 169.474141 
L 108.751067 172.442494 
L 109.402983 151.664031 
L 110.0549 166.505776 
L 110.706817 174.668782 
L 111.358734 161.311169 
L 112.01065 159.084904 
L 112.662567 159.084904 
L 113.314484 173.18456 
L 113.966401 165.021611 
L 114.618317 171.700395 
L 115.270234 174.66876 
L 115.922151 168.732064 
L 116.574068 168.732053 
L 117.225984 160.56908 
L 117.877901 172.442494 
L 118.529818 147.953567 
L 119.181735 180.605466 
L 119.833651 174.66876 
L 120.485568 162.053235 
L 121.137485 167.989964 
L 121.789402 190.994704 
L 122.441318 176.895025 
L 123.093235 174.66876 
L 123.745152 153.148197 
L 124.397069 169.474141 
L 125.048985 171.700406 
L 125.700902 179.12129 
L 126.352819 159.826981 
L 127.004736 186.542162 
L 127.656653 171.700417 
L 128.308569 178.379201 
L 128.960486 177.637136 
L 129.612403 165.021611 
L 130.26432 188.768433 
L 130.916236 161.311157 
L 131.568153 174.66876 
L 132.22007 174.668737 
L 132.871987 165.763699 
L 133.523903 178.379201 
L 134.17582 162.053257 
L 134.827737 177.637102 
L 135.479654 173.184583 
L 136.13157 159.826992 
L 136.783487 192.478875 
L 137.435404 150.92192 
L 138.087321 177.637113 
L 138.739237 177.637113 
L 139.391154 172.442494 
L 140.043071 176.152948 
L 140.694988 189.510527 
L 141.346904 162.053257 
L 141.998821 159.826992 
L 142.650738 166.505776 
L 143.302655 157.600716 
L 143.954571 165.021599 
L 144.606488 165.763699 
L 145.258405 165.021611 
L 145.910322 159.084915 
L 146.562238 151.66402 
L 147.214155 170.958318 
L 147.866072 182.089643 
L 148.517989 170.958318 
L 149.169906 150.921943 
L 149.821822 164.279534 
L 150.473739 147.21149 
L 151.125656 160.56908 
L 151.777573 170.958306 
L 152.429489 166.505787 
L 153.081406 176.895025 
L 153.733323 169.474141 
L 154.38524 170.216218 
L 155.689073 160.56908 
L 156.34099 167.989953 
L 156.992907 151.664043 
L 157.644823 174.668748 
L 158.29674 174.66876 
L 158.948657 162.795346 
L 159.600574 171.700395 
L 160.25249 136.822252 
L 160.904407 165.021611 
L 161.556324 169.474141 
L 162.208241 169.474141 
L 162.860157 162.795346 
L 163.512074 159.084904 
L 164.163991 186.542168 
L 164.815908 162.795368 
L 165.467824 163.537434 
L 166.119741 167.247887 
L 166.771658 160.56908 
L 167.423575 185.057997 
L 168.727408 162.795346 
L 169.379325 180.605466 
L 170.031242 158.342815 
L 170.683159 172.442483 
L 171.335075 176.895036 
L 171.986992 159.827015 
L 172.638909 168.732041 
L 173.290826 183.573814 
L 173.942742 169.474141 
L 174.594659 164.279522 
L 175.246576 177.637113 
L 175.898493 178.379213 
L 176.550409 161.311169 
L 177.202326 162.053257 
L 177.854243 161.311169 
L 178.50616 175.410848 
L 179.158076 161.311169 
L 179.809993 177.637113 
L 180.46191 170.216229 
L 181.113827 166.505787 
L 181.765743 177.637113 
L 182.41766 162.795346 
L 183.069577 169.474141 
L 183.721494 159.084904 
L 184.37341 190.25261 
L 185.025327 172.442506 
L 185.677244 176.152925 
L 186.329161 185.057991 
L 186.981077 172.442494 
L 187.632994 162.795346 
L 188.284911 170.216229 
L 188.936828 183.573809 
L 189.588745 169.47413 
L 190.240661 167.989964 
L 190.892578 177.637113 
L 191.544495 175.410848 
L 192.196412 173.926671 
L 192.848328 180.605455 
L 193.500245 177.637124 
L 194.152162 178.379213 
L 194.804079 151.66402 
L 196.107912 173.184583 
L 196.759829 176.895013 
L 197.411746 160.56908 
L 198.063662 169.474141 
L 198.715579 160.569058 
L 199.367496 166.505787 
L 200.019413 169.474141 
L 200.671329 176.152936 
L 201.323246 174.668748 
L 201.975163 156.11655 
L 202.62708 165.763688 
L 203.278996 170.958318 
L 203.930913 165.021611 
L 205.234747 177.637136 
L 205.886663 154.632373 
L 206.53858 174.66876 
L 207.190497 169.474141 
L 207.842414 182.089643 
L 208.494331 155.374462 
L 209.146247 162.05328 
L 209.798164 182.831732 
L 210.450081 172.442472 
L 211.101998 172.442494 
L 211.753914 163.537434 
L 212.405831 167.247876 
L 213.057748 175.410848 
L 213.709665 165.763676 
L 214.361581 184.315897 
L 215.013498 176.152936 
L 216.317332 174.66876 
L 216.969248 179.121267 
L 217.621165 159.084915 
L 218.273082 187.284256 
L 218.924999 166.505765 
L 219.576915 160.56908 
L 220.228832 159.827003 
L 220.880749 168.732053 
L 221.532666 181.347555 
L 222.184582 154.632373 
L 222.836499 168.732053 
L 223.488416 165.763699 
L 224.140333 168.732053 
L 224.792249 165.763699 
L 225.444166 174.66876 
L 226.096083 154.632373 
L 226.748 176.152936 
L 227.399916 169.474141 
L 228.051833 169.474141 
L 228.70375 185.800074 
L 229.355667 168.732053 
L 230.007584 168.732053 
L 230.6595 166.505776 
L 231.311417 156.11655 
L 231.963334 168.732053 
L 232.615251 173.184571 
L 233.267167 152.406108 
L 233.919084 142.758959 
L 234.571001 161.311146 
L 235.222918 156.116562 
L 235.874834 170.216229 
L 236.526751 154.632385 
L 237.830585 175.410848 
L 238.482501 177.637113 
L 239.134418 173.18456 
L 239.786335 159.084904 
L 240.438252 159.084904 
L 241.090168 144.985225 
L 242.394002 170.958306 
L 243.045919 172.442494 
L 243.697835 176.152936 
L 244.349752 167.989975 
L 245.001669 166.505787 
L 245.653586 165.763699 
L 246.305502 167.989975 
L 246.957419 183.573809 
L 247.609336 163.537423 
L 248.261253 153.890285 
L 248.913169 154.632373 
L 249.565086 174.668737 
L 250.217003 161.311169 
L 250.86892 169.474141 
L 251.520837 164.279522 
L 252.172753 169.474141 
L 252.82467 185.058002 
L 253.476587 166.505787 
L 254.128504 171.700406 
L 254.78042 171.700383 
L 255.432337 182.831726 
L 256.084254 182.83172 
L 256.736171 165.021611 
L 257.388087 183.57382 
L 258.040004 161.311169 
L 258.691921 150.92192 
L 259.343838 179.121267 
L 259.995754 159.084904 
L 260.647671 167.247876 
L 261.299588 167.247876 
L 261.951505 169.474141 
L 262.603421 162.795346 
L 263.255338 148.695666 
L 263.907255 179.12129 
L 264.559172 172.442494 
L 265.211088 161.311169 
L 265.863005 188.768422 
L 266.514922 171.700406 
L 267.166839 159.084904 
L 267.818755 166.505799 
L 268.470672 175.410837 
L 269.122589 167.989964 
L 269.774506 174.668771 
L 270.426423 188.02635 
L 271.078339 194.705134 
L 271.730256 165.021599 
L 272.382173 170.958306 
L 273.03409 160.56908 
L 273.686006 170.216229 
L 274.337923 176.152936 
L 274.98984 183.573809 
L 275.641757 169.474141 
L 276.293673 159.084904 
L 276.94559 176.895025 
L 277.597507 162.053257 
L 278.249424 167.989975 
L 278.90134 169.474141 
L 279.553257 171.700383 
L 280.205174 165.021611 
L 280.857091 176.895025 
L 281.509007 176.152936 
L 282.160924 169.474141 
L 282.812841 153.148197 
L 284.116674 180.605466 
L 284.768591 185.058002 
L 285.420508 161.311157 
L 286.072425 143.501037 
L 286.724341 174.66876 
L 287.376258 159.084904 
L 288.028175 175.410848 
L 288.680092 166.505787 
L 289.332008 165.763688 
L 289.983925 140.532706 
L 290.635842 170.958306 
L 291.287759 173.926671 
L 291.939676 180.605466 
L 292.591592 173.184571 
L 293.243509 148.695666 
L 293.895426 184.315908 
L 294.547343 170.958318 
L 295.199259 181.347555 
L 295.851176 172.442494 
L 296.503093 182.089643 
L 297.15501 165.021611 
L 297.806926 163.537434 
L 298.458843 172.442506 
L 299.11076 167.989975 
L 299.762677 172.442506 
L 300.414593 164.279522 
L 301.06651 150.92192 
L 301.718427 147.21149 
L 302.370344 150.921909 
L 303.02226 157.600704 
L 303.674177 172.442494 
L 304.326094 167.247876 
L 305.629927 178.379201 
L 306.281844 164.279522 
L 306.933761 154.632373 
L 307.585678 173.184571 
L 308.237594 163.537434 
L 308.889511 149.437755 
L 309.541428 161.311157 
L 310.193345 170.216229 
L 310.845262 153.148174 
L 311.497178 160.56908 
L 312.149095 177.637102 
L 312.801012 174.66876 
L 313.452929 183.573809 
L 314.104845 176.152948 
L 314.756762 185.800085 
L 315.408679 161.311191 
L 316.060596 180.605466 
L 316.712512 192.478875 
L 317.364429 168.732053 
L 318.016346 162.795323 
L 318.668263 179.863378 
L 319.320179 182.831732 
L 319.972096 176.895025 
L 320.624013 180.605466 
L 321.27593 154.632373 
L 321.927846 185.800085 
L 322.579763 166.505787 
L 323.883597 177.637102 
L 324.535513 173.184583 
L 325.839347 179.121278 
L 326.491264 150.921932 
L 327.14318 173.184571 
L 327.795097 167.247876 
L 328.447014 170.958318 
L 329.098931 165.763688 
L 329.750847 158.342815 
L 330.402764 157.600727 
L 331.054681 162.053257 
L 331.706598 150.179843 
L 332.358515 177.637102 
L 333.010431 173.92666 
L 333.662348 161.311169 
L 334.314265 171.700406 
L 334.966182 147.211467 
L 335.618098 165.763699 
L 336.270015 177.637113 
L 336.921932 167.989964 
L 337.573849 167.247876 
L 338.225765 189.510521 
L 338.877682 171.700395 
L 339.529599 171.700395 
L 340.181516 158.342815 
L 340.833432 170.958318 
L 341.485349 165.76371 
L 342.789183 168.732053 
L 343.441099 178.379201 
L 344.093016 167.247876 
L 344.744933 173.18456 
L 345.39685 169.474141 
L 346.048766 172.442483 
L 346.700683 159.827003 
L 347.3526 154.632373 
L 348.004517 165.021611 
L 348.656433 163.537434 
L 349.30835 181.347555 
L 349.960267 165.763676 
L 350.612184 166.505787 
L 351.2641 163.537434 
L 351.916017 184.31592 
L 352.567934 159.826992 
L 353.219851 165.763676 
L 353.871768 175.410837 
L 354.523684 176.895025 
L 355.175601 155.374462 
L 355.827518 179.863378 
L 356.479435 166.505787 
L 357.131351 142.016871 
L 357.783268 156.116562 
L 358.435185 176.152936 
L 359.087102 174.66876 
L 359.739018 161.311157 
L 360.390935 165.021611 
L 361.042852 166.505799 
L 361.694769 155.374462 
L 362.998602 185.800091 
L 363.650519 167.989975 
L 364.302436 166.505787 
L 364.954352 153.148197 
L 365.606269 165.763699 
L 366.258186 149.437755 
L 366.910103 177.637113 
L 367.562019 172.442494 
L 368.213936 163.537434 
L 368.865853 131.627634 
L 369.51777 173.926682 
L 370.169686 170.958329 
L 370.821603 173.926671 
L 371.47352 196.931416 
L 372.125437 162.053257 
L 372.777354 170.958295 
L 373.42927 168.732053 
L 374.081187 178.379201 
L 374.733104 172.442483 
L 375.385021 175.410848 
L 376.036937 173.926671 
L 376.688854 162.795346 
L 377.340771 162.053257 
L 377.992688 176.895025 
L 378.644604 165.021622 
L 379.296521 167.989964 
L 379.948438 167.989942 
L 380.600355 165.76371 
L 381.252271 170.958318 
L 381.904188 170.958306 
L 382.556105 170.216229 
L 383.208022 165.021611 
L 383.859938 176.895025 
L 384.511855 156.11655 
L 385.163772 179.12129 
L 385.815689 161.311169 
L 386.467605 156.85865 
L 387.119522 174.668748 
L 387.771439 160.569069 
L 388.423356 156.85865 
L 389.075272 173.926671 
L 389.727189 170.958318 
L 390.379106 167.247876 
L 391.031023 170.958306 
L 391.031023 170.958306 
" clip-path="url(#p22d4188770)" style="fill: none; stroke: #007dff; stroke-width: 2; stroke-linecap: square"/>
   </g>
   <g id="line2d_28">
    <path d="M 66.376477 260.750614 
L 67.028394 274.850282 
L 67.680311 270.397748 
L 68.332228 271.139822 
L 68.984144 274.850241 
L 69.636061 273.366003 
L 70.287978 274.850241 
L 70.939895 274.850178 
L 71.591811 273.365956 
L 72.243728 273.365929 
L 72.895645 272.623822 
L 73.547562 274.850082 
L 74.851395 273.365895 
L 75.503312 274.850028 
L 76.155229 272.62376 
L 76.807145 272.623713 
L 77.459062 274.849987 
L 78.110979 274.849958 
L 78.762896 276.334125 
L 80.066729 271.881586 
L 81.370563 276.334005 
L 82.022479 273.365658 
L 82.674396 275.591958 
L 83.326313 271.881472 
L 83.97823 274.849828 
L 84.630146 274.849801 
L 85.93398 273.365623 
L 86.585897 271.13938 
L 87.237814 270.397162 
L 87.88973 274.849781 
L 88.541647 274.849781 
L 89.193564 274.107613 
L 89.845481 275.591786 
L 90.497397 271.139223 
L 91.149314 274.849587 
L 91.801231 273.365493 
L 92.453148 273.365394 
L 93.105064 275.591737 
L 93.756981 272.623311 
L 94.408898 274.107578 
L 95.060815 274.107418 
L 95.712731 272.623349 
L 96.364648 274.849528 
L 97.016565 274.849604 
L 97.668482 273.365334 
L 98.320398 274.10744 
L 98.972315 275.591516 
L 99.624232 273.365419 
L 100.276149 273.365253 
L 100.928065 274.10741 
L 102.231899 274.107428 
L 102.883816 272.623133 
L 103.535732 272.623233 
L 104.187649 274.107375 
L 104.839566 272.623172 
L 105.491483 275.591486 
L 106.1434 273.365256 
L 106.795316 273.365297 
L 107.447233 275.591464 
L 108.09915 274.849393 
L 108.751067 276.333367 
L 109.402983 271.880997 
L 110.0549 274.107205 
L 110.706817 275.591429 
L 111.358734 274.107217 
L 112.01065 273.365163 
L 112.662567 273.365193 
L 113.314484 275.591377 
L 113.966401 275.591334 
L 115.270234 272.622972 
L 115.922151 271.880847 
L 116.574068 274.849251 
L 117.225984 272.62299 
L 117.877901 271.880784 
L 118.529818 274.107066 
L 119.181735 274.10707 
L 119.833651 272.622845 
L 120.485568 274.107103 
L 121.137485 273.364966 
L 121.789402 271.138661 
L 122.441318 274.849155 
L 123.093235 271.880697 
L 123.745152 274.849102 
L 124.397069 272.6229 
L 125.048985 274.10709 
L 125.700902 272.622809 
L 127.004736 274.107019 
L 127.656653 275.591191 
L 128.308569 272.622698 
L 128.960486 274.107014 
L 129.612403 273.364771 
L 130.916236 274.849043 
L 131.568153 274.849049 
L 132.22007 272.622849 
L 132.871987 272.622792 
L 134.17582 275.591098 
L 134.827737 274.106888 
L 135.479654 274.84894 
L 136.13157 274.106793 
L 137.435404 271.138437 
L 138.087321 271.880621 
L 138.739237 274.106878 
L 139.391154 274.849028 
L 140.043071 274.106811 
L 140.694988 274.106801 
L 141.346904 275.591162 
L 141.998821 274.106744 
L 143.302655 275.590907 
L 143.954571 275.591134 
L 144.606488 272.622787 
L 145.258405 274.106868 
L 145.910322 274.848944 
L 146.562238 274.106703 
L 147.866072 275.590707 
L 148.517989 274.106873 
L 149.169906 275.590875 
L 149.821822 274.106725 
L 150.473739 274.848912 
L 151.125656 274.106647 
L 151.777573 274.848606 
L 152.429489 274.84885 
L 153.081406 271.13833 
L 153.733323 274.848851 
L 154.38524 274.106638 
L 155.037156 276.332933 
L 155.689073 271.88033 
L 156.34099 275.590863 
L 157.644823 274.106482 
L 158.948657 275.591007 
L 159.600574 274.848723 
L 160.25249 270.396055 
L 160.904407 275.590789 
L 161.556324 272.622314 
L 162.208241 272.622474 
L 162.860157 273.364283 
L 163.512074 273.364502 
L 164.163991 274.106578 
L 164.815908 273.364415 
L 165.467824 273.364407 
L 166.119741 275.590731 
L 166.771658 275.590724 
L 167.423575 273.364275 
L 168.075492 274.106636 
L 168.727408 275.5908 
L 169.379325 275.590647 
L 170.031242 274.848811 
L 170.683159 272.622298 
L 171.335075 274.848492 
L 171.986992 273.364414 
L 172.638909 275.590674 
L 173.290826 276.332659 
L 173.942742 274.848748 
L 174.594659 274.848528 
L 175.246576 275.590688 
L 175.898493 273.36438 
L 176.550409 274.106375 
L 178.50616 274.106528 
L 179.158076 273.364307 
L 179.809993 274.848463 
L 180.46191 273.364409 
L 181.113827 272.622338 
L 181.765743 274.848549 
L 182.41766 272.622214 
L 183.069577 271.879995 
L 183.721494 274.106264 
L 184.37341 275.590548 
L 185.025327 273.364229 
L 185.677244 274.848527 
L 186.981077 274.848364 
L 187.632994 276.332772 
L 188.284911 274.848407 
L 188.936828 276.332525 
L 189.588745 274.84845 
L 190.240661 274.106469 
L 190.892578 276.332744 
L 191.544495 273.364135 
L 192.196412 275.590464 
L 192.848328 274.106262 
L 193.500245 273.36422 
L 194.152162 273.364163 
L 194.804079 274.848394 
L 195.455995 272.622154 
L 196.107912 274.848291 
L 196.759829 274.848207 
L 197.411746 274.106308 
L 198.063662 274.848344 
L 199.367496 274.848429 
L 200.019413 275.590468 
L 201.323246 274.106088 
L 202.62708 275.590526 
L 203.278996 274.106202 
L 203.930913 274.106164 
L 204.58283 274.848252 
L 205.234747 273.364071 
L 205.886663 275.590415 
L 206.53858 274.84847 
L 207.190497 275.590278 
L 207.842414 274.106056 
L 208.494331 273.364176 
L 209.146247 275.590237 
L 209.798164 276.332497 
L 211.101998 271.879827 
L 211.753914 274.106167 
L 212.405831 274.848207 
L 213.057748 272.621956 
L 213.709665 274.848193 
L 214.361581 272.621959 
L 215.013498 275.590211 
L 215.665415 274.106231 
L 216.317332 274.105952 
L 216.969248 273.363866 
L 217.621165 274.84803 
L 218.273082 274.106257 
L 218.924999 276.332111 
L 220.228832 274.848074 
L 220.880749 271.87971 
L 221.532666 273.364058 
L 222.184582 276.332377 
L 222.836499 271.137791 
L 223.488416 274.106149 
L 224.140333 273.364062 
L 224.792249 274.848139 
L 225.444166 273.363875 
L 227.399916 275.590013 
L 228.051833 272.621894 
L 228.70375 275.589983 
L 229.355667 275.590085 
L 230.007584 274.847987 
L 230.6595 274.848107 
L 231.311417 275.590136 
L 231.963334 274.10609 
L 232.615251 273.363967 
L 233.919084 273.363618 
L 234.571001 275.590146 
L 235.222918 274.105882 
L 235.874834 275.590026 
L 236.526751 274.105843 
L 237.178668 274.847995 
L 237.830585 272.621714 
L 238.482501 272.621748 
L 239.134418 274.105831 
L 239.786335 274.847964 
L 240.438252 274.847979 
L 241.090168 271.879625 
L 241.742085 275.59002 
L 242.394002 275.590097 
L 243.045919 273.363763 
L 243.697835 275.590362 
L 244.349752 274.105817 
L 245.653586 275.589965 
L 246.305502 275.590175 
L 246.957419 274.847948 
L 247.609336 274.847857 
L 248.261253 274.106008 
L 248.913169 275.590279 
L 249.565086 276.332072 
L 250.217003 274.105818 
L 250.86892 275.59003 
L 252.172753 272.621718 
L 252.82467 274.847725 
L 253.476587 271.879495 
L 254.128504 274.847996 
L 254.78042 273.36365 
L 255.432337 273.363781 
L 256.084254 275.590076 
L 256.736171 274.847861 
L 257.388087 275.589838 
L 258.040004 274.847579 
L 258.691921 275.590089 
L 259.995754 272.621596 
L 260.647671 274.847983 
L 261.299588 274.105644 
L 261.951505 275.589806 
L 262.603421 274.847844 
L 263.255338 273.363542 
L 263.907255 273.363495 
L 264.559172 274.847906 
L 265.211088 275.589821 
L 265.863005 275.589844 
L 266.514922 273.3635 
L 267.166839 275.589887 
L 267.818755 274.105601 
L 268.470672 273.363564 
L 269.122589 275.589595 
L 269.774506 273.363668 
L 271.078339 274.847633 
L 271.730256 272.621435 
L 272.382173 274.105799 
L 273.03409 274.105646 
L 273.686006 274.847778 
L 274.337923 272.621575 
L 274.98984 274.105592 
L 275.641757 274.105623 
L 276.293673 273.363563 
L 276.94559 274.847665 
L 277.597507 273.363527 
L 278.249424 275.589837 
L 278.90134 274.105807 
L 279.553257 270.395007 
L 280.205174 274.105875 
L 280.857091 274.84769 
L 281.509007 273.36363 
L 282.160924 275.589817 
L 282.812841 272.621723 
L 284.116674 275.589428 
L 284.768591 271.879221 
L 285.420508 274.10563 
L 286.072425 274.847584 
L 286.724341 272.621224 
L 287.376258 274.847701 
L 288.028175 274.847381 
L 288.680092 271.879222 
L 289.332008 272.621372 
L 289.983925 274.847772 
L 290.635842 273.363303 
L 291.287759 274.847506 
L 291.939676 273.363307 
L 292.591592 274.105664 
L 293.243509 275.589589 
L 293.895426 274.105399 
L 294.547343 274.847657 
L 295.851176 273.363402 
L 297.15501 274.847532 
L 297.806926 273.363134 
L 298.458843 273.363415 
L 299.11076 274.847602 
L 299.762677 274.847274 
L 300.414593 273.36355 
L 301.06651 275.589564 
L 301.718427 273.36344 
L 302.370344 275.589606 
L 303.02226 274.105544 
L 303.674177 275.589798 
L 304.978011 275.589334 
L 305.629927 271.879146 
L 306.281844 275.589619 
L 306.933761 273.363547 
L 307.585678 274.105454 
L 308.237594 275.589652 
L 310.193345 275.589551 
L 310.845262 274.105313 
L 311.497178 274.847438 
L 312.149095 274.847439 
L 312.801012 274.105163 
L 313.452929 274.84729 
L 314.104845 272.621158 
L 314.756762 273.363243 
L 316.060596 271.879241 
L 316.712512 274.847565 
L 317.364429 274.105227 
L 318.016346 274.105349 
L 318.668263 273.363337 
L 319.320179 274.105578 
L 319.972096 274.105178 
L 321.27593 271.137073 
L 321.927846 273.363121 
L 322.579763 274.847299 
L 323.23168 273.363312 
L 323.883597 272.620987 
L 324.535513 273.36324 
L 325.18743 275.589346 
L 325.839347 272.621048 
L 326.491264 274.105453 
L 327.14318 273.363142 
L 327.795097 274.847252 
L 328.447014 275.589464 
L 329.098931 275.58924 
L 329.750847 274.105169 
L 330.402764 274.847233 
L 331.054681 273.363205 
L 331.706598 274.105051 
L 332.358515 275.589317 
L 333.010431 273.363112 
L 333.662348 274.105376 
L 334.314265 273.363074 
L 334.966182 274.847216 
L 335.618098 272.621023 
L 336.270015 274.847283 
L 336.921932 272.620956 
L 337.573849 274.105216 
L 338.225765 274.10523 
L 338.877682 271.136651 
L 339.529599 274.847355 
L 340.181516 274.105207 
L 341.485349 275.589393 
L 342.137266 274.847244 
L 342.789183 272.620906 
L 343.441099 274.847272 
L 344.744933 276.331296 
L 345.39685 273.363281 
L 346.048766 274.105235 
L 346.700683 273.363139 
L 347.3526 275.589061 
L 348.004517 274.105185 
L 348.656433 275.589223 
L 349.30835 274.847228 
L 350.612184 276.331101 
L 351.916017 274.847154 
L 352.567934 273.362942 
L 353.219851 274.105077 
L 353.871768 274.105291 
L 354.523684 271.878858 
L 355.175601 271.878796 
L 355.827518 273.363019 
L 356.479435 275.589216 
L 357.131351 274.847162 
L 357.783268 276.331229 
L 358.435185 274.847129 
L 359.087102 269.652292 
L 359.739018 273.363052 
L 360.390935 272.620935 
L 361.042852 274.10495 
L 361.694769 276.331256 
L 362.346685 276.331123 
L 362.998602 273.362761 
L 363.650519 274.84707 
L 364.302436 273.362644 
L 364.954352 274.105024 
L 365.606269 274.105098 
L 366.258186 272.62088 
L 366.910103 275.589166 
L 367.562019 276.331335 
L 368.213936 275.589366 
L 368.865853 271.878677 
L 369.51777 273.362761 
L 370.169686 275.589314 
L 370.821603 274.105117 
L 371.47352 275.589244 
L 372.125437 274.10512 
L 372.777354 273.362721 
L 373.42927 275.58911 
L 374.081187 274.105189 
L 375.385021 272.620938 
L 376.036937 274.84715 
L 376.688854 270.39469 
L 377.340771 274.847251 
L 377.992688 274.104998 
L 378.644604 275.588795 
L 379.948438 275.589062 
L 380.600355 274.105054 
L 381.904188 275.589008 
L 382.556105 274.10498 
L 383.208022 273.36293 
L 383.859938 273.362576 
L 384.511855 276.331277 
L 385.163772 274.847069 
L 385.815689 271.136496 
L 386.467605 271.878373 
L 387.119522 275.589102 
L 387.771439 275.589088 
L 388.423356 274.84701 
L 389.075272 272.620719 
L 389.727189 274.847098 
L 390.379106 274.846727 
L 391.031023 274.104992 
L 391.031023 274.104992 
" clip-path="url(#p22d4188770)" style="fill: none; stroke-dasharray: 1.5,2.475; stroke-dashoffset: 0; stroke: #007dff; stroke-width: 1.5"/>
   </g>
   <g id="patch_3">
    <path d="M 50.14375 288.430125 
L 50.14375 22.318125 
" style="fill: none"/>
   </g>
   <g id="patch_4">
    <path d="M 407.26375 288.430125 
L 407.26375 22.318125 
" style="fill: none"/>
   </g>
   <g id="patch_5">
    <path d="M 50.14375 288.430125 
L 407.26375 288.430125 
" style="fill: none"/>
   </g>
   <g id="patch_6">
    <path d="M 50.14375 22.318125 
L 407.26375 22.318125 
" style="fill: none"/>
   </g>
   <g id="text_16">
    <!-- tensorflow -->
    <g style="fill: #666666" transform="translate(197.236563 16.318125)scale(0.12 -0.12)">
     <defs>
      <path id="DejaVuSans-73" d="M 2834 3397 
L 2834 2853 
Q 2591 2978 2328 3040 
Q 2066 3103 1784 3103 
Q 1356 3103 1142 2972 
Q 928 2841 928 2578 
Q 928 2378 1081 2264 
Q 1234 2150 1697 2047 
L 1894 2003 
Q 2506 1872 2764 1633 
Q 3022 1394 3022 966 
Q 3022 478 2636 193 
Q 2250 -91 1575 -91 
Q 1294 -91 989 -36 
Q 684 19 347 128 
L 347 722 
Q 666 556 975 473 
Q 1284 391 1588 391 
Q 1994 391 2212 530 
Q 2431 669 2431 922 
Q 2431 1156 2273 1281 
Q 2116 1406 1581 1522 
L 1381 1569 
Q 847 1681 609 1914 
Q 372 2147 372 2553 
Q 372 3047 722 3315 
Q 1072 3584 1716 3584 
Q 2034 3584 2315 3537 
Q 2597 3491 2834 3397 
z
" transform="scale(0.015625)"/>
      <path id="DejaVuSans-6f" d="M 1959 3097 
Q 1497 3097 1228 2736 
Q 959 2375 959 1747 
Q 959 1119 1226 758 
Q 1494 397 1959 397 
Q 2419 397 2687 759 
Q 2956 1122 2956 1747 
Q 2956 2369 2687 2733 
Q 2419 3097 1959 3097 
z
M 1959 3584 
Q 2709 3584 3137 3096 
Q 3566 2609 3566 1747 
Q 3566 888 3137 398 
Q 2709 -91 1959 -91 
Q 1206 -91 779 398 
Q 353 888 353 1747 
Q 353 2609 779 3096 
Q 1206 3584 1959 3584 
z
" transform="scale(0.015625)"/>
      <path id="DejaVuSans-72" d="M 2631 2963 
Q 2534 3019 2420 3045 
Q 2306 3072 2169 3072 
Q 1681 3072 1420 2755 
Q 1159 2438 1159 1844 
L 1159 0 
L 581 0 
L 581 3500 
L 1159 3500 
L 1159 2956 
Q 1341 3275 1631 3429 
Q 1922 3584 2338 3584 
Q 2397 3584 2469 3576 
Q 2541 3569 2628 3553 
L 2631 2963 
z
" transform="scale(0.015625)"/>
      <path id="DejaVuSans-66" d="M 2375 4863 
L 2375 4384 
L 1825 4384 
Q 1516 4384 1395 4259 
Q 1275 4134 1275 3809 
L 1275 3500 
L 2222 3500 
L 2222 3053 
L 1275 3053 
L 1275 0 
L 697 0 
L 697 3053 
L 147 3053 
L 147 3500 
L 697 3500 
L 697 3744 
Q 697 4328 969 4595 
Q 1241 4863 1831 4863 
L 2375 4863 
z
" transform="scale(0.015625)"/>
      <path id="DejaVuSans-6c" d="M 603 4863 
L 1178 4863 
L 1178 0 
L 603 0 
L 603 4863 
z
" transform="scale(0.015625)"/>
      <path id="DejaVuSans-77" d="M 269 3500 
L 844 3500 
L 1563 769 
L 2278 3500 
L 2956 3500 
L 3675 769 
L 4391 3500 
L 4966 3500 
L 4050 0 
L 3372 0 
L 2619 2869 
L 1863 0 
L 1184 0 
L 269 3500 
z
" transform="scale(0.015625)"/>
     </defs>
     <use xlink:href="#DejaVuSans-74"/>
     <use xlink:href="#DejaVuSans-65" x="39.208984"/>
     <use xlink:href="#DejaVuSans-6e" x="100.732422"/>
     <use xlink:href="#DejaVuSans-73" x="164.111328"/>
     <use xlink:href="#DejaVuSans-6f" x="216.210938"/>
     <use xlink:href="#DejaVuSans-72" x="277.392578"/>
     <use xlink:href="#DejaVuSans-66" x="318.505859"/>
     <use xlink:href="#DejaVuSans-6c" x="353.710938"/>
     <use xlink:href="#DejaVuSans-6f" x="381.494141"/>
     <use xlink:href="#DejaVuSans-77" x="442.675781"/>
    </g>
   </g>
   <g id="legend_1">
    <g id="patch_7">
     <path d="M 262.643438 46.99625 
L 402.26375 46.99625 
Q 404.26375 46.99625 404.26375 44.99625 
L 404.26375 31.318125 
Q 404.26375 29.318125 402.26375 29.318125 
L 262.643438 29.318125 
Q 260.643438 29.318125 260.643438 31.318125 
L 260.643438 44.99625 
Q 260.643438 46.99625 262.643438 46.99625 
z
" style="fill: #4c4c4c; opacity: 0.5; stroke: #4c4c4c; stroke-linejoin: miter"/>
    </g>
    <g id="patch_8">
     <path d="M 260.643438 44.99625 
L 400.26375 44.99625 
Q 402.26375 44.99625 402.26375 42.99625 
L 402.26375 29.318125 
Q 402.26375 27.318125 400.26375 27.318125 
L 260.643438 27.318125 
Q 258.643438 27.318125 258.643438 29.318125 
L 258.643438 42.99625 
Q 258.643438 44.99625 260.643438 44.99625 
z
" style="fill: #ffffff; opacity: 0.1; stroke: #cccccc; stroke-linejoin: miter"/>
    </g>
    <g id="line2d_29">
     <path d="M 262.643438 35.416562 
L 272.643438 35.416562 
L 282.643438 35.416562 
" style="fill: none; stroke: #007dff; stroke-width: 2; stroke-linecap: square"/>
    </g>
    <g id="text_17">
     <!-- Trained -->
     <g style="fill: #ffffff" transform="translate(290.643438 38.916562)scale(0.1 -0.1)">
      <defs>
       <path id="DejaVuSans-54" d="M -19 4666 
L 3928 4666 
L 3928 4134 
L 2272 4134 
L 2272 0 
L 1638 0 
L 1638 4134 
L -19 4134 
L -19 4666 
z
" transform="scale(0.015625)"/>
       <path id="DejaVuSans-61" d="M 2194 1759 
Q 1497 1759 1228 1600 
Q 959 1441 959 1056 
Q 959 750 1161 570 
Q 1363 391 1709 391 
Q 2188 391 2477 730 
Q 2766 1069 2766 1631 
L 2766 1759 
L 2194 1759 
z
M 3341 1997 
L 3341 0 
L 2766 0 
L 2766 531 
Q 2569 213 2275 61 
Q 1981 -91 1556 -91 
Q 1019 -91 701 211 
Q 384 513 384 1019 
Q 384 1609 779 1909 
Q 1175 2209 1959 2209 
L 2766 2209 
L 2766 2266 
Q 2766 2663 2505 2880 
Q 2244 3097 1772 3097 
Q 1472 3097 1187 3025 
Q 903 2953 641 2809 
L 641 3341 
Q 956 3463 1253 3523 
Q 1550 3584 1831 3584 
Q 2591 3584 2966 3190 
Q 3341 2797 3341 1997 
z
" transform="scale(0.015625)"/>
      </defs>
      <use xlink:href="#DejaVuSans-54"/>
      <use xlink:href="#DejaVuSans-72" x="46.333984"/>
      <use xlink:href="#DejaVuSans-61" x="87.447266"/>
      <use xlink:href="#DejaVuSans-69" x="148.726562"/>
      <use xlink:href="#DejaVuSans-6e" x="176.509766"/>
      <use xlink:href="#DejaVuSans-65" x="239.888672"/>
      <use xlink:href="#DejaVuSans-64" x="301.412109"/>
     </g>
    </g>
    <g id="line2d_30">
     <path d="M 347.1325 35.416562 
L 357.1325 35.416562 
L 367.1325 35.416562 
" style="fill: none; stroke-dasharray: 1.5,2.475; stroke-dashoffset: 0; stroke: #007dff; stroke-width: 1.5"/>
    </g>
    <g id="text_18">
     <!-- HMC -->
     <g style="fill: #ffffff" transform="translate(375.1325 38.916562)scale(0.1 -0.1)">
      <defs>
       <path id="DejaVuSans-48" d="M 628 4666 
L 1259 4666 
L 1259 2753 
L 3553 2753 
L 3553 4666 
L 4184 4666 
L 4184 0 
L 3553 0 
L 3553 2222 
L 1259 2222 
L 1259 0 
L 628 0 
L 628 4666 
z
" transform="scale(0.015625)"/>
       <path id="DejaVuSans-43" d="M 4122 4306 
L 4122 3641 
Q 3803 3938 3442 4084 
Q 3081 4231 2675 4231 
Q 1875 4231 1450 3742 
Q 1025 3253 1025 2328 
Q 1025 1406 1450 917 
Q 1875 428 2675 428 
Q 3081 428 3442 575 
Q 3803 722 4122 1019 
L 4122 359 
Q 3791 134 3420 21 
Q 3050 -91 2638 -91 
Q 1578 -91 968 557 
Q 359 1206 359 2328 
Q 359 3453 968 4101 
Q 1578 4750 2638 4750 
Q 3056 4750 3426 4639 
Q 3797 4528 4122 4306 
z
" transform="scale(0.015625)"/>
      </defs>
      <use xlink:href="#DejaVuSans-48"/>
      <use xlink:href="#DejaVuSans-4d" x="75.195312"/>
      <use xlink:href="#DejaVuSans-43" x="161.474609"/>
     </g>
    </g>
   </g>
  </g>
 </g>
 <defs>
  <clipPath id="p22d4188770">
   <rect x="50.14375" y="22.318125" width="357.12" height="266.112"/>
  </clipPath>
 </defs>
</svg>
