<?xml version="1.0" encoding="utf-8" standalone="no"?>
<!DOCTYPE svg PUBLIC "-//W3C//DTD SVG 1.1//EN"
  "http://www.w3.org/Graphics/SVG/1.1/DTD/svg11.dtd">
<svg xmlns:xlink="http://www.w3.org/1999/xlink" width="332.099527pt" height="194.645477pt" viewBox="0 0 332.099527 194.645477" xmlns="http://www.w3.org/2000/svg" version="1.1">
 <metadata>
  <rdf:RDF xmlns:dc="http://purl.org/dc/elements/1.1/" xmlns:cc="http://creativecommons.org/ns#" xmlns:rdf="http://www.w3.org/1999/02/22-rdf-syntax-ns#">
   <cc:Work>
    <dc:type rdf:resource="http://purl.org/dc/dcmitype/StillImage"/>
    <dc:date>2022-08-22T07:45:54.942737</dc:date>
    <dc:format>image/svg+xml</dc:format>
    <dc:creator>
     <cc:Agent>
      <dc:title>Matplotlib v3.5.2, https://matplotlib.org/</dc:title>
     </cc:Agent>
    </dc:creator>
   </cc:Work>
  </rdf:RDF>
 </metadata>
 <defs>
  <style type="text/css">*{stroke-linejoin: round; stroke-linecap: butt}</style>
 </defs>
 <g id="figure_1">
  <g id="patch_1">
   <path d="M 0 194.645477 
L 332.099527 194.645477 
L 332.099527 0 
L 0 0 
L 0 194.645477 
z
" style="fill: none"/>
  </g>
  <g id="axes_1">
   <g id="patch_2">
    <path d="M 58.523438 170.767352 
L 324.899527 170.767352 
L 324.899527 7.2 
L 58.523438 7.2 
L 58.523438 170.767352 
z
" style="fill: none"/>
   </g>
   <g id="matplotlib.axis_1">
    <g id="xtick_1">
     <g id="line2d_1">
      <defs>
       <path id="m04d933399d" d="M 0 0 
L 0 3.5 
" style="stroke: #666666; stroke-opacity: 0.015686; stroke-width: 0.8"/>
      </defs>
      <g>
       <use xlink:href="#m04d933399d" x="70.631442" y="170.767352" style="fill: #666666; fill-opacity: 0.015686; stroke: #666666; stroke-opacity: 0.015686; stroke-width: 0.8"/>
      </g>
     </g>
     <g id="text_1">
      <!-- 0 -->
      <g style="fill: #666666" transform="translate(67.450192 185.365789)scale(0.1 -0.1)">
       <defs>
        <path id="DejaVuSans-30" d="M 2034 4250 
Q 1547 4250 1301 3770 
Q 1056 3291 1056 2328 
Q 1056 1369 1301 889 
Q 1547 409 2034 409 
Q 2525 409 2770 889 
Q 3016 1369 3016 2328 
Q 3016 3291 2770 3770 
Q 2525 4250 2034 4250 
z
M 2034 4750 
Q 2819 4750 3233 4129 
Q 3647 3509 3647 2328 
Q 3647 1150 3233 529 
Q 2819 -91 2034 -91 
Q 1250 -91 836 529 
Q 422 1150 422 2328 
Q 422 3509 836 4129 
Q 1250 4750 2034 4750 
z
" transform="scale(0.015625)"/>
       </defs>
       <use xlink:href="#DejaVuSans-30"/>
      </g>
     </g>
    </g>
    <g id="xtick_2">
     <g id="line2d_2">
      <g>
       <use xlink:href="#m04d933399d" x="119.55267" y="170.767352" style="fill: #666666; fill-opacity: 0.015686; stroke: #666666; stroke-opacity: 0.015686; stroke-width: 0.8"/>
      </g>
     </g>
     <g id="text_2">
      <!-- 20 -->
      <g style="fill: #666666" transform="translate(113.19017 185.365789)scale(0.1 -0.1)">
       <defs>
        <path id="DejaVuSans-32" d="M 1228 531 
L 3431 531 
L 3431 0 
L 469 0 
L 469 531 
Q 828 903 1448 1529 
Q 2069 2156 2228 2338 
Q 2531 2678 2651 2914 
Q 2772 3150 2772 3378 
Q 2772 3750 2511 3984 
Q 2250 4219 1831 4219 
Q 1534 4219 1204 4116 
Q 875 4013 500 3803 
L 500 4441 
Q 881 4594 1212 4672 
Q 1544 4750 1819 4750 
Q 2544 4750 2975 4387 
Q 3406 4025 3406 3419 
Q 3406 3131 3298 2873 
Q 3191 2616 2906 2266 
Q 2828 2175 2409 1742 
Q 1991 1309 1228 531 
z
" transform="scale(0.015625)"/>
       </defs>
       <use xlink:href="#DejaVuSans-32"/>
       <use xlink:href="#DejaVuSans-30" x="63.623047"/>
      </g>
     </g>
    </g>
    <g id="xtick_3">
     <g id="line2d_3">
      <g>
       <use xlink:href="#m04d933399d" x="168.473899" y="170.767352" style="fill: #666666; fill-opacity: 0.015686; stroke: #666666; stroke-opacity: 0.015686; stroke-width: 0.8"/>
      </g>
     </g>
     <g id="text_3">
      <!-- 40 -->
      <g style="fill: #666666" transform="translate(162.111399 185.365789)scale(0.1 -0.1)">
       <defs>
        <path id="DejaVuSans-34" d="M 2419 4116 
L 825 1625 
L 2419 1625 
L 2419 4116 
z
M 2253 4666 
L 3047 4666 
L 3047 1625 
L 3713 1625 
L 3713 1100 
L 3047 1100 
L 3047 0 
L 2419 0 
L 2419 1100 
L 313 1100 
L 313 1709 
L 2253 4666 
z
" transform="scale(0.015625)"/>
       </defs>
       <use xlink:href="#DejaVuSans-34"/>
       <use xlink:href="#DejaVuSans-30" x="63.623047"/>
      </g>
     </g>
    </g>
    <g id="xtick_4">
     <g id="line2d_4">
      <g>
       <use xlink:href="#m04d933399d" x="217.395127" y="170.767352" style="fill: #666666; fill-opacity: 0.015686; stroke: #666666; stroke-opacity: 0.015686; stroke-width: 0.8"/>
      </g>
     </g>
     <g id="text_4">
      <!-- 60 -->
      <g style="fill: #666666" transform="translate(211.032627 185.365789)scale(0.1 -0.1)">
       <defs>
        <path id="DejaVuSans-36" d="M 2113 2584 
Q 1688 2584 1439 2293 
Q 1191 2003 1191 1497 
Q 1191 994 1439 701 
Q 1688 409 2113 409 
Q 2538 409 2786 701 
Q 3034 994 3034 1497 
Q 3034 2003 2786 2293 
Q 2538 2584 2113 2584 
z
M 3366 4563 
L 3366 3988 
Q 3128 4100 2886 4159 
Q 2644 4219 2406 4219 
Q 1781 4219 1451 3797 
Q 1122 3375 1075 2522 
Q 1259 2794 1537 2939 
Q 1816 3084 2150 3084 
Q 2853 3084 3261 2657 
Q 3669 2231 3669 1497 
Q 3669 778 3244 343 
Q 2819 -91 2113 -91 
Q 1303 -91 875 529 
Q 447 1150 447 2328 
Q 447 3434 972 4092 
Q 1497 4750 2381 4750 
Q 2619 4750 2861 4703 
Q 3103 4656 3366 4563 
z
" transform="scale(0.015625)"/>
       </defs>
       <use xlink:href="#DejaVuSans-36"/>
       <use xlink:href="#DejaVuSans-30" x="63.623047"/>
      </g>
     </g>
    </g>
    <g id="xtick_5">
     <g id="line2d_5">
      <g>
       <use xlink:href="#m04d933399d" x="266.316356" y="170.767352" style="fill: #666666; fill-opacity: 0.015686; stroke: #666666; stroke-opacity: 0.015686; stroke-width: 0.8"/>
      </g>
     </g>
     <g id="text_5">
      <!-- 80 -->
      <g style="fill: #666666" transform="translate(259.953856 185.365789)scale(0.1 -0.1)">
       <defs>
        <path id="DejaVuSans-38" d="M 2034 2216 
Q 1584 2216 1326 1975 
Q 1069 1734 1069 1313 
Q 1069 891 1326 650 
Q 1584 409 2034 409 
Q 2484 409 2743 651 
Q 3003 894 3003 1313 
Q 3003 1734 2745 1975 
Q 2488 2216 2034 2216 
z
M 1403 2484 
Q 997 2584 770 2862 
Q 544 3141 544 3541 
Q 544 4100 942 4425 
Q 1341 4750 2034 4750 
Q 2731 4750 3128 4425 
Q 3525 4100 3525 3541 
Q 3525 3141 3298 2862 
Q 3072 2584 2669 2484 
Q 3125 2378 3379 2068 
Q 3634 1759 3634 1313 
Q 3634 634 3220 271 
Q 2806 -91 2034 -91 
Q 1263 -91 848 271 
Q 434 634 434 1313 
Q 434 1759 690 2068 
Q 947 2378 1403 2484 
z
M 1172 3481 
Q 1172 3119 1398 2916 
Q 1625 2713 2034 2713 
Q 2441 2713 2670 2916 
Q 2900 3119 2900 3481 
Q 2900 3844 2670 4047 
Q 2441 4250 2034 4250 
Q 1625 4250 1398 4047 
Q 1172 3844 1172 3481 
z
" transform="scale(0.015625)"/>
       </defs>
       <use xlink:href="#DejaVuSans-38"/>
       <use xlink:href="#DejaVuSans-30" x="63.623047"/>
      </g>
     </g>
    </g>
    <g id="xtick_6">
     <g id="line2d_6">
      <g>
       <use xlink:href="#m04d933399d" x="315.237585" y="170.767352" style="fill: #666666; fill-opacity: 0.015686; stroke: #666666; stroke-opacity: 0.015686; stroke-width: 0.8"/>
      </g>
     </g>
     <g id="text_6">
      <!-- 100 -->
      <g style="fill: #666666" transform="translate(305.693835 185.365789)scale(0.1 -0.1)">
       <defs>
        <path id="DejaVuSans-31" d="M 794 531 
L 1825 531 
L 1825 4091 
L 703 3866 
L 703 4441 
L 1819 4666 
L 2450 4666 
L 2450 531 
L 3481 531 
L 3481 0 
L 794 0 
L 794 531 
z
" transform="scale(0.015625)"/>
       </defs>
       <use xlink:href="#DejaVuSans-31"/>
       <use xlink:href="#DejaVuSans-30" x="63.623047"/>
       <use xlink:href="#DejaVuSans-30" x="127.246094"/>
      </g>
     </g>
    </g>
   </g>
   <g id="matplotlib.axis_2">
    <g id="ytick_1">
     <g id="line2d_7">
      <defs>
       <path id="m9e7b279eda" d="M 0 0 
L -3.5 0 
" style="stroke: #666666; stroke-opacity: 0.015686; stroke-width: 0.8"/>
      </defs>
      <g>
       <use xlink:href="#m9e7b279eda" x="58.523438" y="148.462713" style="fill: #666666; fill-opacity: 0.015686; stroke: #666666; stroke-opacity: 0.015686; stroke-width: 0.8"/>
      </g>
     </g>
     <g id="text_7">
      <!-- −0.04 -->
      <g style="fill: #666666" transform="translate(20.878125 152.261931)scale(0.1 -0.1)">
       <defs>
        <path id="DejaVuSans-2212" d="M 678 2272 
L 4684 2272 
L 4684 1741 
L 678 1741 
L 678 2272 
z
" transform="scale(0.015625)"/>
        <path id="DejaVuSans-2e" d="M 684 794 
L 1344 794 
L 1344 0 
L 684 0 
L 684 794 
z
" transform="scale(0.015625)"/>
       </defs>
       <use xlink:href="#DejaVuSans-2212"/>
       <use xlink:href="#DejaVuSans-30" x="83.789062"/>
       <use xlink:href="#DejaVuSans-2e" x="147.412109"/>
       <use xlink:href="#DejaVuSans-30" x="179.199219"/>
       <use xlink:href="#DejaVuSans-34" x="242.822266"/>
      </g>
     </g>
    </g>
    <g id="ytick_2">
     <g id="line2d_8">
      <g>
       <use xlink:href="#m9e7b279eda" x="58.523438" y="118.723194" style="fill: #666666; fill-opacity: 0.015686; stroke: #666666; stroke-opacity: 0.015686; stroke-width: 0.8"/>
      </g>
     </g>
     <g id="text_8">
      <!-- −0.02 -->
      <g style="fill: #666666" transform="translate(20.878125 122.522413)scale(0.1 -0.1)">
       <use xlink:href="#DejaVuSans-2212"/>
       <use xlink:href="#DejaVuSans-30" x="83.789062"/>
       <use xlink:href="#DejaVuSans-2e" x="147.412109"/>
       <use xlink:href="#DejaVuSans-30" x="179.199219"/>
       <use xlink:href="#DejaVuSans-32" x="242.822266"/>
      </g>
     </g>
    </g>
    <g id="ytick_3">
     <g id="line2d_9">
      <g>
       <use xlink:href="#m9e7b279eda" x="58.523438" y="88.983676" style="fill: #666666; fill-opacity: 0.015686; stroke: #666666; stroke-opacity: 0.015686; stroke-width: 0.8"/>
      </g>
     </g>
     <g id="text_9">
      <!-- 0.00 -->
      <g style="fill: #666666" transform="translate(29.257813 92.782895)scale(0.1 -0.1)">
       <use xlink:href="#DejaVuSans-30"/>
       <use xlink:href="#DejaVuSans-2e" x="63.623047"/>
       <use xlink:href="#DejaVuSans-30" x="95.410156"/>
       <use xlink:href="#DejaVuSans-30" x="159.033203"/>
      </g>
     </g>
    </g>
    <g id="ytick_4">
     <g id="line2d_10">
      <g>
       <use xlink:href="#m9e7b279eda" x="58.523438" y="59.244157" style="fill: #666666; fill-opacity: 0.015686; stroke: #666666; stroke-opacity: 0.015686; stroke-width: 0.8"/>
      </g>
     </g>
     <g id="text_10">
      <!-- 0.02 -->
      <g style="fill: #666666" transform="translate(29.257813 63.043376)scale(0.1 -0.1)">
       <use xlink:href="#DejaVuSans-30"/>
       <use xlink:href="#DejaVuSans-2e" x="63.623047"/>
       <use xlink:href="#DejaVuSans-30" x="95.410156"/>
       <use xlink:href="#DejaVuSans-32" x="159.033203"/>
      </g>
     </g>
    </g>
    <g id="ytick_5">
     <g id="line2d_11">
      <g>
       <use xlink:href="#m9e7b279eda" x="58.523438" y="29.504639" style="fill: #666666; fill-opacity: 0.015686; stroke: #666666; stroke-opacity: 0.015686; stroke-width: 0.8"/>
      </g>
     </g>
     <g id="text_11">
      <!-- 0.04 -->
      <g style="fill: #666666" transform="translate(29.257813 33.303858)scale(0.1 -0.1)">
       <use xlink:href="#DejaVuSans-30"/>
       <use xlink:href="#DejaVuSans-2e" x="63.623047"/>
       <use xlink:href="#DejaVuSans-30" x="95.410156"/>
       <use xlink:href="#DejaVuSans-34" x="159.033203"/>
      </g>
     </g>
    </g>
    <g id="text_12">
     <!-- logdet -->
     <g style="fill: #bdbdbd" transform="translate(14.798438 104.81727)rotate(-90)scale(0.1 -0.1)">
      <defs>
       <path id="DejaVuSans-6c" d="M 603 4863 
L 1178 4863 
L 1178 0 
L 603 0 
L 603 4863 
z
" transform="scale(0.015625)"/>
       <path id="DejaVuSans-6f" d="M 1959 3097 
Q 1497 3097 1228 2736 
Q 959 2375 959 1747 
Q 959 1119 1226 758 
Q 1494 397 1959 397 
Q 2419 397 2687 759 
Q 2956 1122 2956 1747 
Q 2956 2369 2687 2733 
Q 2419 3097 1959 3097 
z
M 1959 3584 
Q 2709 3584 3137 3096 
Q 3566 2609 3566 1747 
Q 3566 888 3137 398 
Q 2709 -91 1959 -91 
Q 1206 -91 779 398 
Q 353 888 353 1747 
Q 353 2609 779 3096 
Q 1206 3584 1959 3584 
z
" transform="scale(0.015625)"/>
       <path id="DejaVuSans-67" d="M 2906 1791 
Q 2906 2416 2648 2759 
Q 2391 3103 1925 3103 
Q 1463 3103 1205 2759 
Q 947 2416 947 1791 
Q 947 1169 1205 825 
Q 1463 481 1925 481 
Q 2391 481 2648 825 
Q 2906 1169 2906 1791 
z
M 3481 434 
Q 3481 -459 3084 -895 
Q 2688 -1331 1869 -1331 
Q 1566 -1331 1297 -1286 
Q 1028 -1241 775 -1147 
L 775 -588 
Q 1028 -725 1275 -790 
Q 1522 -856 1778 -856 
Q 2344 -856 2625 -561 
Q 2906 -266 2906 331 
L 2906 616 
Q 2728 306 2450 153 
Q 2172 0 1784 0 
Q 1141 0 747 490 
Q 353 981 353 1791 
Q 353 2603 747 3093 
Q 1141 3584 1784 3584 
Q 2172 3584 2450 3431 
Q 2728 3278 2906 2969 
L 2906 3500 
L 3481 3500 
L 3481 434 
z
" transform="scale(0.015625)"/>
       <path id="DejaVuSans-64" d="M 2906 2969 
L 2906 4863 
L 3481 4863 
L 3481 0 
L 2906 0 
L 2906 525 
Q 2725 213 2448 61 
Q 2172 -91 1784 -91 
Q 1150 -91 751 415 
Q 353 922 353 1747 
Q 353 2572 751 3078 
Q 1150 3584 1784 3584 
Q 2172 3584 2448 3432 
Q 2725 3281 2906 2969 
z
M 947 1747 
Q 947 1113 1208 752 
Q 1469 391 1925 391 
Q 2381 391 2643 752 
Q 2906 1113 2906 1747 
Q 2906 2381 2643 2742 
Q 2381 3103 1925 3103 
Q 1469 3103 1208 2742 
Q 947 2381 947 1747 
z
" transform="scale(0.015625)"/>
       <path id="DejaVuSans-65" d="M 3597 1894 
L 3597 1613 
L 953 1613 
Q 991 1019 1311 708 
Q 1631 397 2203 397 
Q 2534 397 2845 478 
Q 3156 559 3463 722 
L 3463 178 
Q 3153 47 2828 -22 
Q 2503 -91 2169 -91 
Q 1331 -91 842 396 
Q 353 884 353 1716 
Q 353 2575 817 3079 
Q 1281 3584 2069 3584 
Q 2775 3584 3186 3129 
Q 3597 2675 3597 1894 
z
M 3022 2063 
Q 3016 2534 2758 2815 
Q 2500 3097 2075 3097 
Q 1594 3097 1305 2825 
Q 1016 2553 972 2059 
L 3022 2063 
z
" transform="scale(0.015625)"/>
       <path id="DejaVuSans-74" d="M 1172 4494 
L 1172 3500 
L 2356 3500 
L 2356 3053 
L 1172 3053 
L 1172 1153 
Q 1172 725 1289 603 
Q 1406 481 1766 481 
L 2356 481 
L 2356 0 
L 1766 0 
Q 1100 0 847 248 
Q 594 497 594 1153 
L 594 3053 
L 172 3053 
L 172 3500 
L 594 3500 
L 594 4494 
L 1172 4494 
z
" transform="scale(0.015625)"/>
      </defs>
      <use xlink:href="#DejaVuSans-6c"/>
      <use xlink:href="#DejaVuSans-6f" x="27.783203"/>
      <use xlink:href="#DejaVuSans-67" x="88.964844"/>
      <use xlink:href="#DejaVuSans-64" x="152.441406"/>
      <use xlink:href="#DejaVuSans-65" x="215.917969"/>
      <use xlink:href="#DejaVuSans-74" x="277.441406"/>
     </g>
    </g>
   </g>
   <g id="line2d_12">
    <path d="M 70.631442 88.983676 
L 73.077503 88.983676 
L 75.523564 88.983676 
L 77.969626 88.983676 
L 80.415687 88.983676 
L 82.861749 88.983676 
L 85.30781 88.983676 
L 87.753872 88.983676 
L 90.199933 88.983676 
L 92.645994 88.983676 
L 95.092056 88.983676 
L 97.538117 88.983676 
L 99.984179 88.983676 
L 102.43024 88.983676 
L 104.876302 88.983676 
L 107.322363 88.983676 
L 109.768424 88.983676 
L 112.214486 88.983676 
L 114.660547 88.983676 
L 117.106609 88.983676 
L 119.55267 88.983676 
L 121.998732 88.983676 
L 124.444793 88.983676 
L 126.890854 88.983676 
L 129.336916 88.983676 
L 131.782977 88.983676 
L 134.229039 88.983676 
L 136.6751 88.983676 
L 139.121162 88.983676 
L 141.567223 88.983676 
L 144.013284 88.983676 
L 146.459346 88.983676 
L 148.905407 88.983676 
L 151.351469 88.983676 
L 153.79753 88.983676 
L 156.243592 88.983676 
L 158.689653 88.983676 
L 161.135714 88.983676 
L 163.581776 88.983676 
L 166.027837 88.983676 
L 168.473899 88.983676 
L 170.91996 88.983676 
L 173.366022 88.983676 
L 175.812083 88.983676 
L 178.258144 88.983676 
L 180.704206 88.983676 
L 183.150267 88.983676 
L 185.596329 88.983676 
L 188.04239 88.983676 
L 190.488452 88.983676 
L 192.934513 88.983676 
L 195.380574 88.983676 
L 197.826636 88.983676 
L 200.272697 88.983676 
L 202.718759 88.983676 
L 205.16482 88.983676 
L 207.610882 88.983676 
L 210.056943 88.983676 
L 212.503004 88.983676 
L 214.949066 88.983676 
L 217.395127 88.983676 
L 219.841189 88.983676 
L 222.28725 88.983676 
L 224.733312 88.983676 
L 227.179373 88.983676 
L 229.625434 88.983676 
L 232.071496 88.983676 
L 234.517557 88.983676 
L 236.963619 88.983676 
L 239.40968 88.983676 
L 241.855742 88.983676 
L 244.301803 88.983676 
L 246.747864 88.983676 
L 249.193926 88.983676 
L 251.639987 88.983676 
L 254.086049 88.983676 
L 256.53211 88.983676 
L 258.978172 88.983676 
L 261.424233 88.983676 
L 263.870294 88.983676 
L 266.316356 88.983676 
L 268.762417 88.983676 
L 271.208479 88.983676 
L 273.65454 88.983676 
L 276.100602 88.983676 
L 278.546663 88.983676 
L 280.992725 88.983676 
L 283.438786 88.983676 
L 285.884847 88.983676 
L 288.330909 88.983676 
L 290.77697 88.983676 
L 293.223032 88.983676 
L 295.669093 88.983676 
L 298.115155 88.983676 
L 300.561216 88.983676 
L 303.007277 88.983676 
L 305.453339 88.983676 
L 307.8994 88.983676 
L 310.345462 88.983676 
L 312.791523 88.983676 
" clip-path="url(#p124259f11e)" style="fill: none; stroke: #440154; stroke-width: 1.5; stroke-linecap: square"/>
   </g>
   <g id="line2d_13">
    <path d="M 70.631442 88.983676 
L 73.077503 88.983676 
L 75.523564 88.983676 
L 77.969626 88.983676 
L 80.415687 88.983676 
L 82.861749 88.983676 
L 85.30781 88.983676 
L 87.753872 88.983676 
L 90.199933 88.983676 
L 92.645994 88.983676 
L 95.092056 88.983676 
L 97.538117 88.983676 
L 99.984179 88.983676 
L 102.43024 88.983676 
L 104.876302 88.983676 
L 107.322363 88.983676 
L 109.768424 88.983676 
L 112.214486 88.983676 
L 114.660547 88.983676 
L 117.106609 88.983676 
L 119.55267 88.983676 
L 121.998732 88.983676 
L 124.444793 88.983676 
L 126.890854 88.983676 
L 129.336916 88.983676 
L 131.782977 88.983676 
L 134.229039 88.983676 
L 136.6751 88.983676 
L 139.121162 88.983676 
L 141.567223 88.983676 
L 144.013284 88.983676 
L 146.459346 88.983676 
L 148.905407 88.983676 
L 151.351469 88.983676 
L 153.79753 88.983676 
L 156.243592 88.983676 
L 158.689653 88.983676 
L 161.135714 88.983676 
L 163.581776 88.983676 
L 166.027837 88.983676 
L 168.473899 88.983676 
L 170.91996 88.983676 
L 173.366022 88.983676 
L 175.812083 88.983676 
L 178.258144 88.983676 
L 180.704206 88.983676 
L 183.150267 88.983676 
L 185.596329 88.983676 
L 188.04239 88.983676 
L 190.488452 88.983676 
L 192.934513 88.983676 
L 195.380574 88.983676 
L 197.826636 88.983676 
L 200.272697 88.983676 
L 202.718759 88.983676 
L 205.16482 88.983676 
L 207.610882 88.983676 
L 210.056943 88.983676 
L 212.503004 88.983676 
L 214.949066 88.983676 
L 217.395127 88.983676 
L 219.841189 88.983676 
L 222.28725 88.983676 
L 224.733312 88.983676 
L 227.179373 88.983676 
L 229.625434 88.983676 
L 232.071496 88.983676 
L 234.517557 88.983676 
L 236.963619 88.983676 
L 239.40968 88.983676 
L 241.855742 88.983676 
L 244.301803 88.983676 
L 246.747864 88.983676 
L 249.193926 88.983676 
L 251.639987 88.983676 
L 254.086049 88.983676 
L 256.53211 88.983676 
L 258.978172 88.983676 
L 261.424233 88.983676 
L 263.870294 88.983676 
L 266.316356 88.983676 
L 268.762417 88.983676 
L 271.208479 88.983676 
L 273.65454 88.983676 
L 276.100602 88.983676 
L 278.546663 88.983676 
L 280.992725 88.983676 
L 283.438786 88.983676 
L 285.884847 88.983676 
L 288.330909 88.983676 
L 290.77697 88.983676 
L 293.223032 88.983676 
L 295.669093 88.983676 
L 298.115155 88.983676 
L 300.561216 88.983676 
L 303.007277 88.983676 
L 305.453339 88.983676 
L 307.8994 88.983676 
L 310.345462 88.983676 
L 312.791523 88.983676 
" clip-path="url(#p124259f11e)" style="fill: none; stroke: #460b5e; stroke-width: 1.5; stroke-linecap: square"/>
   </g>
   <g id="line2d_14">
    <path d="M 70.631442 88.983676 
L 73.077503 88.983676 
L 75.523564 88.983676 
L 77.969626 88.983676 
L 80.415687 88.983676 
L 82.861749 88.983676 
L 85.30781 88.983676 
L 87.753872 88.983676 
L 90.199933 88.983676 
L 92.645994 88.983676 
L 95.092056 88.983676 
L 97.538117 88.983676 
L 99.984179 88.983676 
L 102.43024 88.983676 
L 104.876302 88.983676 
L 107.322363 88.983676 
L 109.768424 88.983676 
L 112.214486 88.983676 
L 114.660547 88.983676 
L 117.106609 88.983676 
L 119.55267 88.983676 
L 121.998732 88.983676 
L 124.444793 88.983676 
L 126.890854 88.983676 
L 129.336916 88.983676 
L 131.782977 88.983676 
L 134.229039 88.983676 
L 136.6751 88.983676 
L 139.121162 88.983676 
L 141.567223 88.983676 
L 144.013284 88.983676 
L 146.459346 88.983676 
L 148.905407 88.983676 
L 151.351469 88.983676 
L 153.79753 88.983676 
L 156.243592 88.983676 
L 158.689653 88.983676 
L 161.135714 88.983676 
L 163.581776 88.983676 
L 166.027837 88.983676 
L 168.473899 88.983676 
L 170.91996 88.983676 
L 173.366022 88.983676 
L 175.812083 88.983676 
L 178.258144 88.983676 
L 180.704206 88.983676 
L 183.150267 88.983676 
L 185.596329 88.983676 
L 188.04239 88.983676 
L 190.488452 88.983676 
L 192.934513 88.983676 
L 195.380574 88.983676 
L 197.826636 88.983676 
L 200.272697 88.983676 
L 202.718759 88.983676 
L 205.16482 88.983676 
L 207.610882 88.983676 
L 210.056943 88.983676 
L 212.503004 88.983676 
L 214.949066 88.983676 
L 217.395127 88.983676 
L 219.841189 88.983676 
L 222.28725 88.983676 
L 224.733312 88.983676 
L 227.179373 88.983676 
L 229.625434 88.983676 
L 232.071496 88.983676 
L 234.517557 88.983676 
L 236.963619 88.983676 
L 239.40968 88.983676 
L 241.855742 88.983676 
L 244.301803 88.983676 
L 246.747864 88.983676 
L 249.193926 88.983676 
L 251.639987 88.983676 
L 254.086049 88.983676 
L 256.53211 88.983676 
L 258.978172 88.983676 
L 261.424233 88.983676 
L 263.870294 88.983676 
L 266.316356 88.983676 
L 268.762417 88.983676 
L 271.208479 88.983676 
L 273.65454 88.983676 
L 276.100602 88.983676 
L 278.546663 88.983676 
L 280.992725 88.983676 
L 283.438786 88.983676 
L 285.884847 88.983676 
L 288.330909 88.983676 
L 290.77697 88.983676 
L 293.223032 88.983676 
L 295.669093 88.983676 
L 298.115155 88.983676 
L 300.561216 88.983676 
L 303.007277 88.983676 
L 305.453339 88.983676 
L 307.8994 88.983676 
L 310.345462 88.983676 
L 312.791523 88.983676 
" clip-path="url(#p124259f11e)" style="fill: none; stroke: #481769; stroke-width: 1.5; stroke-linecap: square"/>
   </g>
   <g id="line2d_15">
    <path d="M 70.631442 88.983676 
L 73.077503 88.983676 
L 75.523564 88.983676 
L 77.969626 88.983676 
L 80.415687 88.983676 
L 82.861749 88.983676 
L 85.30781 88.983676 
L 87.753872 88.983676 
L 90.199933 88.983676 
L 92.645994 88.983676 
L 95.092056 88.983676 
L 97.538117 88.983676 
L 99.984179 88.983676 
L 102.43024 88.983676 
L 104.876302 88.983676 
L 107.322363 88.983676 
L 109.768424 88.983676 
L 112.214486 88.983676 
L 114.660547 88.983676 
L 117.106609 88.983676 
L 119.55267 88.983676 
L 121.998732 88.983676 
L 124.444793 88.983676 
L 126.890854 88.983676 
L 129.336916 88.983676 
L 131.782977 88.983676 
L 134.229039 88.983676 
L 136.6751 88.983676 
L 139.121162 88.983676 
L 141.567223 88.983676 
L 144.013284 88.983676 
L 146.459346 88.983676 
L 148.905407 88.983676 
L 151.351469 88.983676 
L 153.79753 88.983676 
L 156.243592 88.983676 
L 158.689653 88.983676 
L 161.135714 88.983676 
L 163.581776 88.983676 
L 166.027837 88.983676 
L 168.473899 88.983676 
L 170.91996 88.983676 
L 173.366022 88.983676 
L 175.812083 88.983676 
L 178.258144 88.983676 
L 180.704206 88.983676 
L 183.150267 88.983676 
L 185.596329 88.983676 
L 188.04239 88.983676 
L 190.488452 88.983676 
L 192.934513 88.983676 
L 195.380574 88.983676 
L 197.826636 88.983676 
L 200.272697 88.983676 
L 202.718759 88.983676 
L 205.16482 88.983676 
L 207.610882 88.983676 
L 210.056943 88.983676 
L 212.503004 88.983676 
L 214.949066 88.983676 
L 217.395127 88.983676 
L 219.841189 88.983676 
L 222.28725 88.983676 
L 224.733312 88.983676 
L 227.179373 88.983676 
L 229.625434 88.983676 
L 232.071496 88.983676 
L 234.517557 88.983676 
L 236.963619 88.983676 
L 239.40968 88.983676 
L 241.855742 88.983676 
L 244.301803 88.983676 
L 246.747864 88.983676 
L 249.193926 88.983676 
L 251.639987 88.983676 
L 254.086049 88.983676 
L 256.53211 88.983676 
L 258.978172 88.983676 
L 261.424233 88.983676 
L 263.870294 88.983676 
L 266.316356 88.983676 
L 268.762417 88.983676 
L 271.208479 88.983676 
L 273.65454 88.983676 
L 276.100602 88.983676 
L 278.546663 88.983676 
L 280.992725 88.983676 
L 283.438786 88.983676 
L 285.884847 88.983676 
L 288.330909 88.983676 
L 290.77697 88.983676 
L 293.223032 88.983676 
L 295.669093 88.983676 
L 298.115155 88.983676 
L 300.561216 88.983676 
L 303.007277 88.983676 
L 305.453339 88.983676 
L 307.8994 88.983676 
L 310.345462 88.983676 
L 312.791523 88.983676 
" clip-path="url(#p124259f11e)" style="fill: none; stroke: #482173; stroke-width: 1.5; stroke-linecap: square"/>
   </g>
   <g id="line2d_16">
    <path d="M 70.631442 88.983676 
L 73.077503 88.983676 
L 75.523564 88.983676 
L 77.969626 88.983676 
L 80.415687 88.983676 
L 82.861749 88.983676 
L 85.30781 88.983676 
L 87.753872 88.983676 
L 90.199933 88.983676 
L 92.645994 88.983676 
L 95.092056 88.983676 
L 97.538117 88.983676 
L 99.984179 88.983676 
L 102.43024 88.983676 
L 104.876302 88.983676 
L 107.322363 88.983676 
L 109.768424 88.983676 
L 112.214486 88.983676 
L 114.660547 88.983676 
L 117.106609 88.983676 
L 119.55267 88.983676 
L 121.998732 88.983676 
L 124.444793 88.983676 
L 126.890854 88.983676 
L 129.336916 88.983676 
L 131.782977 88.983676 
L 134.229039 88.983676 
L 136.6751 88.983676 
L 139.121162 88.983676 
L 141.567223 88.983676 
L 144.013284 88.983676 
L 146.459346 88.983676 
L 148.905407 88.983676 
L 151.351469 88.983676 
L 153.79753 88.983676 
L 156.243592 88.983676 
L 158.689653 88.983676 
L 161.135714 88.983676 
L 163.581776 88.983676 
L 166.027837 88.983676 
L 168.473899 88.983676 
L 170.91996 88.983676 
L 173.366022 88.983676 
L 175.812083 88.983676 
L 178.258144 88.983676 
L 180.704206 88.983676 
L 183.150267 88.983676 
L 185.596329 88.983676 
L 188.04239 88.983676 
L 190.488452 88.983676 
L 192.934513 88.983676 
L 195.380574 88.983676 
L 197.826636 88.983676 
L 200.272697 88.983676 
L 202.718759 88.983676 
L 205.16482 88.983676 
L 207.610882 88.983676 
L 210.056943 88.983676 
L 212.503004 88.983676 
L 214.949066 88.983676 
L 217.395127 88.983676 
L 219.841189 88.983676 
L 222.28725 88.983676 
L 224.733312 88.983676 
L 227.179373 88.983676 
L 229.625434 88.983676 
L 232.071496 88.983676 
L 234.517557 88.983676 
L 236.963619 88.983676 
L 239.40968 88.983676 
L 241.855742 88.983676 
L 244.301803 88.983676 
L 246.747864 88.983676 
L 249.193926 88.983676 
L 251.639987 88.983676 
L 254.086049 88.983676 
L 256.53211 88.983676 
L 258.978172 88.983676 
L 261.424233 88.983676 
L 263.870294 88.983676 
L 266.316356 88.983676 
L 268.762417 88.983676 
L 271.208479 88.983676 
L 273.65454 88.983676 
L 276.100602 88.983676 
L 278.546663 88.983676 
L 280.992725 88.983676 
L 283.438786 88.983676 
L 285.884847 88.983676 
L 288.330909 88.983676 
L 290.77697 88.983676 
L 293.223032 88.983676 
L 295.669093 88.983676 
L 298.115155 88.983676 
L 300.561216 88.983676 
L 303.007277 88.983676 
L 305.453339 88.983676 
L 307.8994 88.983676 
L 310.345462 88.983676 
L 312.791523 88.983676 
" clip-path="url(#p124259f11e)" style="fill: none; stroke: #472c7a; stroke-width: 1.5; stroke-linecap: square"/>
   </g>
   <g id="line2d_17">
    <path d="M 70.631442 88.983676 
L 73.077503 88.983676 
L 75.523564 88.983676 
L 77.969626 88.983676 
L 80.415687 88.983676 
L 82.861749 88.983676 
L 85.30781 88.983676 
L 87.753872 88.983676 
L 90.199933 88.983676 
L 92.645994 88.983676 
L 95.092056 88.983676 
L 97.538117 88.983676 
L 99.984179 88.983676 
L 102.43024 88.983676 
L 104.876302 88.983676 
L 107.322363 88.983676 
L 109.768424 88.983676 
L 112.214486 88.983676 
L 114.660547 88.983676 
L 117.106609 88.983676 
L 119.55267 88.983676 
L 121.998732 88.983676 
L 124.444793 88.983676 
L 126.890854 88.983676 
L 129.336916 88.983676 
L 131.782977 88.983676 
L 134.229039 88.983676 
L 136.6751 88.983676 
L 139.121162 88.983676 
L 141.567223 88.983676 
L 144.013284 88.983676 
L 146.459346 88.983676 
L 148.905407 88.983676 
L 151.351469 88.983676 
L 153.79753 88.983676 
L 156.243592 88.983676 
L 158.689653 88.983676 
L 161.135714 88.983676 
L 163.581776 88.983676 
L 166.027837 88.983676 
L 168.473899 88.983676 
L 170.91996 88.983676 
L 173.366022 88.983676 
L 175.812083 88.983676 
L 178.258144 88.983676 
L 180.704206 88.983676 
L 183.150267 88.983676 
L 185.596329 88.983676 
L 188.04239 88.983676 
L 190.488452 88.983676 
L 192.934513 88.983676 
L 195.380574 88.983676 
L 197.826636 88.983676 
L 200.272697 88.983676 
L 202.718759 88.983676 
L 205.16482 88.983676 
L 207.610882 88.983676 
L 210.056943 88.983676 
L 212.503004 88.983676 
L 214.949066 88.983676 
L 217.395127 88.983676 
L 219.841189 88.983676 
L 222.28725 88.983676 
L 224.733312 88.983676 
L 227.179373 88.983676 
L 229.625434 88.983676 
L 232.071496 88.983676 
L 234.517557 88.983676 
L 236.963619 88.983676 
L 239.40968 88.983676 
L 241.855742 88.983676 
L 244.301803 88.983676 
L 246.747864 88.983676 
L 249.193926 88.983676 
L 251.639987 88.983676 
L 254.086049 88.983676 
L 256.53211 88.983676 
L 258.978172 88.983676 
L 261.424233 88.983676 
L 263.870294 88.983676 
L 266.316356 88.983676 
L 268.762417 88.983676 
L 271.208479 88.983676 
L 273.65454 88.983676 
L 276.100602 88.983676 
L 278.546663 88.983676 
L 280.992725 88.983676 
L 283.438786 88.983676 
L 285.884847 88.983676 
L 288.330909 88.983676 
L 290.77697 88.983676 
L 293.223032 88.983676 
L 295.669093 88.983676 
L 298.115155 88.983676 
L 300.561216 88.983676 
L 303.007277 88.983676 
L 305.453339 88.983676 
L 307.8994 88.983676 
L 310.345462 88.983676 
L 312.791523 88.983676 
" clip-path="url(#p124259f11e)" style="fill: none; stroke: #463480; stroke-width: 1.5; stroke-linecap: square"/>
   </g>
   <g id="line2d_18">
    <path d="M 70.631442 88.983676 
L 73.077503 88.983676 
L 75.523564 88.983676 
L 77.969626 88.983676 
L 80.415687 88.983676 
L 82.861749 88.983676 
L 85.30781 88.983676 
L 87.753872 88.983676 
L 90.199933 88.983676 
L 92.645994 88.983676 
L 95.092056 88.983676 
L 97.538117 88.983676 
L 99.984179 88.983676 
L 102.43024 88.983676 
L 104.876302 88.983676 
L 107.322363 88.983676 
L 109.768424 88.983676 
L 112.214486 88.983676 
L 114.660547 88.983676 
L 117.106609 88.983676 
L 119.55267 88.983676 
L 121.998732 88.983676 
L 124.444793 88.983676 
L 126.890854 88.983676 
L 129.336916 88.983676 
L 131.782977 88.983676 
L 134.229039 88.983676 
L 136.6751 88.983676 
L 139.121162 88.983676 
L 141.567223 88.983676 
L 144.013284 88.983676 
L 146.459346 88.983676 
L 148.905407 88.983676 
L 151.351469 88.983676 
L 153.79753 88.983676 
L 156.243592 88.983676 
L 158.689653 88.983676 
L 161.135714 88.983676 
L 163.581776 88.983676 
L 166.027837 88.983676 
L 168.473899 88.983676 
L 170.91996 88.983676 
L 173.366022 88.983676 
L 175.812083 88.983676 
L 178.258144 88.983676 
L 180.704206 88.983676 
L 183.150267 88.983676 
L 185.596329 88.983676 
L 188.04239 88.983676 
L 190.488452 88.983676 
L 192.934513 88.983676 
L 195.380574 88.983676 
L 197.826636 88.983676 
L 200.272697 88.983676 
L 202.718759 88.983676 
L 205.16482 88.983676 
L 207.610882 88.983676 
L 210.056943 88.983676 
L 212.503004 88.983676 
L 214.949066 88.983676 
L 217.395127 88.983676 
L 219.841189 88.983676 
L 222.28725 88.983676 
L 224.733312 88.983676 
L 227.179373 88.983676 
L 229.625434 88.983676 
L 232.071496 88.983676 
L 234.517557 88.983676 
L 236.963619 88.983676 
L 239.40968 88.983676 
L 241.855742 88.983676 
L 244.301803 88.983676 
L 246.747864 88.983676 
L 249.193926 88.983676 
L 251.639987 88.983676 
L 254.086049 88.983676 
L 256.53211 88.983676 
L 258.978172 88.983676 
L 261.424233 88.983676 
L 263.870294 88.983676 
L 266.316356 88.983676 
L 268.762417 88.983676 
L 271.208479 88.983676 
L 273.65454 88.983676 
L 276.100602 88.983676 
L 278.546663 88.983676 
L 280.992725 88.983676 
L 283.438786 88.983676 
L 285.884847 88.983676 
L 288.330909 88.983676 
L 290.77697 88.983676 
L 293.223032 88.983676 
L 295.669093 88.983676 
L 298.115155 88.983676 
L 300.561216 88.983676 
L 303.007277 88.983676 
L 305.453339 88.983676 
L 307.8994 88.983676 
L 310.345462 88.983676 
L 312.791523 88.983676 
" clip-path="url(#p124259f11e)" style="fill: none; stroke: #433e85; stroke-width: 1.5; stroke-linecap: square"/>
   </g>
   <g id="line2d_19">
    <path d="M 70.631442 88.983676 
L 73.077503 88.983676 
L 75.523564 88.983676 
L 77.969626 88.983676 
L 80.415687 88.983676 
L 82.861749 88.983676 
L 85.30781 88.983676 
L 87.753872 88.983676 
L 90.199933 88.983676 
L 92.645994 88.983676 
L 95.092056 88.983676 
L 97.538117 88.983676 
L 99.984179 88.983676 
L 102.43024 88.983676 
L 104.876302 88.983676 
L 107.322363 88.983676 
L 109.768424 88.983676 
L 112.214486 88.983676 
L 114.660547 88.983676 
L 117.106609 88.983676 
L 119.55267 88.983676 
L 121.998732 88.983676 
L 124.444793 88.983676 
L 126.890854 88.983676 
L 129.336916 88.983676 
L 131.782977 88.983676 
L 134.229039 88.983676 
L 136.6751 88.983676 
L 139.121162 88.983676 
L 141.567223 88.983676 
L 144.013284 88.983676 
L 146.459346 88.983676 
L 148.905407 88.983676 
L 151.351469 88.983676 
L 153.79753 88.983676 
L 156.243592 88.983676 
L 158.689653 88.983676 
L 161.135714 88.983676 
L 163.581776 88.983676 
L 166.027837 88.983676 
L 168.473899 88.983676 
L 170.91996 88.983676 
L 173.366022 88.983676 
L 175.812083 88.983676 
L 178.258144 88.983676 
L 180.704206 88.983676 
L 183.150267 88.983676 
L 185.596329 88.983676 
L 188.04239 88.983676 
L 190.488452 88.983676 
L 192.934513 88.983676 
L 195.380574 88.983676 
L 197.826636 88.983676 
L 200.272697 88.983676 
L 202.718759 88.983676 
L 205.16482 88.983676 
L 207.610882 88.983676 
L 210.056943 88.983676 
L 212.503004 88.983676 
L 214.949066 88.983676 
L 217.395127 88.983676 
L 219.841189 88.983676 
L 222.28725 88.983676 
L 224.733312 88.983676 
L 227.179373 88.983676 
L 229.625434 88.983676 
L 232.071496 88.983676 
L 234.517557 88.983676 
L 236.963619 88.983676 
L 239.40968 88.983676 
L 241.855742 88.983676 
L 244.301803 88.983676 
L 246.747864 88.983676 
L 249.193926 88.983676 
L 251.639987 88.983676 
L 254.086049 88.983676 
L 256.53211 88.983676 
L 258.978172 88.983676 
L 261.424233 88.983676 
L 263.870294 88.983676 
L 266.316356 88.983676 
L 268.762417 88.983676 
L 271.208479 88.983676 
L 273.65454 88.983676 
L 276.100602 88.983676 
L 278.546663 88.983676 
L 280.992725 88.983676 
L 283.438786 88.983676 
L 285.884847 88.983676 
L 288.330909 88.983676 
L 290.77697 88.983676 
L 293.223032 88.983676 
L 295.669093 88.983676 
L 298.115155 88.983676 
L 300.561216 88.983676 
L 303.007277 88.983676 
L 305.453339 88.983676 
L 307.8994 88.983676 
L 310.345462 88.983676 
L 312.791523 88.983676 
" clip-path="url(#p124259f11e)" style="fill: none; stroke: #3f4788; stroke-width: 1.5; stroke-linecap: square"/>
   </g>
   <g id="line2d_20">
    <path d="M 70.631442 88.983676 
L 73.077503 88.983676 
L 75.523564 88.983676 
L 77.969626 88.983676 
L 80.415687 88.983676 
L 82.861749 88.983676 
L 85.30781 88.983676 
L 87.753872 88.983676 
L 90.199933 88.983676 
L 92.645994 88.983676 
L 95.092056 88.983676 
L 97.538117 88.983676 
L 99.984179 88.983676 
L 102.43024 88.983676 
L 104.876302 88.983676 
L 107.322363 88.983676 
L 109.768424 88.983676 
L 112.214486 88.983676 
L 114.660547 88.983676 
L 117.106609 88.983676 
L 119.55267 88.983676 
L 121.998732 88.983676 
L 124.444793 88.983676 
L 126.890854 88.983676 
L 129.336916 88.983676 
L 131.782977 88.983676 
L 134.229039 88.983676 
L 136.6751 88.983676 
L 139.121162 88.983676 
L 141.567223 88.983676 
L 144.013284 88.983676 
L 146.459346 88.983676 
L 148.905407 88.983676 
L 151.351469 88.983676 
L 153.79753 88.983676 
L 156.243592 88.983676 
L 158.689653 88.983676 
L 161.135714 88.983676 
L 163.581776 88.983676 
L 166.027837 88.983676 
L 168.473899 88.983676 
L 170.91996 88.983676 
L 173.366022 88.983676 
L 175.812083 88.983676 
L 178.258144 88.983676 
L 180.704206 88.983676 
L 183.150267 88.983676 
L 185.596329 88.983676 
L 188.04239 88.983676 
L 190.488452 88.983676 
L 192.934513 88.983676 
L 195.380574 88.983676 
L 197.826636 88.983676 
L 200.272697 88.983676 
L 202.718759 88.983676 
L 205.16482 88.983676 
L 207.610882 88.983676 
L 210.056943 88.983676 
L 212.503004 88.983676 
L 214.949066 88.983676 
L 217.395127 88.983676 
L 219.841189 88.983676 
L 222.28725 88.983676 
L 224.733312 88.983676 
L 227.179373 88.983676 
L 229.625434 88.983676 
L 232.071496 88.983676 
L 234.517557 88.983676 
L 236.963619 88.983676 
L 239.40968 88.983676 
L 241.855742 88.983676 
L 244.301803 88.983676 
L 246.747864 88.983676 
L 249.193926 88.983676 
L 251.639987 88.983676 
L 254.086049 88.983676 
L 256.53211 88.983676 
L 258.978172 88.983676 
L 261.424233 88.983676 
L 263.870294 88.983676 
L 266.316356 88.983676 
L 268.762417 88.983676 
L 271.208479 88.983676 
L 273.65454 88.983676 
L 276.100602 88.983676 
L 278.546663 88.983676 
L 280.992725 88.983676 
L 283.438786 88.983676 
L 285.884847 88.983676 
L 288.330909 88.983676 
L 290.77697 88.983676 
L 293.223032 88.983676 
L 295.669093 88.983676 
L 298.115155 88.983676 
L 300.561216 88.983676 
L 303.007277 88.983676 
L 305.453339 88.983676 
L 307.8994 88.983676 
L 310.345462 88.983676 
L 312.791523 88.983676 
" clip-path="url(#p124259f11e)" style="fill: none; stroke: #3c508b; stroke-width: 1.5; stroke-linecap: square"/>
   </g>
   <g id="line2d_21">
    <path d="M 70.631442 88.983676 
L 73.077503 88.983676 
L 75.523564 88.983676 
L 77.969626 88.983676 
L 80.415687 88.983676 
L 82.861749 88.983676 
L 85.30781 88.983676 
L 87.753872 88.983676 
L 90.199933 88.983676 
L 92.645994 88.983676 
L 95.092056 88.983676 
L 97.538117 88.983676 
L 99.984179 88.983676 
L 102.43024 88.983676 
L 104.876302 88.983676 
L 107.322363 88.983676 
L 109.768424 88.983676 
L 112.214486 88.983676 
L 114.660547 88.983676 
L 117.106609 88.983676 
L 119.55267 88.983676 
L 121.998732 88.983676 
L 124.444793 88.983676 
L 126.890854 88.983676 
L 129.336916 88.983676 
L 131.782977 88.983676 
L 134.229039 88.983676 
L 136.6751 88.983676 
L 139.121162 88.983676 
L 141.567223 88.983676 
L 144.013284 88.983676 
L 146.459346 88.983676 
L 148.905407 88.983676 
L 151.351469 88.983676 
L 153.79753 88.983676 
L 156.243592 88.983676 
L 158.689653 88.983676 
L 161.135714 88.983676 
L 163.581776 88.983676 
L 166.027837 88.983676 
L 168.473899 88.983676 
L 170.91996 88.983676 
L 173.366022 88.983676 
L 175.812083 88.983676 
L 178.258144 88.983676 
L 180.704206 88.983676 
L 183.150267 88.983676 
L 185.596329 88.983676 
L 188.04239 88.983676 
L 190.488452 88.983676 
L 192.934513 88.983676 
L 195.380574 88.983676 
L 197.826636 88.983676 
L 200.272697 88.983676 
L 202.718759 88.983676 
L 205.16482 88.983676 
L 207.610882 88.983676 
L 210.056943 88.983676 
L 212.503004 88.983676 
L 214.949066 88.983676 
L 217.395127 88.983676 
L 219.841189 88.983676 
L 222.28725 88.983676 
L 224.733312 88.983676 
L 227.179373 88.983676 
L 229.625434 88.983676 
L 232.071496 88.983676 
L 234.517557 88.983676 
L 236.963619 88.983676 
L 239.40968 88.983676 
L 241.855742 88.983676 
L 244.301803 88.983676 
L 246.747864 88.983676 
L 249.193926 88.983676 
L 251.639987 88.983676 
L 254.086049 88.983676 
L 256.53211 88.983676 
L 258.978172 88.983676 
L 261.424233 88.983676 
L 263.870294 88.983676 
L 266.316356 88.983676 
L 268.762417 88.983676 
L 271.208479 88.983676 
L 273.65454 88.983676 
L 276.100602 88.983676 
L 278.546663 88.983676 
L 280.992725 88.983676 
L 283.438786 88.983676 
L 285.884847 88.983676 
L 288.330909 88.983676 
L 290.77697 88.983676 
L 293.223032 88.983676 
L 295.669093 88.983676 
L 298.115155 88.983676 
L 300.561216 88.983676 
L 303.007277 88.983676 
L 305.453339 88.983676 
L 307.8994 88.983676 
L 310.345462 88.983676 
L 312.791523 88.983676 
" clip-path="url(#p124259f11e)" style="fill: none; stroke: #38588c; stroke-width: 1.5; stroke-linecap: square"/>
   </g>
   <g id="line2d_22">
    <path d="M 70.631442 88.983676 
L 73.077503 88.983676 
L 75.523564 88.983676 
L 77.969626 88.983676 
L 80.415687 88.983676 
L 82.861749 88.983676 
L 85.30781 88.983676 
L 87.753872 88.983676 
L 90.199933 88.983676 
L 92.645994 88.983676 
L 95.092056 88.983676 
L 97.538117 88.983676 
L 99.984179 88.983676 
L 102.43024 88.983676 
L 104.876302 88.983676 
L 107.322363 88.983676 
L 109.768424 88.983676 
L 112.214486 88.983676 
L 114.660547 88.983676 
L 117.106609 88.983676 
L 119.55267 88.983676 
L 121.998732 88.983676 
L 124.444793 88.983676 
L 126.890854 88.983676 
L 129.336916 88.983676 
L 131.782977 88.983676 
L 134.229039 88.983676 
L 136.6751 88.983676 
L 139.121162 88.983676 
L 141.567223 88.983676 
L 144.013284 88.983676 
L 146.459346 88.983676 
L 148.905407 88.983676 
L 151.351469 88.983676 
L 153.79753 88.983676 
L 156.243592 88.983676 
L 158.689653 88.983676 
L 161.135714 88.983676 
L 163.581776 88.983676 
L 166.027837 88.983676 
L 168.473899 88.983676 
L 170.91996 88.983676 
L 173.366022 88.983676 
L 175.812083 88.983676 
L 178.258144 88.983676 
L 180.704206 88.983676 
L 183.150267 88.983676 
L 185.596329 88.983676 
L 188.04239 88.983676 
L 190.488452 88.983676 
L 192.934513 88.983676 
L 195.380574 88.983676 
L 197.826636 88.983676 
L 200.272697 88.983676 
L 202.718759 88.983676 
L 205.16482 88.983676 
L 207.610882 88.983676 
L 210.056943 88.983676 
L 212.503004 88.983676 
L 214.949066 88.983676 
L 217.395127 88.983676 
L 219.841189 88.983676 
L 222.28725 88.983676 
L 224.733312 88.983676 
L 227.179373 88.983676 
L 229.625434 88.983676 
L 232.071496 88.983676 
L 234.517557 88.983676 
L 236.963619 88.983676 
L 239.40968 88.983676 
L 241.855742 88.983676 
L 244.301803 88.983676 
L 246.747864 88.983676 
L 249.193926 88.983676 
L 251.639987 88.983676 
L 254.086049 88.983676 
L 256.53211 88.983676 
L 258.978172 88.983676 
L 261.424233 88.983676 
L 263.870294 88.983676 
L 266.316356 88.983676 
L 268.762417 88.983676 
L 271.208479 88.983676 
L 273.65454 88.983676 
L 276.100602 88.983676 
L 278.546663 88.983676 
L 280.992725 88.983676 
L 283.438786 88.983676 
L 285.884847 88.983676 
L 288.330909 88.983676 
L 290.77697 88.983676 
L 293.223032 88.983676 
L 295.669093 88.983676 
L 298.115155 88.983676 
L 300.561216 88.983676 
L 303.007277 88.983676 
L 305.453339 88.983676 
L 307.8994 88.983676 
L 310.345462 88.983676 
L 312.791523 88.983676 
" clip-path="url(#p124259f11e)" style="fill: none; stroke: #34608d; stroke-width: 1.5; stroke-linecap: square"/>
   </g>
   <g id="line2d_23">
    <path d="M 70.631442 88.983676 
L 73.077503 88.983676 
L 75.523564 88.983676 
L 77.969626 88.983676 
L 80.415687 88.983676 
L 82.861749 88.983676 
L 85.30781 88.983676 
L 87.753872 88.983676 
L 90.199933 88.983676 
L 92.645994 88.983676 
L 95.092056 88.983676 
L 97.538117 88.983676 
L 99.984179 88.983676 
L 102.43024 88.983676 
L 104.876302 88.983676 
L 107.322363 88.983676 
L 109.768424 88.983676 
L 112.214486 88.983676 
L 114.660547 88.983676 
L 117.106609 88.983676 
L 119.55267 88.983676 
L 121.998732 88.983676 
L 124.444793 88.983676 
L 126.890854 88.983676 
L 129.336916 88.983676 
L 131.782977 88.983676 
L 134.229039 88.983676 
L 136.6751 88.983676 
L 139.121162 88.983676 
L 141.567223 88.983676 
L 144.013284 88.983676 
L 146.459346 88.983676 
L 148.905407 88.983676 
L 151.351469 88.983676 
L 153.79753 88.983676 
L 156.243592 88.983676 
L 158.689653 88.983676 
L 161.135714 88.983676 
L 163.581776 88.983676 
L 166.027837 88.983676 
L 168.473899 88.983676 
L 170.91996 88.983676 
L 173.366022 88.983676 
L 175.812083 88.983676 
L 178.258144 88.983676 
L 180.704206 88.983676 
L 183.150267 88.983676 
L 185.596329 88.983676 
L 188.04239 88.983676 
L 190.488452 88.983676 
L 192.934513 88.983676 
L 195.380574 88.983676 
L 197.826636 88.983676 
L 200.272697 88.983676 
L 202.718759 88.983676 
L 205.16482 88.983676 
L 207.610882 88.983676 
L 210.056943 88.983676 
L 212.503004 88.983676 
L 214.949066 88.983676 
L 217.395127 88.983676 
L 219.841189 88.983676 
L 222.28725 88.983676 
L 224.733312 88.983676 
L 227.179373 88.983676 
L 229.625434 88.983676 
L 232.071496 88.983676 
L 234.517557 88.983676 
L 236.963619 88.983676 
L 239.40968 88.983676 
L 241.855742 88.983676 
L 244.301803 88.983676 
L 246.747864 88.983676 
L 249.193926 88.983676 
L 251.639987 88.983676 
L 254.086049 88.983676 
L 256.53211 88.983676 
L 258.978172 88.983676 
L 261.424233 88.983676 
L 263.870294 88.983676 
L 266.316356 88.983676 
L 268.762417 88.983676 
L 271.208479 88.983676 
L 273.65454 88.983676 
L 276.100602 88.983676 
L 278.546663 88.983676 
L 280.992725 88.983676 
L 283.438786 88.983676 
L 285.884847 88.983676 
L 288.330909 88.983676 
L 290.77697 88.983676 
L 293.223032 88.983676 
L 295.669093 88.983676 
L 298.115155 88.983676 
L 300.561216 88.983676 
L 303.007277 88.983676 
L 305.453339 88.983676 
L 307.8994 88.983676 
L 310.345462 88.983676 
L 312.791523 88.983676 
" clip-path="url(#p124259f11e)" style="fill: none; stroke: #31688e; stroke-width: 1.5; stroke-linecap: square"/>
   </g>
   <g id="line2d_24">
    <path d="M 70.631442 88.983676 
L 73.077503 88.983676 
L 75.523564 88.983676 
L 77.969626 88.983676 
L 80.415687 88.983676 
L 82.861749 88.983676 
L 85.30781 88.983676 
L 87.753872 88.983676 
L 90.199933 88.983676 
L 92.645994 88.983676 
L 95.092056 88.983676 
L 97.538117 88.983676 
L 99.984179 88.983676 
L 102.43024 88.983676 
L 104.876302 88.983676 
L 107.322363 88.983676 
L 109.768424 88.983676 
L 112.214486 88.983676 
L 114.660547 88.983676 
L 117.106609 88.983676 
L 119.55267 88.983676 
L 121.998732 88.983676 
L 124.444793 88.983676 
L 126.890854 88.983676 
L 129.336916 88.983676 
L 131.782977 88.983676 
L 134.229039 88.983676 
L 136.6751 88.983676 
L 139.121162 88.983676 
L 141.567223 88.983676 
L 144.013284 88.983676 
L 146.459346 88.983676 
L 148.905407 88.983676 
L 151.351469 88.983676 
L 153.79753 88.983676 
L 156.243592 88.983676 
L 158.689653 88.983676 
L 161.135714 88.983676 
L 163.581776 88.983676 
L 166.027837 88.983676 
L 168.473899 88.983676 
L 170.91996 88.983676 
L 173.366022 88.983676 
L 175.812083 88.983676 
L 178.258144 88.983676 
L 180.704206 88.983676 
L 183.150267 88.983676 
L 185.596329 88.983676 
L 188.04239 88.983676 
L 190.488452 88.983676 
L 192.934513 88.983676 
L 195.380574 88.983676 
L 197.826636 88.983676 
L 200.272697 88.983676 
L 202.718759 88.983676 
L 205.16482 88.983676 
L 207.610882 88.983676 
L 210.056943 88.983676 
L 212.503004 88.983676 
L 214.949066 88.983676 
L 217.395127 88.983676 
L 219.841189 88.983676 
L 222.28725 88.983676 
L 224.733312 88.983676 
L 227.179373 88.983676 
L 229.625434 88.983676 
L 232.071496 88.983676 
L 234.517557 88.983676 
L 236.963619 88.983676 
L 239.40968 88.983676 
L 241.855742 88.983676 
L 244.301803 88.983676 
L 246.747864 88.983676 
L 249.193926 88.983676 
L 251.639987 88.983676 
L 254.086049 88.983676 
L 256.53211 88.983676 
L 258.978172 88.983676 
L 261.424233 88.983676 
L 263.870294 88.983676 
L 266.316356 88.983676 
L 268.762417 88.983676 
L 271.208479 88.983676 
L 273.65454 88.983676 
L 276.100602 88.983676 
L 278.546663 88.983676 
L 280.992725 88.983676 
L 283.438786 88.983676 
L 285.884847 88.983676 
L 288.330909 88.983676 
L 290.77697 88.983676 
L 293.223032 88.983676 
L 295.669093 88.983676 
L 298.115155 88.983676 
L 300.561216 88.983676 
L 303.007277 88.983676 
L 305.453339 88.983676 
L 307.8994 88.983676 
L 310.345462 88.983676 
L 312.791523 88.983676 
" clip-path="url(#p124259f11e)" style="fill: none; stroke: #2d708e; stroke-width: 1.5; stroke-linecap: square"/>
   </g>
   <g id="line2d_25">
    <path d="M 70.631442 88.983676 
L 73.077503 88.983676 
L 75.523564 88.983676 
L 77.969626 88.983676 
L 80.415687 88.983676 
L 82.861749 88.983676 
L 85.30781 88.983676 
L 87.753872 88.983676 
L 90.199933 88.983676 
L 92.645994 88.983676 
L 95.092056 88.983676 
L 97.538117 88.983676 
L 99.984179 88.983676 
L 102.43024 88.983676 
L 104.876302 88.983676 
L 107.322363 88.983676 
L 109.768424 88.983676 
L 112.214486 88.983676 
L 114.660547 88.983676 
L 117.106609 88.983676 
L 119.55267 88.983676 
L 121.998732 88.983676 
L 124.444793 88.983676 
L 126.890854 88.983676 
L 129.336916 88.983676 
L 131.782977 88.983676 
L 134.229039 88.983676 
L 136.6751 88.983676 
L 139.121162 88.983676 
L 141.567223 88.983676 
L 144.013284 88.983676 
L 146.459346 88.983676 
L 148.905407 88.983676 
L 151.351469 88.983676 
L 153.79753 88.983676 
L 156.243592 88.983676 
L 158.689653 88.983676 
L 161.135714 88.983676 
L 163.581776 88.983676 
L 166.027837 88.983676 
L 168.473899 88.983676 
L 170.91996 88.983676 
L 173.366022 88.983676 
L 175.812083 88.983676 
L 178.258144 88.983676 
L 180.704206 88.983676 
L 183.150267 88.983676 
L 185.596329 88.983676 
L 188.04239 88.983676 
L 190.488452 88.983676 
L 192.934513 88.983676 
L 195.380574 88.983676 
L 197.826636 88.983676 
L 200.272697 88.983676 
L 202.718759 88.983676 
L 205.16482 88.983676 
L 207.610882 88.983676 
L 210.056943 88.983676 
L 212.503004 88.983676 
L 214.949066 88.983676 
L 217.395127 88.983676 
L 219.841189 88.983676 
L 222.28725 88.983676 
L 224.733312 88.983676 
L 227.179373 88.983676 
L 229.625434 88.983676 
L 232.071496 88.983676 
L 234.517557 88.983676 
L 236.963619 88.983676 
L 239.40968 88.983676 
L 241.855742 88.983676 
L 244.301803 88.983676 
L 246.747864 88.983676 
L 249.193926 88.983676 
L 251.639987 88.983676 
L 254.086049 88.983676 
L 256.53211 88.983676 
L 258.978172 88.983676 
L 261.424233 88.983676 
L 263.870294 88.983676 
L 266.316356 88.983676 
L 268.762417 88.983676 
L 271.208479 88.983676 
L 273.65454 88.983676 
L 276.100602 88.983676 
L 278.546663 88.983676 
L 280.992725 88.983676 
L 283.438786 88.983676 
L 285.884847 88.983676 
L 288.330909 88.983676 
L 290.77697 88.983676 
L 293.223032 88.983676 
L 295.669093 88.983676 
L 298.115155 88.983676 
L 300.561216 88.983676 
L 303.007277 88.983676 
L 305.453339 88.983676 
L 307.8994 88.983676 
L 310.345462 88.983676 
L 312.791523 88.983676 
" clip-path="url(#p124259f11e)" style="fill: none; stroke: #2a768e; stroke-width: 1.5; stroke-linecap: square"/>
   </g>
   <g id="line2d_26">
    <path d="M 70.631442 88.983676 
L 73.077503 88.983676 
L 75.523564 88.983676 
L 77.969626 88.983676 
L 80.415687 88.983676 
L 82.861749 88.983676 
L 85.30781 88.983676 
L 87.753872 88.983676 
L 90.199933 88.983676 
L 92.645994 88.983676 
L 95.092056 88.983676 
L 97.538117 88.983676 
L 99.984179 88.983676 
L 102.43024 88.983676 
L 104.876302 88.983676 
L 107.322363 88.983676 
L 109.768424 88.983676 
L 112.214486 88.983676 
L 114.660547 88.983676 
L 117.106609 88.983676 
L 119.55267 88.983676 
L 121.998732 88.983676 
L 124.444793 88.983676 
L 126.890854 88.983676 
L 129.336916 88.983676 
L 131.782977 88.983676 
L 134.229039 88.983676 
L 136.6751 88.983676 
L 139.121162 88.983676 
L 141.567223 88.983676 
L 144.013284 88.983676 
L 146.459346 88.983676 
L 148.905407 88.983676 
L 151.351469 88.983676 
L 153.79753 88.983676 
L 156.243592 88.983676 
L 158.689653 88.983676 
L 161.135714 88.983676 
L 163.581776 88.983676 
L 166.027837 88.983676 
L 168.473899 88.983676 
L 170.91996 88.983676 
L 173.366022 88.983676 
L 175.812083 88.983676 
L 178.258144 88.983676 
L 180.704206 88.983676 
L 183.150267 88.983676 
L 185.596329 88.983676 
L 188.04239 88.983676 
L 190.488452 88.983676 
L 192.934513 88.983676 
L 195.380574 88.983676 
L 197.826636 88.983676 
L 200.272697 88.983676 
L 202.718759 88.983676 
L 205.16482 88.983676 
L 207.610882 88.983676 
L 210.056943 88.983676 
L 212.503004 88.983676 
L 214.949066 88.983676 
L 217.395127 88.983676 
L 219.841189 88.983676 
L 222.28725 88.983676 
L 224.733312 88.983676 
L 227.179373 88.983676 
L 229.625434 88.983676 
L 232.071496 88.983676 
L 234.517557 88.983676 
L 236.963619 88.983676 
L 239.40968 88.983676 
L 241.855742 88.983676 
L 244.301803 88.983676 
L 246.747864 88.983676 
L 249.193926 88.983676 
L 251.639987 88.983676 
L 254.086049 88.983676 
L 256.53211 88.983676 
L 258.978172 88.983676 
L 261.424233 88.983676 
L 263.870294 88.983676 
L 266.316356 88.983676 
L 268.762417 88.983676 
L 271.208479 88.983676 
L 273.65454 88.983676 
L 276.100602 88.983676 
L 278.546663 88.983676 
L 280.992725 88.983676 
L 283.438786 88.983676 
L 285.884847 88.983676 
L 288.330909 88.983676 
L 290.77697 88.983676 
L 293.223032 88.983676 
L 295.669093 88.983676 
L 298.115155 88.983676 
L 300.561216 88.983676 
L 303.007277 88.983676 
L 305.453339 88.983676 
L 307.8994 88.983676 
L 310.345462 88.983676 
L 312.791523 88.983676 
" clip-path="url(#p124259f11e)" style="fill: none; stroke: #277e8e; stroke-width: 1.5; stroke-linecap: square"/>
   </g>
   <g id="line2d_27">
    <path d="M 70.631442 88.983676 
L 73.077503 88.983676 
L 75.523564 88.983676 
L 77.969626 88.983676 
L 80.415687 88.983676 
L 82.861749 88.983676 
L 85.30781 88.983676 
L 87.753872 88.983676 
L 90.199933 88.983676 
L 92.645994 88.983676 
L 95.092056 88.983676 
L 97.538117 88.983676 
L 99.984179 88.983676 
L 102.43024 88.983676 
L 104.876302 88.983676 
L 107.322363 88.983676 
L 109.768424 88.983676 
L 112.214486 88.983676 
L 114.660547 88.983676 
L 117.106609 88.983676 
L 119.55267 88.983676 
L 121.998732 88.983676 
L 124.444793 88.983676 
L 126.890854 88.983676 
L 129.336916 88.983676 
L 131.782977 88.983676 
L 134.229039 88.983676 
L 136.6751 88.983676 
L 139.121162 88.983676 
L 141.567223 88.983676 
L 144.013284 88.983676 
L 146.459346 88.983676 
L 148.905407 88.983676 
L 151.351469 88.983676 
L 153.79753 88.983676 
L 156.243592 88.983676 
L 158.689653 88.983676 
L 161.135714 88.983676 
L 163.581776 88.983676 
L 166.027837 88.983676 
L 168.473899 88.983676 
L 170.91996 88.983676 
L 173.366022 88.983676 
L 175.812083 88.983676 
L 178.258144 88.983676 
L 180.704206 88.983676 
L 183.150267 88.983676 
L 185.596329 88.983676 
L 188.04239 88.983676 
L 190.488452 88.983676 
L 192.934513 88.983676 
L 195.380574 88.983676 
L 197.826636 88.983676 
L 200.272697 88.983676 
L 202.718759 88.983676 
L 205.16482 88.983676 
L 207.610882 88.983676 
L 210.056943 88.983676 
L 212.503004 88.983676 
L 214.949066 88.983676 
L 217.395127 88.983676 
L 219.841189 88.983676 
L 222.28725 88.983676 
L 224.733312 88.983676 
L 227.179373 88.983676 
L 229.625434 88.983676 
L 232.071496 88.983676 
L 234.517557 88.983676 
L 236.963619 88.983676 
L 239.40968 88.983676 
L 241.855742 88.983676 
L 244.301803 88.983676 
L 246.747864 88.983676 
L 249.193926 88.983676 
L 251.639987 88.983676 
L 254.086049 88.983676 
L 256.53211 88.983676 
L 258.978172 88.983676 
L 261.424233 88.983676 
L 263.870294 88.983676 
L 266.316356 88.983676 
L 268.762417 88.983676 
L 271.208479 88.983676 
L 273.65454 88.983676 
L 276.100602 88.983676 
L 278.546663 88.983676 
L 280.992725 88.983676 
L 283.438786 88.983676 
L 285.884847 88.983676 
L 288.330909 88.983676 
L 290.77697 88.983676 
L 293.223032 88.983676 
L 295.669093 88.983676 
L 298.115155 88.983676 
L 300.561216 88.983676 
L 303.007277 88.983676 
L 305.453339 88.983676 
L 307.8994 88.983676 
L 310.345462 88.983676 
L 312.791523 88.983676 
" clip-path="url(#p124259f11e)" style="fill: none; stroke: #25858e; stroke-width: 1.5; stroke-linecap: square"/>
   </g>
   <g id="line2d_28">
    <path d="M 70.631442 88.983676 
L 73.077503 88.983676 
L 75.523564 88.983676 
L 77.969626 88.983676 
L 80.415687 88.983676 
L 82.861749 88.983676 
L 85.30781 88.983676 
L 87.753872 88.983676 
L 90.199933 88.983676 
L 92.645994 88.983676 
L 95.092056 88.983676 
L 97.538117 88.983676 
L 99.984179 88.983676 
L 102.43024 88.983676 
L 104.876302 88.983676 
L 107.322363 88.983676 
L 109.768424 88.983676 
L 112.214486 88.983676 
L 114.660547 88.983676 
L 117.106609 88.983676 
L 119.55267 88.983676 
L 121.998732 88.983676 
L 124.444793 88.983676 
L 126.890854 88.983676 
L 129.336916 88.983676 
L 131.782977 88.983676 
L 134.229039 88.983676 
L 136.6751 88.983676 
L 139.121162 88.983676 
L 141.567223 88.983676 
L 144.013284 88.983676 
L 146.459346 88.983676 
L 148.905407 88.983676 
L 151.351469 88.983676 
L 153.79753 88.983676 
L 156.243592 88.983676 
L 158.689653 88.983676 
L 161.135714 88.983676 
L 163.581776 88.983676 
L 166.027837 88.983676 
L 168.473899 88.983676 
L 170.91996 88.983676 
L 173.366022 88.983676 
L 175.812083 88.983676 
L 178.258144 88.983676 
L 180.704206 88.983676 
L 183.150267 88.983676 
L 185.596329 88.983676 
L 188.04239 88.983676 
L 190.488452 88.983676 
L 192.934513 88.983676 
L 195.380574 88.983676 
L 197.826636 88.983676 
L 200.272697 88.983676 
L 202.718759 88.983676 
L 205.16482 88.983676 
L 207.610882 88.983676 
L 210.056943 88.983676 
L 212.503004 88.983676 
L 214.949066 88.983676 
L 217.395127 88.983676 
L 219.841189 88.983676 
L 222.28725 88.983676 
L 224.733312 88.983676 
L 227.179373 88.983676 
L 229.625434 88.983676 
L 232.071496 88.983676 
L 234.517557 88.983676 
L 236.963619 88.983676 
L 239.40968 88.983676 
L 241.855742 88.983676 
L 244.301803 88.983676 
L 246.747864 88.983676 
L 249.193926 88.983676 
L 251.639987 88.983676 
L 254.086049 88.983676 
L 256.53211 88.983676 
L 258.978172 88.983676 
L 261.424233 88.983676 
L 263.870294 88.983676 
L 266.316356 88.983676 
L 268.762417 88.983676 
L 271.208479 88.983676 
L 273.65454 88.983676 
L 276.100602 88.983676 
L 278.546663 88.983676 
L 280.992725 88.983676 
L 283.438786 88.983676 
L 285.884847 88.983676 
L 288.330909 88.983676 
L 290.77697 88.983676 
L 293.223032 88.983676 
L 295.669093 88.983676 
L 298.115155 88.983676 
L 300.561216 88.983676 
L 303.007277 88.983676 
L 305.453339 88.983676 
L 307.8994 88.983676 
L 310.345462 88.983676 
L 312.791523 88.983676 
" clip-path="url(#p124259f11e)" style="fill: none; stroke: #228d8d; stroke-width: 1.5; stroke-linecap: square"/>
   </g>
   <g id="line2d_29">
    <path d="M 70.631442 88.983676 
L 73.077503 88.983676 
L 75.523564 88.983676 
L 77.969626 88.983676 
L 80.415687 88.983676 
L 82.861749 88.983676 
L 85.30781 88.983676 
L 87.753872 88.983676 
L 90.199933 88.983676 
L 92.645994 88.983676 
L 95.092056 88.983676 
L 97.538117 88.983676 
L 99.984179 88.983676 
L 102.43024 88.983676 
L 104.876302 88.983676 
L 107.322363 88.983676 
L 109.768424 88.983676 
L 112.214486 88.983676 
L 114.660547 88.983676 
L 117.106609 88.983676 
L 119.55267 88.983676 
L 121.998732 88.983676 
L 124.444793 88.983676 
L 126.890854 88.983676 
L 129.336916 88.983676 
L 131.782977 88.983676 
L 134.229039 88.983676 
L 136.6751 88.983676 
L 139.121162 88.983676 
L 141.567223 88.983676 
L 144.013284 88.983676 
L 146.459346 88.983676 
L 148.905407 88.983676 
L 151.351469 88.983676 
L 153.79753 88.983676 
L 156.243592 88.983676 
L 158.689653 88.983676 
L 161.135714 88.983676 
L 163.581776 88.983676 
L 166.027837 88.983676 
L 168.473899 88.983676 
L 170.91996 88.983676 
L 173.366022 88.983676 
L 175.812083 88.983676 
L 178.258144 88.983676 
L 180.704206 88.983676 
L 183.150267 88.983676 
L 185.596329 88.983676 
L 188.04239 88.983676 
L 190.488452 88.983676 
L 192.934513 88.983676 
L 195.380574 88.983676 
L 197.826636 88.983676 
L 200.272697 88.983676 
L 202.718759 88.983676 
L 205.16482 88.983676 
L 207.610882 88.983676 
L 210.056943 88.983676 
L 212.503004 88.983676 
L 214.949066 88.983676 
L 217.395127 88.983676 
L 219.841189 88.983676 
L 222.28725 88.983676 
L 224.733312 88.983676 
L 227.179373 88.983676 
L 229.625434 88.983676 
L 232.071496 88.983676 
L 234.517557 88.983676 
L 236.963619 88.983676 
L 239.40968 88.983676 
L 241.855742 88.983676 
L 244.301803 88.983676 
L 246.747864 88.983676 
L 249.193926 88.983676 
L 251.639987 88.983676 
L 254.086049 88.983676 
L 256.53211 88.983676 
L 258.978172 88.983676 
L 261.424233 88.983676 
L 263.870294 88.983676 
L 266.316356 88.983676 
L 268.762417 88.983676 
L 271.208479 88.983676 
L 273.65454 88.983676 
L 276.100602 88.983676 
L 278.546663 88.983676 
L 280.992725 88.983676 
L 283.438786 88.983676 
L 285.884847 88.983676 
L 288.330909 88.983676 
L 290.77697 88.983676 
L 293.223032 88.983676 
L 295.669093 88.983676 
L 298.115155 88.983676 
L 300.561216 88.983676 
L 303.007277 88.983676 
L 305.453339 88.983676 
L 307.8994 88.983676 
L 310.345462 88.983676 
L 312.791523 88.983676 
" clip-path="url(#p124259f11e)" style="fill: none; stroke: #20938c; stroke-width: 1.5; stroke-linecap: square"/>
   </g>
   <g id="line2d_30">
    <path d="M 70.631442 88.983676 
L 73.077503 88.983676 
L 75.523564 88.983676 
L 77.969626 88.983676 
L 80.415687 88.983676 
L 82.861749 88.983676 
L 85.30781 88.983676 
L 87.753872 88.983676 
L 90.199933 88.983676 
L 92.645994 88.983676 
L 95.092056 88.983676 
L 97.538117 88.983676 
L 99.984179 88.983676 
L 102.43024 88.983676 
L 104.876302 88.983676 
L 107.322363 88.983676 
L 109.768424 88.983676 
L 112.214486 88.983676 
L 114.660547 88.983676 
L 117.106609 88.983676 
L 119.55267 88.983676 
L 121.998732 88.983676 
L 124.444793 88.983676 
L 126.890854 88.983676 
L 129.336916 88.983676 
L 131.782977 88.983676 
L 134.229039 88.983676 
L 136.6751 88.983676 
L 139.121162 88.983676 
L 141.567223 88.983676 
L 144.013284 88.983676 
L 146.459346 88.983676 
L 148.905407 88.983676 
L 151.351469 88.983676 
L 153.79753 88.983676 
L 156.243592 88.983676 
L 158.689653 88.983676 
L 161.135714 88.983676 
L 163.581776 88.983676 
L 166.027837 88.983676 
L 168.473899 88.983676 
L 170.91996 88.983676 
L 173.366022 88.983676 
L 175.812083 88.983676 
L 178.258144 88.983676 
L 180.704206 88.983676 
L 183.150267 88.983676 
L 185.596329 88.983676 
L 188.04239 88.983676 
L 190.488452 88.983676 
L 192.934513 88.983676 
L 195.380574 88.983676 
L 197.826636 88.983676 
L 200.272697 88.983676 
L 202.718759 88.983676 
L 205.16482 88.983676 
L 207.610882 88.983676 
L 210.056943 88.983676 
L 212.503004 88.983676 
L 214.949066 88.983676 
L 217.395127 88.983676 
L 219.841189 88.983676 
L 222.28725 88.983676 
L 224.733312 88.983676 
L 227.179373 88.983676 
L 229.625434 88.983676 
L 232.071496 88.983676 
L 234.517557 88.983676 
L 236.963619 88.983676 
L 239.40968 88.983676 
L 241.855742 88.983676 
L 244.301803 88.983676 
L 246.747864 88.983676 
L 249.193926 88.983676 
L 251.639987 88.983676 
L 254.086049 88.983676 
L 256.53211 88.983676 
L 258.978172 88.983676 
L 261.424233 88.983676 
L 263.870294 88.983676 
L 266.316356 88.983676 
L 268.762417 88.983676 
L 271.208479 88.983676 
L 273.65454 88.983676 
L 276.100602 88.983676 
L 278.546663 88.983676 
L 280.992725 88.983676 
L 283.438786 88.983676 
L 285.884847 88.983676 
L 288.330909 88.983676 
L 290.77697 88.983676 
L 293.223032 88.983676 
L 295.669093 88.983676 
L 298.115155 88.983676 
L 300.561216 88.983676 
L 303.007277 88.983676 
L 305.453339 88.983676 
L 307.8994 88.983676 
L 310.345462 88.983676 
L 312.791523 88.983676 
" clip-path="url(#p124259f11e)" style="fill: none; stroke: #1e9b8a; stroke-width: 1.5; stroke-linecap: square"/>
   </g>
   <g id="line2d_31">
    <path d="M 70.631442 88.983676 
L 73.077503 88.983676 
L 75.523564 88.983676 
L 77.969626 88.983676 
L 80.415687 88.983676 
L 82.861749 88.983676 
L 85.30781 88.983676 
L 87.753872 88.983676 
L 90.199933 88.983676 
L 92.645994 88.983676 
L 95.092056 88.983676 
L 97.538117 88.983676 
L 99.984179 88.983676 
L 102.43024 88.983676 
L 104.876302 88.983676 
L 107.322363 88.983676 
L 109.768424 88.983676 
L 112.214486 88.983676 
L 114.660547 88.983676 
L 117.106609 88.983676 
L 119.55267 88.983676 
L 121.998732 88.983676 
L 124.444793 88.983676 
L 126.890854 88.983676 
L 129.336916 88.983676 
L 131.782977 88.983676 
L 134.229039 88.983676 
L 136.6751 88.983676 
L 139.121162 88.983676 
L 141.567223 88.983676 
L 144.013284 88.983676 
L 146.459346 88.983676 
L 148.905407 88.983676 
L 151.351469 88.983676 
L 153.79753 88.983676 
L 156.243592 88.983676 
L 158.689653 88.983676 
L 161.135714 88.983676 
L 163.581776 88.983676 
L 166.027837 88.983676 
L 168.473899 88.983676 
L 170.91996 88.983676 
L 173.366022 88.983676 
L 175.812083 88.983676 
L 178.258144 88.983676 
L 180.704206 88.983676 
L 183.150267 88.983676 
L 185.596329 88.983676 
L 188.04239 88.983676 
L 190.488452 88.983676 
L 192.934513 88.983676 
L 195.380574 88.983676 
L 197.826636 88.983676 
L 200.272697 88.983676 
L 202.718759 88.983676 
L 205.16482 88.983676 
L 207.610882 88.983676 
L 210.056943 88.983676 
L 212.503004 88.983676 
L 214.949066 88.983676 
L 217.395127 88.983676 
L 219.841189 88.983676 
L 222.28725 88.983676 
L 224.733312 88.983676 
L 227.179373 88.983676 
L 229.625434 88.983676 
L 232.071496 88.983676 
L 234.517557 88.983676 
L 236.963619 88.983676 
L 239.40968 88.983676 
L 241.855742 88.983676 
L 244.301803 88.983676 
L 246.747864 88.983676 
L 249.193926 88.983676 
L 251.639987 88.983676 
L 254.086049 88.983676 
L 256.53211 88.983676 
L 258.978172 88.983676 
L 261.424233 88.983676 
L 263.870294 88.983676 
L 266.316356 88.983676 
L 268.762417 88.983676 
L 271.208479 88.983676 
L 273.65454 88.983676 
L 276.100602 88.983676 
L 278.546663 88.983676 
L 280.992725 88.983676 
L 283.438786 88.983676 
L 285.884847 88.983676 
L 288.330909 88.983676 
L 290.77697 88.983676 
L 293.223032 88.983676 
L 295.669093 88.983676 
L 298.115155 88.983676 
L 300.561216 88.983676 
L 303.007277 88.983676 
L 305.453339 88.983676 
L 307.8994 88.983676 
L 310.345462 88.983676 
L 312.791523 88.983676 
" clip-path="url(#p124259f11e)" style="fill: none; stroke: #1fa287; stroke-width: 1.5; stroke-linecap: square"/>
   </g>
   <g id="line2d_32">
    <path d="M 70.631442 88.983676 
L 73.077503 88.983676 
L 75.523564 88.983676 
L 77.969626 88.983676 
L 80.415687 88.983676 
L 82.861749 88.983676 
L 85.30781 88.983676 
L 87.753872 88.983676 
L 90.199933 88.983676 
L 92.645994 88.983676 
L 95.092056 88.983676 
L 97.538117 88.983676 
L 99.984179 88.983676 
L 102.43024 88.983676 
L 104.876302 88.983676 
L 107.322363 88.983676 
L 109.768424 88.983676 
L 112.214486 88.983676 
L 114.660547 88.983676 
L 117.106609 88.983676 
L 119.55267 88.983676 
L 121.998732 88.983676 
L 124.444793 88.983676 
L 126.890854 88.983676 
L 129.336916 88.983676 
L 131.782977 88.983676 
L 134.229039 88.983676 
L 136.6751 88.983676 
L 139.121162 88.983676 
L 141.567223 88.983676 
L 144.013284 88.983676 
L 146.459346 88.983676 
L 148.905407 88.983676 
L 151.351469 88.983676 
L 153.79753 88.983676 
L 156.243592 88.983676 
L 158.689653 88.983676 
L 161.135714 88.983676 
L 163.581776 88.983676 
L 166.027837 88.983676 
L 168.473899 88.983676 
L 170.91996 88.983676 
L 173.366022 88.983676 
L 175.812083 88.983676 
L 178.258144 88.983676 
L 180.704206 88.983676 
L 183.150267 88.983676 
L 185.596329 88.983676 
L 188.04239 88.983676 
L 190.488452 88.983676 
L 192.934513 88.983676 
L 195.380574 88.983676 
L 197.826636 88.983676 
L 200.272697 88.983676 
L 202.718759 88.983676 
L 205.16482 88.983676 
L 207.610882 88.983676 
L 210.056943 88.983676 
L 212.503004 88.983676 
L 214.949066 88.983676 
L 217.395127 88.983676 
L 219.841189 88.983676 
L 222.28725 88.983676 
L 224.733312 88.983676 
L 227.179373 88.983676 
L 229.625434 88.983676 
L 232.071496 88.983676 
L 234.517557 88.983676 
L 236.963619 88.983676 
L 239.40968 88.983676 
L 241.855742 88.983676 
L 244.301803 88.983676 
L 246.747864 88.983676 
L 249.193926 88.983676 
L 251.639987 88.983676 
L 254.086049 88.983676 
L 256.53211 88.983676 
L 258.978172 88.983676 
L 261.424233 88.983676 
L 263.870294 88.983676 
L 266.316356 88.983676 
L 268.762417 88.983676 
L 271.208479 88.983676 
L 273.65454 88.983676 
L 276.100602 88.983676 
L 278.546663 88.983676 
L 280.992725 88.983676 
L 283.438786 88.983676 
L 285.884847 88.983676 
L 288.330909 88.983676 
L 290.77697 88.983676 
L 293.223032 88.983676 
L 295.669093 88.983676 
L 298.115155 88.983676 
L 300.561216 88.983676 
L 303.007277 88.983676 
L 305.453339 88.983676 
L 307.8994 88.983676 
L 310.345462 88.983676 
L 312.791523 88.983676 
" clip-path="url(#p124259f11e)" style="fill: none; stroke: #24aa83; stroke-width: 1.5; stroke-linecap: square"/>
   </g>
   <g id="line2d_33">
    <path d="M 70.631442 88.983676 
L 73.077503 88.983676 
L 75.523564 88.983676 
L 77.969626 88.983676 
L 80.415687 88.983676 
L 82.861749 88.983676 
L 85.30781 88.983676 
L 87.753872 88.983676 
L 90.199933 88.983676 
L 92.645994 88.983676 
L 95.092056 88.983676 
L 97.538117 88.983676 
L 99.984179 88.983676 
L 102.43024 88.983676 
L 104.876302 88.983676 
L 107.322363 88.983676 
L 109.768424 88.983676 
L 112.214486 88.983676 
L 114.660547 88.983676 
L 117.106609 88.983676 
L 119.55267 88.983676 
L 121.998732 88.983676 
L 124.444793 88.983676 
L 126.890854 88.983676 
L 129.336916 88.983676 
L 131.782977 88.983676 
L 134.229039 88.983676 
L 136.6751 88.983676 
L 139.121162 88.983676 
L 141.567223 88.983676 
L 144.013284 88.983676 
L 146.459346 88.983676 
L 148.905407 88.983676 
L 151.351469 88.983676 
L 153.79753 88.983676 
L 156.243592 88.983676 
L 158.689653 88.983676 
L 161.135714 88.983676 
L 163.581776 88.983676 
L 166.027837 88.983676 
L 168.473899 88.983676 
L 170.91996 88.983676 
L 173.366022 88.983676 
L 175.812083 88.983676 
L 178.258144 88.983676 
L 180.704206 88.983676 
L 183.150267 88.983676 
L 185.596329 88.983676 
L 188.04239 88.983676 
L 190.488452 88.983676 
L 192.934513 88.983676 
L 195.380574 88.983676 
L 197.826636 88.983676 
L 200.272697 88.983676 
L 202.718759 88.983676 
L 205.16482 88.983676 
L 207.610882 88.983676 
L 210.056943 88.983676 
L 212.503004 88.983676 
L 214.949066 88.983676 
L 217.395127 88.983676 
L 219.841189 88.983676 
L 222.28725 88.983676 
L 224.733312 88.983676 
L 227.179373 88.983676 
L 229.625434 88.983676 
L 232.071496 88.983676 
L 234.517557 88.983676 
L 236.963619 88.983676 
L 239.40968 88.983676 
L 241.855742 88.983676 
L 244.301803 88.983676 
L 246.747864 88.983676 
L 249.193926 88.983676 
L 251.639987 88.983676 
L 254.086049 88.983676 
L 256.53211 88.983676 
L 258.978172 88.983676 
L 261.424233 88.983676 
L 263.870294 88.983676 
L 266.316356 88.983676 
L 268.762417 88.983676 
L 271.208479 88.983676 
L 273.65454 88.983676 
L 276.100602 88.983676 
L 278.546663 88.983676 
L 280.992725 88.983676 
L 283.438786 88.983676 
L 285.884847 88.983676 
L 288.330909 88.983676 
L 290.77697 88.983676 
L 293.223032 88.983676 
L 295.669093 88.983676 
L 298.115155 88.983676 
L 300.561216 88.983676 
L 303.007277 88.983676 
L 305.453339 88.983676 
L 307.8994 88.983676 
L 310.345462 88.983676 
L 312.791523 88.983676 
" clip-path="url(#p124259f11e)" style="fill: none; stroke: #2ab07f; stroke-width: 1.5; stroke-linecap: square"/>
   </g>
   <g id="line2d_34">
    <path d="M 70.631442 88.983676 
L 73.077503 88.983676 
L 75.523564 88.983676 
L 77.969626 88.983676 
L 80.415687 88.983676 
L 82.861749 88.983676 
L 85.30781 88.983676 
L 87.753872 88.983676 
L 90.199933 88.983676 
L 92.645994 88.983676 
L 95.092056 88.983676 
L 97.538117 88.983676 
L 99.984179 88.983676 
L 102.43024 88.983676 
L 104.876302 88.983676 
L 107.322363 88.983676 
L 109.768424 88.983676 
L 112.214486 88.983676 
L 114.660547 88.983676 
L 117.106609 88.983676 
L 119.55267 88.983676 
L 121.998732 88.983676 
L 124.444793 88.983676 
L 126.890854 88.983676 
L 129.336916 88.983676 
L 131.782977 88.983676 
L 134.229039 88.983676 
L 136.6751 88.983676 
L 139.121162 88.983676 
L 141.567223 88.983676 
L 144.013284 88.983676 
L 146.459346 88.983676 
L 148.905407 88.983676 
L 151.351469 88.983676 
L 153.79753 88.983676 
L 156.243592 88.983676 
L 158.689653 88.983676 
L 161.135714 88.983676 
L 163.581776 88.983676 
L 166.027837 88.983676 
L 168.473899 88.983676 
L 170.91996 88.983676 
L 173.366022 88.983676 
L 175.812083 88.983676 
L 178.258144 88.983676 
L 180.704206 88.983676 
L 183.150267 88.983676 
L 185.596329 88.983676 
L 188.04239 88.983676 
L 190.488452 88.983676 
L 192.934513 88.983676 
L 195.380574 88.983676 
L 197.826636 88.983676 
L 200.272697 88.983676 
L 202.718759 88.983676 
L 205.16482 88.983676 
L 207.610882 88.983676 
L 210.056943 88.983676 
L 212.503004 88.983676 
L 214.949066 88.983676 
L 217.395127 88.983676 
L 219.841189 88.983676 
L 222.28725 88.983676 
L 224.733312 88.983676 
L 227.179373 88.983676 
L 229.625434 88.983676 
L 232.071496 88.983676 
L 234.517557 88.983676 
L 236.963619 88.983676 
L 239.40968 88.983676 
L 241.855742 88.983676 
L 244.301803 88.983676 
L 246.747864 88.983676 
L 249.193926 88.983676 
L 251.639987 88.983676 
L 254.086049 88.983676 
L 256.53211 88.983676 
L 258.978172 88.983676 
L 261.424233 88.983676 
L 263.870294 88.983676 
L 266.316356 88.983676 
L 268.762417 88.983676 
L 271.208479 88.983676 
L 273.65454 88.983676 
L 276.100602 88.983676 
L 278.546663 88.983676 
L 280.992725 88.983676 
L 283.438786 88.983676 
L 285.884847 88.983676 
L 288.330909 88.983676 
L 290.77697 88.983676 
L 293.223032 88.983676 
L 295.669093 88.983676 
L 298.115155 88.983676 
L 300.561216 88.983676 
L 303.007277 88.983676 
L 305.453339 88.983676 
L 307.8994 88.983676 
L 310.345462 88.983676 
L 312.791523 88.983676 
" clip-path="url(#p124259f11e)" style="fill: none; stroke: #35b779; stroke-width: 1.5; stroke-linecap: square"/>
   </g>
   <g id="line2d_35">
    <path d="M 70.631442 88.983676 
L 73.077503 88.983676 
L 75.523564 88.983676 
L 77.969626 88.983676 
L 80.415687 88.983676 
L 82.861749 88.983676 
L 85.30781 88.983676 
L 87.753872 88.983676 
L 90.199933 88.983676 
L 92.645994 88.983676 
L 95.092056 88.983676 
L 97.538117 88.983676 
L 99.984179 88.983676 
L 102.43024 88.983676 
L 104.876302 88.983676 
L 107.322363 88.983676 
L 109.768424 88.983676 
L 112.214486 88.983676 
L 114.660547 88.983676 
L 117.106609 88.983676 
L 119.55267 88.983676 
L 121.998732 88.983676 
L 124.444793 88.983676 
L 126.890854 88.983676 
L 129.336916 88.983676 
L 131.782977 88.983676 
L 134.229039 88.983676 
L 136.6751 88.983676 
L 139.121162 88.983676 
L 141.567223 88.983676 
L 144.013284 88.983676 
L 146.459346 88.983676 
L 148.905407 88.983676 
L 151.351469 88.983676 
L 153.79753 88.983676 
L 156.243592 88.983676 
L 158.689653 88.983676 
L 161.135714 88.983676 
L 163.581776 88.983676 
L 166.027837 88.983676 
L 168.473899 88.983676 
L 170.91996 88.983676 
L 173.366022 88.983676 
L 175.812083 88.983676 
L 178.258144 88.983676 
L 180.704206 88.983676 
L 183.150267 88.983676 
L 185.596329 88.983676 
L 188.04239 88.983676 
L 190.488452 88.983676 
L 192.934513 88.983676 
L 195.380574 88.983676 
L 197.826636 88.983676 
L 200.272697 88.983676 
L 202.718759 88.983676 
L 205.16482 88.983676 
L 207.610882 88.983676 
L 210.056943 88.983676 
L 212.503004 88.983676 
L 214.949066 88.983676 
L 217.395127 88.983676 
L 219.841189 88.983676 
L 222.28725 88.983676 
L 224.733312 88.983676 
L 227.179373 88.983676 
L 229.625434 88.983676 
L 232.071496 88.983676 
L 234.517557 88.983676 
L 236.963619 88.983676 
L 239.40968 88.983676 
L 241.855742 88.983676 
L 244.301803 88.983676 
L 246.747864 88.983676 
L 249.193926 88.983676 
L 251.639987 88.983676 
L 254.086049 88.983676 
L 256.53211 88.983676 
L 258.978172 88.983676 
L 261.424233 88.983676 
L 263.870294 88.983676 
L 266.316356 88.983676 
L 268.762417 88.983676 
L 271.208479 88.983676 
L 273.65454 88.983676 
L 276.100602 88.983676 
L 278.546663 88.983676 
L 280.992725 88.983676 
L 283.438786 88.983676 
L 285.884847 88.983676 
L 288.330909 88.983676 
L 290.77697 88.983676 
L 293.223032 88.983676 
L 295.669093 88.983676 
L 298.115155 88.983676 
L 300.561216 88.983676 
L 303.007277 88.983676 
L 305.453339 88.983676 
L 307.8994 88.983676 
L 310.345462 88.983676 
L 312.791523 88.983676 
" clip-path="url(#p124259f11e)" style="fill: none; stroke: #42be71; stroke-width: 1.5; stroke-linecap: square"/>
   </g>
   <g id="line2d_36">
    <path d="M 70.631442 88.983676 
L 73.077503 88.983676 
L 75.523564 88.983676 
L 77.969626 88.983676 
L 80.415687 88.983676 
L 82.861749 88.983676 
L 85.30781 88.983676 
L 87.753872 88.983676 
L 90.199933 88.983676 
L 92.645994 88.983676 
L 95.092056 88.983676 
L 97.538117 88.983676 
L 99.984179 88.983676 
L 102.43024 88.983676 
L 104.876302 88.983676 
L 107.322363 88.983676 
L 109.768424 88.983676 
L 112.214486 88.983676 
L 114.660547 88.983676 
L 117.106609 88.983676 
L 119.55267 88.983676 
L 121.998732 88.983676 
L 124.444793 88.983676 
L 126.890854 88.983676 
L 129.336916 88.983676 
L 131.782977 88.983676 
L 134.229039 88.983676 
L 136.6751 88.983676 
L 139.121162 88.983676 
L 141.567223 88.983676 
L 144.013284 88.983676 
L 146.459346 88.983676 
L 148.905407 88.983676 
L 151.351469 88.983676 
L 153.79753 88.983676 
L 156.243592 88.983676 
L 158.689653 88.983676 
L 161.135714 88.983676 
L 163.581776 88.983676 
L 166.027837 88.983676 
L 168.473899 88.983676 
L 170.91996 88.983676 
L 173.366022 88.983676 
L 175.812083 88.983676 
L 178.258144 88.983676 
L 180.704206 88.983676 
L 183.150267 88.983676 
L 185.596329 88.983676 
L 188.04239 88.983676 
L 190.488452 88.983676 
L 192.934513 88.983676 
L 195.380574 88.983676 
L 197.826636 88.983676 
L 200.272697 88.983676 
L 202.718759 88.983676 
L 205.16482 88.983676 
L 207.610882 88.983676 
L 210.056943 88.983676 
L 212.503004 88.983676 
L 214.949066 88.983676 
L 217.395127 88.983676 
L 219.841189 88.983676 
L 222.28725 88.983676 
L 224.733312 88.983676 
L 227.179373 88.983676 
L 229.625434 88.983676 
L 232.071496 88.983676 
L 234.517557 88.983676 
L 236.963619 88.983676 
L 239.40968 88.983676 
L 241.855742 88.983676 
L 244.301803 88.983676 
L 246.747864 88.983676 
L 249.193926 88.983676 
L 251.639987 88.983676 
L 254.086049 88.983676 
L 256.53211 88.983676 
L 258.978172 88.983676 
L 261.424233 88.983676 
L 263.870294 88.983676 
L 266.316356 88.983676 
L 268.762417 88.983676 
L 271.208479 88.983676 
L 273.65454 88.983676 
L 276.100602 88.983676 
L 278.546663 88.983676 
L 280.992725 88.983676 
L 283.438786 88.983676 
L 285.884847 88.983676 
L 288.330909 88.983676 
L 290.77697 88.983676 
L 293.223032 88.983676 
L 295.669093 88.983676 
L 298.115155 88.983676 
L 300.561216 88.983676 
L 303.007277 88.983676 
L 305.453339 88.983676 
L 307.8994 88.983676 
L 310.345462 88.983676 
L 312.791523 88.983676 
" clip-path="url(#p124259f11e)" style="fill: none; stroke: #52c569; stroke-width: 1.5; stroke-linecap: square"/>
   </g>
   <g id="line2d_37">
    <path d="M 70.631442 88.983676 
L 73.077503 88.983676 
L 75.523564 88.983676 
L 77.969626 88.983676 
L 80.415687 88.983676 
L 82.861749 88.983676 
L 85.30781 88.983676 
L 87.753872 88.983676 
L 90.199933 88.983676 
L 92.645994 88.983676 
L 95.092056 88.983676 
L 97.538117 88.983676 
L 99.984179 88.983676 
L 102.43024 88.983676 
L 104.876302 88.983676 
L 107.322363 88.983676 
L 109.768424 88.983676 
L 112.214486 88.983676 
L 114.660547 88.983676 
L 117.106609 88.983676 
L 119.55267 88.983676 
L 121.998732 88.983676 
L 124.444793 88.983676 
L 126.890854 88.983676 
L 129.336916 88.983676 
L 131.782977 88.983676 
L 134.229039 88.983676 
L 136.6751 88.983676 
L 139.121162 88.983676 
L 141.567223 88.983676 
L 144.013284 88.983676 
L 146.459346 88.983676 
L 148.905407 88.983676 
L 151.351469 88.983676 
L 153.79753 88.983676 
L 156.243592 88.983676 
L 158.689653 88.983676 
L 161.135714 88.983676 
L 163.581776 88.983676 
L 166.027837 88.983676 
L 168.473899 88.983676 
L 170.91996 88.983676 
L 173.366022 88.983676 
L 175.812083 88.983676 
L 178.258144 88.983676 
L 180.704206 88.983676 
L 183.150267 88.983676 
L 185.596329 88.983676 
L 188.04239 88.983676 
L 190.488452 88.983676 
L 192.934513 88.983676 
L 195.380574 88.983676 
L 197.826636 88.983676 
L 200.272697 88.983676 
L 202.718759 88.983676 
L 205.16482 88.983676 
L 207.610882 88.983676 
L 210.056943 88.983676 
L 212.503004 88.983676 
L 214.949066 88.983676 
L 217.395127 88.983676 
L 219.841189 88.983676 
L 222.28725 88.983676 
L 224.733312 88.983676 
L 227.179373 88.983676 
L 229.625434 88.983676 
L 232.071496 88.983676 
L 234.517557 88.983676 
L 236.963619 88.983676 
L 239.40968 88.983676 
L 241.855742 88.983676 
L 244.301803 88.983676 
L 246.747864 88.983676 
L 249.193926 88.983676 
L 251.639987 88.983676 
L 254.086049 88.983676 
L 256.53211 88.983676 
L 258.978172 88.983676 
L 261.424233 88.983676 
L 263.870294 88.983676 
L 266.316356 88.983676 
L 268.762417 88.983676 
L 271.208479 88.983676 
L 273.65454 88.983676 
L 276.100602 88.983676 
L 278.546663 88.983676 
L 280.992725 88.983676 
L 283.438786 88.983676 
L 285.884847 88.983676 
L 288.330909 88.983676 
L 290.77697 88.983676 
L 293.223032 88.983676 
L 295.669093 88.983676 
L 298.115155 88.983676 
L 300.561216 88.983676 
L 303.007277 88.983676 
L 305.453339 88.983676 
L 307.8994 88.983676 
L 310.345462 88.983676 
L 312.791523 88.983676 
" clip-path="url(#p124259f11e)" style="fill: none; stroke: #60ca60; stroke-width: 1.5; stroke-linecap: square"/>
   </g>
   <g id="line2d_38">
    <path d="M 70.631442 88.983676 
L 73.077503 88.983676 
L 75.523564 88.983676 
L 77.969626 88.983676 
L 80.415687 88.983676 
L 82.861749 88.983676 
L 85.30781 88.983676 
L 87.753872 88.983676 
L 90.199933 88.983676 
L 92.645994 88.983676 
L 95.092056 88.983676 
L 97.538117 88.983676 
L 99.984179 88.983676 
L 102.43024 88.983676 
L 104.876302 88.983676 
L 107.322363 88.983676 
L 109.768424 88.983676 
L 112.214486 88.983676 
L 114.660547 88.983676 
L 117.106609 88.983676 
L 119.55267 88.983676 
L 121.998732 88.983676 
L 124.444793 88.983676 
L 126.890854 88.983676 
L 129.336916 88.983676 
L 131.782977 88.983676 
L 134.229039 88.983676 
L 136.6751 88.983676 
L 139.121162 88.983676 
L 141.567223 88.983676 
L 144.013284 88.983676 
L 146.459346 88.983676 
L 148.905407 88.983676 
L 151.351469 88.983676 
L 153.79753 88.983676 
L 156.243592 88.983676 
L 158.689653 88.983676 
L 161.135714 88.983676 
L 163.581776 88.983676 
L 166.027837 88.983676 
L 168.473899 88.983676 
L 170.91996 88.983676 
L 173.366022 88.983676 
L 175.812083 88.983676 
L 178.258144 88.983676 
L 180.704206 88.983676 
L 183.150267 88.983676 
L 185.596329 88.983676 
L 188.04239 88.983676 
L 190.488452 88.983676 
L 192.934513 88.983676 
L 195.380574 88.983676 
L 197.826636 88.983676 
L 200.272697 88.983676 
L 202.718759 88.983676 
L 205.16482 88.983676 
L 207.610882 88.983676 
L 210.056943 88.983676 
L 212.503004 88.983676 
L 214.949066 88.983676 
L 217.395127 88.983676 
L 219.841189 88.983676 
L 222.28725 88.983676 
L 224.733312 88.983676 
L 227.179373 88.983676 
L 229.625434 88.983676 
L 232.071496 88.983676 
L 234.517557 88.983676 
L 236.963619 88.983676 
L 239.40968 88.983676 
L 241.855742 88.983676 
L 244.301803 88.983676 
L 246.747864 88.983676 
L 249.193926 88.983676 
L 251.639987 88.983676 
L 254.086049 88.983676 
L 256.53211 88.983676 
L 258.978172 88.983676 
L 261.424233 88.983676 
L 263.870294 88.983676 
L 266.316356 88.983676 
L 268.762417 88.983676 
L 271.208479 88.983676 
L 273.65454 88.983676 
L 276.100602 88.983676 
L 278.546663 88.983676 
L 280.992725 88.983676 
L 283.438786 88.983676 
L 285.884847 88.983676 
L 288.330909 88.983676 
L 290.77697 88.983676 
L 293.223032 88.983676 
L 295.669093 88.983676 
L 298.115155 88.983676 
L 300.561216 88.983676 
L 303.007277 88.983676 
L 305.453339 88.983676 
L 307.8994 88.983676 
L 310.345462 88.983676 
L 312.791523 88.983676 
" clip-path="url(#p124259f11e)" style="fill: none; stroke: #73d056; stroke-width: 1.5; stroke-linecap: square"/>
   </g>
   <g id="line2d_39">
    <path d="M 70.631442 88.983676 
L 73.077503 88.983676 
L 75.523564 88.983676 
L 77.969626 88.983676 
L 80.415687 88.983676 
L 82.861749 88.983676 
L 85.30781 88.983676 
L 87.753872 88.983676 
L 90.199933 88.983676 
L 92.645994 88.983676 
L 95.092056 88.983676 
L 97.538117 88.983676 
L 99.984179 88.983676 
L 102.43024 88.983676 
L 104.876302 88.983676 
L 107.322363 88.983676 
L 109.768424 88.983676 
L 112.214486 88.983676 
L 114.660547 88.983676 
L 117.106609 88.983676 
L 119.55267 88.983676 
L 121.998732 88.983676 
L 124.444793 88.983676 
L 126.890854 88.983676 
L 129.336916 88.983676 
L 131.782977 88.983676 
L 134.229039 88.983676 
L 136.6751 88.983676 
L 139.121162 88.983676 
L 141.567223 88.983676 
L 144.013284 88.983676 
L 146.459346 88.983676 
L 148.905407 88.983676 
L 151.351469 88.983676 
L 153.79753 88.983676 
L 156.243592 88.983676 
L 158.689653 88.983676 
L 161.135714 88.983676 
L 163.581776 88.983676 
L 166.027837 88.983676 
L 168.473899 88.983676 
L 170.91996 88.983676 
L 173.366022 88.983676 
L 175.812083 88.983676 
L 178.258144 88.983676 
L 180.704206 88.983676 
L 183.150267 88.983676 
L 185.596329 88.983676 
L 188.04239 88.983676 
L 190.488452 88.983676 
L 192.934513 88.983676 
L 195.380574 88.983676 
L 197.826636 88.983676 
L 200.272697 88.983676 
L 202.718759 88.983676 
L 205.16482 88.983676 
L 207.610882 88.983676 
L 210.056943 88.983676 
L 212.503004 88.983676 
L 214.949066 88.983676 
L 217.395127 88.983676 
L 219.841189 88.983676 
L 222.28725 88.983676 
L 224.733312 88.983676 
L 227.179373 88.983676 
L 229.625434 88.983676 
L 232.071496 88.983676 
L 234.517557 88.983676 
L 236.963619 88.983676 
L 239.40968 88.983676 
L 241.855742 88.983676 
L 244.301803 88.983676 
L 246.747864 88.983676 
L 249.193926 88.983676 
L 251.639987 88.983676 
L 254.086049 88.983676 
L 256.53211 88.983676 
L 258.978172 88.983676 
L 261.424233 88.983676 
L 263.870294 88.983676 
L 266.316356 88.983676 
L 268.762417 88.983676 
L 271.208479 88.983676 
L 273.65454 88.983676 
L 276.100602 88.983676 
L 278.546663 88.983676 
L 280.992725 88.983676 
L 283.438786 88.983676 
L 285.884847 88.983676 
L 288.330909 88.983676 
L 290.77697 88.983676 
L 293.223032 88.983676 
L 295.669093 88.983676 
L 298.115155 88.983676 
L 300.561216 88.983676 
L 303.007277 88.983676 
L 305.453339 88.983676 
L 307.8994 88.983676 
L 310.345462 88.983676 
L 312.791523 88.983676 
" clip-path="url(#p124259f11e)" style="fill: none; stroke: #86d549; stroke-width: 1.5; stroke-linecap: square"/>
   </g>
   <g id="line2d_40">
    <path d="M 70.631442 88.983676 
L 73.077503 88.983676 
L 75.523564 88.983676 
L 77.969626 88.983676 
L 80.415687 88.983676 
L 82.861749 88.983676 
L 85.30781 88.983676 
L 87.753872 88.983676 
L 90.199933 88.983676 
L 92.645994 88.983676 
L 95.092056 88.983676 
L 97.538117 88.983676 
L 99.984179 88.983676 
L 102.43024 88.983676 
L 104.876302 88.983676 
L 107.322363 88.983676 
L 109.768424 88.983676 
L 112.214486 88.983676 
L 114.660547 88.983676 
L 117.106609 88.983676 
L 119.55267 88.983676 
L 121.998732 88.983676 
L 124.444793 88.983676 
L 126.890854 88.983676 
L 129.336916 88.983676 
L 131.782977 88.983676 
L 134.229039 88.983676 
L 136.6751 88.983676 
L 139.121162 88.983676 
L 141.567223 88.983676 
L 144.013284 88.983676 
L 146.459346 88.983676 
L 148.905407 88.983676 
L 151.351469 88.983676 
L 153.79753 88.983676 
L 156.243592 88.983676 
L 158.689653 88.983676 
L 161.135714 88.983676 
L 163.581776 88.983676 
L 166.027837 88.983676 
L 168.473899 88.983676 
L 170.91996 88.983676 
L 173.366022 88.983676 
L 175.812083 88.983676 
L 178.258144 88.983676 
L 180.704206 88.983676 
L 183.150267 88.983676 
L 185.596329 88.983676 
L 188.04239 88.983676 
L 190.488452 88.983676 
L 192.934513 88.983676 
L 195.380574 88.983676 
L 197.826636 88.983676 
L 200.272697 88.983676 
L 202.718759 88.983676 
L 205.16482 88.983676 
L 207.610882 88.983676 
L 210.056943 88.983676 
L 212.503004 88.983676 
L 214.949066 88.983676 
L 217.395127 88.983676 
L 219.841189 88.983676 
L 222.28725 88.983676 
L 224.733312 88.983676 
L 227.179373 88.983676 
L 229.625434 88.983676 
L 232.071496 88.983676 
L 234.517557 88.983676 
L 236.963619 88.983676 
L 239.40968 88.983676 
L 241.855742 88.983676 
L 244.301803 88.983676 
L 246.747864 88.983676 
L 249.193926 88.983676 
L 251.639987 88.983676 
L 254.086049 88.983676 
L 256.53211 88.983676 
L 258.978172 88.983676 
L 261.424233 88.983676 
L 263.870294 88.983676 
L 266.316356 88.983676 
L 268.762417 88.983676 
L 271.208479 88.983676 
L 273.65454 88.983676 
L 276.100602 88.983676 
L 278.546663 88.983676 
L 280.992725 88.983676 
L 283.438786 88.983676 
L 285.884847 88.983676 
L 288.330909 88.983676 
L 290.77697 88.983676 
L 293.223032 88.983676 
L 295.669093 88.983676 
L 298.115155 88.983676 
L 300.561216 88.983676 
L 303.007277 88.983676 
L 305.453339 88.983676 
L 307.8994 88.983676 
L 310.345462 88.983676 
L 312.791523 88.983676 
" clip-path="url(#p124259f11e)" style="fill: none; stroke: #9bd93c; stroke-width: 1.5; stroke-linecap: square"/>
   </g>
   <g id="line2d_41">
    <path d="M 70.631442 88.983676 
L 73.077503 88.983676 
L 75.523564 88.983676 
L 77.969626 88.983676 
L 80.415687 88.983676 
L 82.861749 88.983676 
L 85.30781 88.983676 
L 87.753872 88.983676 
L 90.199933 88.983676 
L 92.645994 88.983676 
L 95.092056 88.983676 
L 97.538117 88.983676 
L 99.984179 88.983676 
L 102.43024 88.983676 
L 104.876302 88.983676 
L 107.322363 88.983676 
L 109.768424 88.983676 
L 112.214486 88.983676 
L 114.660547 88.983676 
L 117.106609 88.983676 
L 119.55267 88.983676 
L 121.998732 88.983676 
L 124.444793 88.983676 
L 126.890854 88.983676 
L 129.336916 88.983676 
L 131.782977 88.983676 
L 134.229039 88.983676 
L 136.6751 88.983676 
L 139.121162 88.983676 
L 141.567223 88.983676 
L 144.013284 88.983676 
L 146.459346 88.983676 
L 148.905407 88.983676 
L 151.351469 88.983676 
L 153.79753 88.983676 
L 156.243592 88.983676 
L 158.689653 88.983676 
L 161.135714 88.983676 
L 163.581776 88.983676 
L 166.027837 88.983676 
L 168.473899 88.983676 
L 170.91996 88.983676 
L 173.366022 88.983676 
L 175.812083 88.983676 
L 178.258144 88.983676 
L 180.704206 88.983676 
L 183.150267 88.983676 
L 185.596329 88.983676 
L 188.04239 88.983676 
L 190.488452 88.983676 
L 192.934513 88.983676 
L 195.380574 88.983676 
L 197.826636 88.983676 
L 200.272697 88.983676 
L 202.718759 88.983676 
L 205.16482 88.983676 
L 207.610882 88.983676 
L 210.056943 88.983676 
L 212.503004 88.983676 
L 214.949066 88.983676 
L 217.395127 88.983676 
L 219.841189 88.983676 
L 222.28725 88.983676 
L 224.733312 88.983676 
L 227.179373 88.983676 
L 229.625434 88.983676 
L 232.071496 88.983676 
L 234.517557 88.983676 
L 236.963619 88.983676 
L 239.40968 88.983676 
L 241.855742 88.983676 
L 244.301803 88.983676 
L 246.747864 88.983676 
L 249.193926 88.983676 
L 251.639987 88.983676 
L 254.086049 88.983676 
L 256.53211 88.983676 
L 258.978172 88.983676 
L 261.424233 88.983676 
L 263.870294 88.983676 
L 266.316356 88.983676 
L 268.762417 88.983676 
L 271.208479 88.983676 
L 273.65454 88.983676 
L 276.100602 88.983676 
L 278.546663 88.983676 
L 280.992725 88.983676 
L 283.438786 88.983676 
L 285.884847 88.983676 
L 288.330909 88.983676 
L 290.77697 88.983676 
L 293.223032 88.983676 
L 295.669093 88.983676 
L 298.115155 88.983676 
L 300.561216 88.983676 
L 303.007277 88.983676 
L 305.453339 88.983676 
L 307.8994 88.983676 
L 310.345462 88.983676 
L 312.791523 88.983676 
" clip-path="url(#p124259f11e)" style="fill: none; stroke: #addc30; stroke-width: 1.5; stroke-linecap: square"/>
   </g>
   <g id="line2d_42">
    <path d="M 70.631442 88.983676 
L 73.077503 88.983676 
L 75.523564 88.983676 
L 77.969626 88.983676 
L 80.415687 88.983676 
L 82.861749 88.983676 
L 85.30781 88.983676 
L 87.753872 88.983676 
L 90.199933 88.983676 
L 92.645994 88.983676 
L 95.092056 88.983676 
L 97.538117 88.983676 
L 99.984179 88.983676 
L 102.43024 88.983676 
L 104.876302 88.983676 
L 107.322363 88.983676 
L 109.768424 88.983676 
L 112.214486 88.983676 
L 114.660547 88.983676 
L 117.106609 88.983676 
L 119.55267 88.983676 
L 121.998732 88.983676 
L 124.444793 88.983676 
L 126.890854 88.983676 
L 129.336916 88.983676 
L 131.782977 88.983676 
L 134.229039 88.983676 
L 136.6751 88.983676 
L 139.121162 88.983676 
L 141.567223 88.983676 
L 144.013284 88.983676 
L 146.459346 88.983676 
L 148.905407 88.983676 
L 151.351469 88.983676 
L 153.79753 88.983676 
L 156.243592 88.983676 
L 158.689653 88.983676 
L 161.135714 88.983676 
L 163.581776 88.983676 
L 166.027837 88.983676 
L 168.473899 88.983676 
L 170.91996 88.983676 
L 173.366022 88.983676 
L 175.812083 88.983676 
L 178.258144 88.983676 
L 180.704206 88.983676 
L 183.150267 88.983676 
L 185.596329 88.983676 
L 188.04239 88.983676 
L 190.488452 88.983676 
L 192.934513 88.983676 
L 195.380574 88.983676 
L 197.826636 88.983676 
L 200.272697 88.983676 
L 202.718759 88.983676 
L 205.16482 88.983676 
L 207.610882 88.983676 
L 210.056943 88.983676 
L 212.503004 88.983676 
L 214.949066 88.983676 
L 217.395127 88.983676 
L 219.841189 88.983676 
L 222.28725 88.983676 
L 224.733312 88.983676 
L 227.179373 88.983676 
L 229.625434 88.983676 
L 232.071496 88.983676 
L 234.517557 88.983676 
L 236.963619 88.983676 
L 239.40968 88.983676 
L 241.855742 88.983676 
L 244.301803 88.983676 
L 246.747864 88.983676 
L 249.193926 88.983676 
L 251.639987 88.983676 
L 254.086049 88.983676 
L 256.53211 88.983676 
L 258.978172 88.983676 
L 261.424233 88.983676 
L 263.870294 88.983676 
L 266.316356 88.983676 
L 268.762417 88.983676 
L 271.208479 88.983676 
L 273.65454 88.983676 
L 276.100602 88.983676 
L 278.546663 88.983676 
L 280.992725 88.983676 
L 283.438786 88.983676 
L 285.884847 88.983676 
L 288.330909 88.983676 
L 290.77697 88.983676 
L 293.223032 88.983676 
L 295.669093 88.983676 
L 298.115155 88.983676 
L 300.561216 88.983676 
L 303.007277 88.983676 
L 305.453339 88.983676 
L 307.8994 88.983676 
L 310.345462 88.983676 
L 312.791523 88.983676 
" clip-path="url(#p124259f11e)" style="fill: none; stroke: #c2df23; stroke-width: 1.5; stroke-linecap: square"/>
   </g>
   <g id="line2d_43">
    <path d="M 70.631442 88.983676 
L 73.077503 88.983676 
L 75.523564 88.983676 
L 77.969626 88.983676 
L 80.415687 88.983676 
L 82.861749 88.983676 
L 85.30781 88.983676 
L 87.753872 88.983676 
L 90.199933 88.983676 
L 92.645994 88.983676 
L 95.092056 88.983676 
L 97.538117 88.983676 
L 99.984179 88.983676 
L 102.43024 88.983676 
L 104.876302 88.983676 
L 107.322363 88.983676 
L 109.768424 88.983676 
L 112.214486 88.983676 
L 114.660547 88.983676 
L 117.106609 88.983676 
L 119.55267 88.983676 
L 121.998732 88.983676 
L 124.444793 88.983676 
L 126.890854 88.983676 
L 129.336916 88.983676 
L 131.782977 88.983676 
L 134.229039 88.983676 
L 136.6751 88.983676 
L 139.121162 88.983676 
L 141.567223 88.983676 
L 144.013284 88.983676 
L 146.459346 88.983676 
L 148.905407 88.983676 
L 151.351469 88.983676 
L 153.79753 88.983676 
L 156.243592 88.983676 
L 158.689653 88.983676 
L 161.135714 88.983676 
L 163.581776 88.983676 
L 166.027837 88.983676 
L 168.473899 88.983676 
L 170.91996 88.983676 
L 173.366022 88.983676 
L 175.812083 88.983676 
L 178.258144 88.983676 
L 180.704206 88.983676 
L 183.150267 88.983676 
L 185.596329 88.983676 
L 188.04239 88.983676 
L 190.488452 88.983676 
L 192.934513 88.983676 
L 195.380574 88.983676 
L 197.826636 88.983676 
L 200.272697 88.983676 
L 202.718759 88.983676 
L 205.16482 88.983676 
L 207.610882 88.983676 
L 210.056943 88.983676 
L 212.503004 88.983676 
L 214.949066 88.983676 
L 217.395127 88.983676 
L 219.841189 88.983676 
L 222.28725 88.983676 
L 224.733312 88.983676 
L 227.179373 88.983676 
L 229.625434 88.983676 
L 232.071496 88.983676 
L 234.517557 88.983676 
L 236.963619 88.983676 
L 239.40968 88.983676 
L 241.855742 88.983676 
L 244.301803 88.983676 
L 246.747864 88.983676 
L 249.193926 88.983676 
L 251.639987 88.983676 
L 254.086049 88.983676 
L 256.53211 88.983676 
L 258.978172 88.983676 
L 261.424233 88.983676 
L 263.870294 88.983676 
L 266.316356 88.983676 
L 268.762417 88.983676 
L 271.208479 88.983676 
L 273.65454 88.983676 
L 276.100602 88.983676 
L 278.546663 88.983676 
L 280.992725 88.983676 
L 283.438786 88.983676 
L 285.884847 88.983676 
L 288.330909 88.983676 
L 290.77697 88.983676 
L 293.223032 88.983676 
L 295.669093 88.983676 
L 298.115155 88.983676 
L 300.561216 88.983676 
L 303.007277 88.983676 
L 305.453339 88.983676 
L 307.8994 88.983676 
L 310.345462 88.983676 
L 312.791523 88.983676 
" clip-path="url(#p124259f11e)" style="fill: none; stroke: #d8e219; stroke-width: 1.5; stroke-linecap: square"/>
   </g>
   <g id="line2d_44">
    <path d="M 70.631442 88.983676 
L 73.077503 88.983676 
L 75.523564 88.983676 
L 77.969626 88.983676 
L 80.415687 88.983676 
L 82.861749 88.983676 
L 85.30781 88.983676 
L 87.753872 88.983676 
L 90.199933 88.983676 
L 92.645994 88.983676 
L 95.092056 88.983676 
L 97.538117 88.983676 
L 99.984179 88.983676 
L 102.43024 88.983676 
L 104.876302 88.983676 
L 107.322363 88.983676 
L 109.768424 88.983676 
L 112.214486 88.983676 
L 114.660547 88.983676 
L 117.106609 88.983676 
L 119.55267 88.983676 
L 121.998732 88.983676 
L 124.444793 88.983676 
L 126.890854 88.983676 
L 129.336916 88.983676 
L 131.782977 88.983676 
L 134.229039 88.983676 
L 136.6751 88.983676 
L 139.121162 88.983676 
L 141.567223 88.983676 
L 144.013284 88.983676 
L 146.459346 88.983676 
L 148.905407 88.983676 
L 151.351469 88.983676 
L 153.79753 88.983676 
L 156.243592 88.983676 
L 158.689653 88.983676 
L 161.135714 88.983676 
L 163.581776 88.983676 
L 166.027837 88.983676 
L 168.473899 88.983676 
L 170.91996 88.983676 
L 173.366022 88.983676 
L 175.812083 88.983676 
L 178.258144 88.983676 
L 180.704206 88.983676 
L 183.150267 88.983676 
L 185.596329 88.983676 
L 188.04239 88.983676 
L 190.488452 88.983676 
L 192.934513 88.983676 
L 195.380574 88.983676 
L 197.826636 88.983676 
L 200.272697 88.983676 
L 202.718759 88.983676 
L 205.16482 88.983676 
L 207.610882 88.983676 
L 210.056943 88.983676 
L 212.503004 88.983676 
L 214.949066 88.983676 
L 217.395127 88.983676 
L 219.841189 88.983676 
L 222.28725 88.983676 
L 224.733312 88.983676 
L 227.179373 88.983676 
L 229.625434 88.983676 
L 232.071496 88.983676 
L 234.517557 88.983676 
L 236.963619 88.983676 
L 239.40968 88.983676 
L 241.855742 88.983676 
L 244.301803 88.983676 
L 246.747864 88.983676 
L 249.193926 88.983676 
L 251.639987 88.983676 
L 254.086049 88.983676 
L 256.53211 88.983676 
L 258.978172 88.983676 
L 261.424233 88.983676 
L 263.870294 88.983676 
L 266.316356 88.983676 
L 268.762417 88.983676 
L 271.208479 88.983676 
L 273.65454 88.983676 
L 276.100602 88.983676 
L 278.546663 88.983676 
L 280.992725 88.983676 
L 283.438786 88.983676 
L 285.884847 88.983676 
L 288.330909 88.983676 
L 290.77697 88.983676 
L 293.223032 88.983676 
L 295.669093 88.983676 
L 298.115155 88.983676 
L 300.561216 88.983676 
L 303.007277 88.983676 
L 305.453339 88.983676 
L 307.8994 88.983676 
L 310.345462 88.983676 
L 312.791523 88.983676 
" clip-path="url(#p124259f11e)" style="fill: none; stroke: #ece51b; stroke-width: 1.5; stroke-linecap: square"/>
   </g>
   <g id="patch_3">
    <path d="M 58.523438 170.767352 
L 58.523438 7.2 
" style="fill: none"/>
   </g>
   <g id="patch_4">
    <path d="M 324.899527 170.767352 
L 324.899527 7.2 
" style="fill: none"/>
   </g>
   <g id="patch_5">
    <path d="M 58.523438 170.767352 
L 324.899527 170.767352 
" style="fill: none"/>
   </g>
   <g id="patch_6">
    <path d="M 58.523438 7.2 
L 324.899527 7.2 
" style="fill: none"/>
   </g>
  </g>
 </g>
 <defs>
  <clipPath id="p124259f11e">
   <rect x="58.523438" y="7.2" width="266.37609" height="163.567352"/>
  </clipPath>
 </defs>
</svg>
